<?xml version="1.0" encoding="UTF-8"?>
<svg version="1.1" xmlns="http://www.w3.org/2000/svg" width="328" height="328">
<path d="M0 0 C7.15829487 3.38620148 13.80162536 7.65680383 20.47265625 11.8984375 C26.05545598 15.43393485 31.71512838 18.84169615 37.3706665 22.25891113 C45.96699768 27.4541732 54.54772458 32.66775675 63.0234375 38.05859375 C70.25822846 42.65960453 77.53409492 47.18969242 84.8359375 51.68359375 C85.91673584 52.34931396 86.99753418 53.01503418 88.11108398 53.70092773 C94.06795947 57.3617651 100.04242425 60.99060824 106.0390625 64.5859375 C107.31199784 65.35120609 108.58486626 66.11658601 109.85766602 66.88208008 C112.28356067 68.34106618 114.71432443 69.79142666 117.14819336 71.23706055 C133.03924264 80.78787598 133.03924264 80.78787598 135.3984375 86.99609375 C135.66687965 89.84257221 135.66687965 89.84257221 135.69277954 93.20051575 C135.71424545 95.11201668 135.71424545 95.11201668 135.73614502 97.06213379 C135.74182513 98.47216699 135.74724863 99.88220125 135.75244141 101.29223633 C135.76497607 102.77899304 135.77827015 104.26574352 135.79226685 105.75248718 C135.83428241 110.63182234 135.85506285 115.51115831 135.875 120.390625 C135.88309707 122.07198336 135.89133097 123.75334107 135.89970016 125.4346981 C135.93778636 133.33320144 135.96625401 141.23166756 135.9829241 149.13024503 C136.0024743 158.24238441 136.05513157 167.35355278 136.13592589 176.46534997 C136.19626639 183.51262378 136.22586324 190.55961933 136.23248613 197.60714644 C136.23718471 201.81469096 136.25506772 206.02119713 136.30540848 210.22846413 C136.35201755 214.18764635 136.3604222 218.14510848 136.33988571 222.10449409 C136.33889584 223.55452961 136.35151406 225.00465045 136.3789978 226.45442581 C136.57437462 237.37464904 136.57437462 237.37464904 133.67101669 241.37795353 C131.66129236 243.17438827 129.70367715 244.60728456 127.3984375 245.99609375 C126.30402344 246.72094971 125.20960938 247.44580566 124.08203125 248.19262695 C123.01082031 248.80452881 121.93960937 249.41643066 120.8359375 250.046875 C120.24727402 250.38696091 119.65861053 250.72704681 119.05210876 251.07743835 C117.80978352 251.79411764 116.56523596 252.5069575 115.318573 253.21606445 C112.04437238 255.0790372 108.78728856 256.9716069 105.52734375 258.859375 C104.89252579 259.22588165 104.25770782 259.59238831 103.60365295 259.97000122 C99.12431803 262.55995961 94.70180267 265.21987324 90.3359375 267.99609375 C83.28994306 272.46747833 76.16184822 276.79941147 69.0234375 281.12109375 C58.61616946 287.4242813 48.23804064 293.77198555 37.88232422 300.15966797 C29.53744458 305.30415858 21.16801241 310.40728884 12.7800293 315.48120117 C11.89613525 316.01720947 11.01224121 316.55321777 10.1015625 317.10546875 C8.85536133 317.85086914 8.85536133 317.85086914 7.58398438 318.61132812 C5.20263362 320.05588007 5.20263362 320.05588007 2.5078125 322.38671875 C-2.50946414 324.98360063 -7.08707269 324.97037633 -12.6015625 323.99609375 C-16.94541409 322.16963631 -20.7062219 319.69272803 -24.6015625 317.05859375 C-25.72166726 316.33119283 -26.84379205 315.60689434 -27.96777344 314.88549805 C-30.32303274 313.37173126 -32.67043418 311.84675372 -35.01367188 310.31445312 C-40.29358125 306.881038 -45.6851649 303.63183883 -51.0776062 300.37924194 C-52.85436548 299.30690205 -54.62875656 298.23073963 -56.40258789 297.15356445 C-63.58306444 292.79666705 -70.79784452 288.50116889 -78.0390625 284.24609375 C-85.84697815 279.65772619 -93.57493164 274.95699076 -101.26049805 270.16674805 C-106.43028539 266.94824285 -111.61837251 263.76262621 -116.828125 260.609375 C-117.45087311 260.23233429 -118.07362122 259.85529358 -118.71524048 259.46682739 C-121.78250136 257.61065978 -124.85145623 255.75735486 -127.92236328 253.90722656 C-131.15793751 251.95134948 -134.38300572 249.97982883 -137.6015625 247.99609375 C-138.49939453 247.44808105 -139.39722656 246.90006836 -140.32226562 246.33544922 C-141.12083984 245.83029785 -141.91941406 245.32514648 -142.7421875 244.8046875 C-143.42313477 244.37857178 -144.10408203 243.95245605 -144.80566406 243.51342773 C-147.94086751 240.86453031 -149.45101063 238.13308511 -149.99025917 234.06059551 C-149.99658552 232.96944345 -150.00291187 231.87829138 -150.00942993 230.7540741 C-150.02367004 229.49663895 -150.03791016 228.2392038 -150.05258179 226.94366455 C-150.05312802 225.55773935 -150.05333012 224.17181398 -150.05322266 222.78588867 C-150.06384124 221.32030855 -150.07567232 219.85473678 -150.08862305 218.38917542 C-150.11936671 214.41383009 -150.1305408 210.43866477 -150.13626528 206.46321273 C-150.14062349 203.977426 -150.14900127 201.4916857 -150.15876389 199.00591469 C-150.19249835 190.32773075 -150.20964381 181.64968267 -150.21240234 172.97143555 C-150.21543624 164.89196754 -150.25587329 156.81326519 -150.31355059 148.73401946 C-150.36137518 141.78944783 -150.38213446 134.84512856 -150.38219297 127.90039331 C-150.38273033 123.75612128 -150.3942502 119.61259924 -150.43336868 115.46849632 C-150.46931156 111.56846155 -150.47146971 107.6698217 -150.44819641 103.76970482 C-150.4453435 102.34269451 -150.4543346 100.91560102 -150.47637558 99.48875809 C-150.65152626 87.3951944 -150.65152626 87.3951944 -146.2219696 82.21638489 C-143.42480427 79.52846712 -140.48591293 77.26074859 -137.14453125 75.27734375 C-135.61965088 74.35683228 -135.61965088 74.35683228 -134.06396484 73.41772461 C-132.98324707 72.78358643 -131.9025293 72.14944824 -130.7890625 71.49609375 C-129.63664648 70.80559451 -128.48513394 70.11358544 -127.33447266 69.42016602 C-124.94861445 67.98402016 -122.55905139 66.55436648 -120.16650391 65.12939453 C-114.56808692 61.78821061 -109.02483954 58.35714145 -103.4765625 54.93359375 C-102.4026123 54.27311035 -101.32866211 53.61262695 -100.22216797 52.93212891 C-92.93118782 48.44596323 -85.66721246 43.91810875 -78.4140625 39.37109375 C-68.77930072 33.33329919 -59.09179853 27.38794579 -49.3671875 21.49609375 C-45.36844299 19.07327665 -41.38033764 16.63399384 -37.3984375 14.18359375 C-36.37564697 13.55590088 -35.35285645 12.92820801 -34.29907227 12.28149414 C-32.3601162 11.09113333 -30.42295804 9.89783646 -28.48803711 8.70092773 C-8.76431431 -3.38202519 -8.76431431 -3.38202519 0 0 Z " fill="#274C8D" transform="translate(170.6015625,2.00390625)"/>
<path d="M0 0 C3.4375 1.5 3.4375 1.5 6 3 C9.92506235 3.33075929 9.92506235 3.33075929 12.625 1.5 C18.08628392 -0.9272373 23.06497704 -1.02179166 28.7265625 0.94921875 C33.50532842 3.18353851 37.23146249 5.34382328 40 10 C40 10.66 40 11.32 40 12 C40.66 11.67 41.32 11.34 42 11 C49.39343453 9.98596992 54.63590317 11.05391675 60.83203125 15.2109375 C64.81677369 18.49924748 67.35142117 22.05426352 69 27 C69.06802967 28.72795352 69.08495645 30.45835365 69.0625 32.1875 C69.05347656 33.08855469 69.04445312 33.98960938 69.03515625 34.91796875 C69.01775391 35.94857422 69.01775391 35.94857422 69 37 C69.60714844 37.27585938 70.21429688 37.55171875 70.83984375 37.8359375 C74.5892664 39.85642204 77.31481837 43.0205864 78.703125 47.03125 C78.90421875 47.7221875 79.1053125 48.413125 79.3125 49.125 C80.13968695 51.62546799 80.54897601 52.7088576 82.78515625 54.15234375 C84.18385174 54.76149524 85.58762981 55.35910099 86.99609375 55.9453125 C91.10693673 58.10891407 93.30910162 62.0335969 94.8125 66.3125 C95 69 95 69 94.8359375 71.28515625 C94.44130389 76.37745959 94.44130389 76.37745959 96.26171875 80.9921875 C97.3309846 82.15724714 98.4209445 83.30367013 99.53125 84.4296875 C103.17475438 88.32513633 103.45000503 93.47012602 103.3125 98.56640625 C102.31644324 106.32319825 98.96188257 112.07496657 93 117 C92.34 117 91.68 117 91 117 C91.03480469 117.6290625 91.06960937 118.258125 91.10546875 118.90625 C91.32539376 125.86006938 91.02292333 131.6167282 86.23046875 136.98046875 C80.65449328 142.15130643 75.79635725 144.45557129 68.02734375 144.26171875 C63.73475027 143.70756892 60.0796829 142.0796829 57 139 C53.86262443 139.47858271 51.04541942 140.14219318 48 141 C46.19402344 141.48146484 46.19402344 141.48146484 44.3515625 141.97265625 C36.09277897 144.32904335 30.47074776 147.18666048 25 154 C23.75315559 155.41944477 22.50321863 156.83617982 21.25 158.25 C20.71890625 158.87390625 20.1878125 159.4978125 19.640625 160.140625 C18 162 18 162 15.93554688 163.4765625 C12.9070374 167.42493207 13.39680493 171.38718408 13.390625 176.234375 C13.37408875 177.22753723 13.35755249 178.22069946 13.34051514 179.24395752 C13.29197231 182.41270086 13.27064988 185.58096406 13.25 188.75 C13.22184563 190.89976382 13.19191896 193.04950521 13.16015625 195.19921875 C13.08621137 200.46610632 13.03667489 205.73272636 13 211 C9.7 211 6.4 211 3 211 C3.05349609 209.6903125 3.10699219 208.380625 3.16210938 207.03125 C3.34163607 202.09598098 3.41177522 197.16379197 3.45166016 192.22558594 C3.48346693 190.10320644 3.54357955 187.98103077 3.63427734 185.86035156 C4.33104215 172.04927438 4.33104215 172.04927438 -1.59375 160.03515625 C-4.92576637 156.52753027 -8.49928625 153.38319346 -12.32800293 150.4284668 C-14 149 -14 149 -16 146 C-18.82688882 144.86018615 -18.82688882 144.86018615 -22.125 144 C-26.02827755 142.88292941 -29.81130432 141.74045246 -33.5625 140.1875 C-37.05791474 138.97999309 -37.72347132 138.83673538 -41 140 C-42.03125 140.680625 -43.0625 141.36125 -44.125 142.0625 C-48.63680651 144.71536477 -52.90276785 144.65053528 -58 144 C-65.11971069 142.069231 -69.39566681 137.21162793 -73.18359375 131.0859375 C-74.19545847 128.50059893 -74.2039078 126.33187321 -74.25 123.5625 C-74.54112716 118.88222071 -74.54112716 118.88222071 -77.75 115.4375 C-78.28367187 115.07398438 -78.81734375 114.71046875 -79.3671875 114.3359375 C-83.876584 110.64643127 -85.67663752 105.14440384 -86.51953125 99.5546875 C-86.9005461 91.34957704 -85.50011258 86.14001488 -80 80 C-79.505 79.505 -79.505 79.505 -79 79 C-78.86695727 76.96001149 -78.76892881 74.91769989 -78.6875 72.875 C-78.17762534 66.01418662 -77.32705166 62.00507892 -72.0625 57.25 C-66.71064815 53 -66.71064815 53 -63 53 C-62.95875 52.01 -62.9175 51.02 -62.875 50 C-62.20231668 45.08037569 -59.29083297 41.57888997 -56 38 C-55.01 37.505 -55.01 37.505 -54 37 C-53.68142211 35.15637798 -53.44561699 33.2981902 -53.25 31.4375 C-52.03968928 23.53764241 -48.70658527 18.88066161 -42.4375 14.0625 C-37.17124281 10.63598331 -32.11750109 10.79942619 -26 11 C-25.34 11.33 -24.68 11.66 -24 12 C-23.73960937 11.40445313 -23.47921875 10.80890625 -23.2109375 10.1953125 C-21.92148412 7.85765831 -20.66460378 6.57615425 -18.625 4.875 C-18.03976563 4.37742187 -17.45453125 3.87984375 -16.8515625 3.3671875 C-11.47965458 -0.59941118 -6.5303503 -0.65398283 0 0 Z " fill="#F9FAFB" transform="translate(156,63)"/>
<path d="M0 0 C2.70567626 1.82339052 4.53728718 3.07457436 6 6 C6.09499503 7.49756871 6.12987198 8.99942932 6.125 10.5 C6.12886719 11.69109375 6.12886719 11.69109375 6.1328125 12.90625 C6 15 6 15 5 17 C8.98337333 16.72209023 10.59422226 16.41618229 13.4375 13.5 C16.68668244 10.33006591 18.50218829 10 23 10 C26.85174864 11.28391621 28.68629204 12.64501468 31.375 15.6875 C33.47747465 19.97331371 33.4583991 22.26320934 33 27 C31.9765625 29.2421875 31.9765625 29.2421875 31 31 C31.60328125 31.23074219 32.2065625 31.46148437 32.828125 31.69921875 C37.76617922 33.71426346 41.10752546 35.29972887 44 40 C45.1577506 43.47325181 45.06866652 46.36067448 45 50 C46.051875 50.0825 47.10375 50.165 48.1875 50.25 C52.95557607 51.18798218 55.41402713 52.8853695 58.3125 56.75 C60.30029995 63.25552712 58.91971462 68.16057076 56 74 C56.721875 74.04125 57.44375 74.0825 58.1875 74.125 C61.38483517 75.1197265 63.02453748 76.52845455 65.05078125 79.1875 C66.84477759 82.61307326 66.48506725 85.1800954 66 89 C64.17715547 92.90609543 61.92772968 96.10432445 57.95703125 97.94921875 C57.24933594 98.19285156 56.54164063 98.43648438 55.8125 98.6875 C55.09707031 98.93886719 54.38164062 99.19023437 53.64453125 99.44921875 C53.10183594 99.63097656 52.55914062 99.81273437 52 100 C53.39759905 103.54518884 53.39759905 103.54518884 55 107 C55.59968751 112.27725011 54.27164725 114.88707202 51 119 C47.2626144 121.4915904 45.42668417 121.45793285 41 121 C38.0625 119.1875 38.0625 119.1875 36 117 C36 116.01 36 115.02 36 114 C33.69 114 31.38 114 29 114 C28.91600952 115.17018677 28.91600952 115.17018677 28.83032227 116.36401367 C28 119 28 119 25.71850586 120.2668457 C24.72729736 120.56679443 23.73608887 120.86674316 22.71484375 121.17578125 C21.08192383 121.70655273 21.08192383 121.70655273 19.41601562 122.24804688 C17.12528464 122.94902856 14.8336371 123.64702314 12.54101562 124.34179688 C3.34450301 127.33889875 -1.4604748 131.52902081 -7.375 139 C-8.179375 139.99 -8.179375 139.99 -9 141 C-9.66 141 -10.32 141 -11 141 C-11.33 141.99 -11.66 142.98 -12 144 C-12.33 144 -12.66 144 -13 144 C-13.83616198 135.6519509 -13.83616198 135.6519509 -12.05810547 132.13916016 C-10.61668799 130.39411697 -9.08952798 128.85998091 -7.4375 127.3125 C-6.83631348 126.71308594 -6.23512695 126.11367187 -5.61572266 125.49609375 C-4.23523084 124.12272662 -2.84445875 122.75964708 -1.44580078 121.40478516 C0.8640384 119.13368155 3.12162762 116.82316547 5.36747742 114.48930359 C7.42750254 112.34928263 9.49950347 110.22109109 11.57345581 108.09457397 C12.60722416 107.03213559 13.63777528 105.96655722 14.66506958 104.89785767 C16.12129773 103.38810964 17.5932537 101.8955878 19.0703125 100.40625 C19.92383301 99.53291016 20.77735352 98.65957031 21.65673828 97.75976562 C24 96 24 96 26.18310547 96.16210938 C27.4654267 96.75347278 28.73696922 97.36848461 30 98 C35.28305214 98.52657873 39.66862857 98.64191122 44.5 96.3125 C47.8676675 93.19740756 49.78021991 90.63973187 50.3984375 86.02734375 C50.38683594 84.49787109 50.38683594 84.49787109 50.375 82.9375 C50.38273437 81.91527344 50.39046875 80.89304687 50.3984375 79.83984375 C49.95354476 76.66889254 49.02643215 75.40705829 47 73 C47 72.34 47 71.68 47 71 C41.36676928 68.41594921 36.10397992 68.34659294 30 69 C25.764115 70.8578443 23.95753317 72.62470844 22.125 76.75 C21.75375 77.8225 21.3825 78.895 21 80 C19.85337891 79.82984375 19.85337891 79.82984375 18.68359375 79.65625 C13.73566542 79.41808257 9.98308165 79.469166 6.00878906 82.53710938 C1.92047026 86.45183923 -1.68304465 90.76456815 -5.30810547 95.10351562 C-7.65547629 97.73473879 -10.21708896 99.84165067 -13 102 C-14.48355076 95.51133858 -15.24965826 89.39297548 -13 83 C-9.88158723 78.42196651 -6.22784576 74.58670399 -2.25 70.75 C-1.48632111 70.0048111 -1.48632111 70.0048111 -0.70721436 69.24456787 C5.51229162 63.26226012 5.51229162 63.26226012 9 61 C11.19311523 61.22998047 11.19311523 61.22998047 13 62 C18.95567867 62.77060537 22.79205972 62.15927341 27.58984375 58.484375 C31.47138724 54.39853974 31.4805126 50.10318777 31.38671875 44.69921875 C30.77277065 40.41398505 29.21445287 38.84917413 26 36 C21.52770807 33.32035953 17.07962423 33.0806815 12 34 C8.56912446 36.01162847 5.79010633 38.41978733 4 42 C4.10699219 42.77988281 4.21398437 43.55976562 4.32421875 44.36328125 C4.83198638 48.48548081 5.17016343 52.10358233 2.90722656 55.77099609 C-1.69966755 61.60435923 -7.20977082 66.38619752 -13 71 C-13.13903047 62.20314413 -13.24563481 53.40666643 -13.31087303 44.60895157 C-13.34218485 40.52373701 -13.38465229 36.4392741 -13.45263672 32.35449219 C-13.51783864 28.41221487 -13.55370717 24.47066032 -13.56926346 20.52788544 C-13.5803487 19.02388884 -13.6019968 17.51993176 -13.63438034 16.01624298 C-13.67796215 13.90872319 -13.68393448 11.80418709 -13.68115234 9.69628906 C-13.69447601 8.49715881 -13.70779968 7.29802856 -13.7215271 6.06256104 C-13 3 -13 3 -10.18008423 0.58148193 C-6.15946404 -1.41800542 -4.27937549 -1.24490923 0 0 Z " fill="#294D8D" transform="translate(182,75)"/>
<path d="M0 0 C2.63450938 2.70041876 2.29168798 4.6208577 2.26373291 8.34587097 C2.26431702 8.99979828 2.26490112 9.65372559 2.26550293 10.32746887 C2.26271823 12.4868954 2.23161177 14.64493789 2.20025635 16.80412292 C2.19279524 18.30198411 2.18710169 19.79985506 2.18310547 21.29772949 C2.16783861 25.23861174 2.12854859 29.17890353 2.08428955 33.11955261 C2.04335902 37.14128125 2.02509925 41.16310538 2.00494385 45.1849823 C1.96205461 53.07522711 1.89379143 60.96499218 1.80963135 68.85490417 C0.68782221 67.89819502 -0.43330262 66.94068343 -1.55413818 65.98283386 C-2.1785379 65.44970581 -2.80293762 64.91657776 -3.44625854 64.36729431 C-5.39205406 62.68001441 -7.24850412 60.93014135 -9.06536865 59.10490417 C-9.92775146 58.24638855 -9.92775146 58.24638855 -10.80755615 57.37052917 C-14.22682205 53.6228592 -13.50452499 48.94661184 -13.71380615 44.11662292 C-14.2262023 40.60964927 -15.09528552 38.68528091 -17.19036865 35.85490417 C-21.93984916 32.57550097 -26.58089278 31.95015 -32.19036865 32.85490417 C-36.57290419 35.04617194 -39.35706681 37.27164956 -41.19036865 41.85490417 C-41.8927842 46.5376745 -41.66526553 49.88684516 -39.56536865 54.16740417 C-35.94482835 58.26433136 -33.18870025 60.67961193 -27.62786865 61.16740417 C-24.31254066 60.97521116 -24.31254066 60.97521116 -21.69793701 60.13591003 C-19.19036865 59.85490417 -19.19036865 59.85490417 -17.34100342 61.11491394 C-16.77695801 61.75227478 -16.2129126 62.38963562 -15.6317749 63.04631042 C-14.68141357 64.09335144 -14.68141357 64.09335144 -13.71185303 65.1615448 C-13.06538818 65.90597839 -12.41892334 66.65041199 -11.75286865 67.41740417 C-10.46334633 68.85696119 -9.17299268 70.29577397 -7.8817749 71.73381042 C-7.2639917 72.44215027 -6.6462085 73.15049011 -6.00970459 73.8802948 C-4.34537151 75.68667241 -2.60928643 77.209553 -0.7411499 78.79631042 C2.75434218 82.98768913 2.51240254 85.96035192 2.18463135 91.22990417 C2.14402588 92.47707214 2.14402588 92.47707214 2.1026001 93.74943542 C2.03238328 95.78572305 1.9247771 97.82066251 1.80963135 99.85490417 C-12.68005228 87.88516552 -12.68005228 87.88516552 -16.6161499 81.56584167 C-18.12115019 79.55735879 -18.12115019 79.55735879 -20.9677124 79.52677917 C-22.01056396 79.55256042 -23.05341553 79.57834167 -24.12786865 79.60490417 C-27.38568115 79.45256042 -27.38568115 79.45256042 -30.19036865 78.85490417 C-31.80976739 76.93905813 -32.44056773 75.21504902 -33.2880249 72.86662292 C-34.61427901 69.90982263 -36.40576877 68.84683546 -39.2723999 67.48381042 C-43.67435866 66.04039829 -47.18809572 65.97935831 -51.37005615 67.80802917 C-55.40706257 70.14446513 -58.61712502 72.33182872 -60.19036865 76.85490417 C-60.94147066 82.35160525 -61.14585104 87.19822177 -57.94036865 91.91740417 C-55.98812245 94.38181373 -54.13099829 95.72430108 -51.19036865 96.85490417 C-48.57526379 97.17045547 -48.57526379 97.17045547 -45.81536865 97.10490417 C-44.90013428 97.11006042 -43.9848999 97.11521667 -43.04193115 97.12052917 C-39.85662158 96.82381541 -37.20224654 95.90455326 -34.19036865 94.85490417 C-29.70276732 99.31708506 -25.21914286 103.78323346 -20.73822021 108.25212097 C-19.21438733 109.77093486 -17.68965685 111.28884874 -16.16400146 112.80583191 C-13.96727921 114.99038197 -11.77383849 117.17818158 -9.58099365 119.36662292 C-8.90167786 120.04077744 -8.22236206 120.71493195 -7.52246094 121.40951538 C1.61913993 130.550038 1.61913993 130.550038 2.20025635 134.53068542 C2.1538501 135.40080261 2.10744385 136.2709198 2.05963135 137.16740417 C2.0235376 138.05041199 1.98744385 138.9334198 1.95025635 139.84318542 C1.9038501 140.50705261 1.85744385 141.1709198 1.80963135 141.85490417 C-4.76280326 136.40118184 -4.76280326 136.40118184 -6.8505249 133.73381042 C-14.00486831 124.96936001 -24.50539394 122.8045787 -34.99481201 119.67350769 C-37.19036865 118.85490417 -37.19036865 118.85490417 -39.19036865 116.85490417 C-39.19036865 115.53490417 -39.19036865 114.21490417 -39.19036865 112.85490417 C-41.50036865 112.85490417 -43.81036865 112.85490417 -46.19036865 112.85490417 C-46.43786865 113.63865417 -46.68536865 114.42240417 -46.94036865 115.22990417 C-48.19036865 117.85490417 -48.19036865 117.85490417 -49.87786865 119.16740417 C-53.21594167 120.15980426 -55.72325401 120.28069018 -59.19036865 119.85490417 C-62.34991171 117.31353259 -63.90577752 115.70867758 -65.19036865 111.85490417 C-65.72972517 106.13772506 -64.71205111 103.36705983 -61.19036865 98.85490417 C-62.05661865 98.77240417 -62.92286865 98.68990417 -63.81536865 98.60490417 C-69.03307947 97.44541288 -72.0978806 95.11989034 -75.56536865 91.10490417 C-77.55109411 87.13345326 -78.1851347 84.20592438 -77.19036865 79.85490417 C-75.80817966 77.13169778 -74.563279 75.96988948 -72.19036865 73.85490417 C-68.87786865 72.97990417 -68.87786865 72.97990417 -66.19036865 72.85490417 C-66.68536865 72.09177917 -67.18036865 71.32865417 -67.69036865 70.54240417 C-69.71394528 65.5677783 -69.92644693 61.16113879 -69.19036865 55.85490417 C-67.16693703 52.31389884 -65.1001975 50.1198488 -61.19036865 48.85490417 C-57.94036865 48.72990417 -57.94036865 48.72990417 -55.19036865 48.85490417 C-55.27286865 47.65865417 -55.35536865 46.46240417 -55.44036865 45.22990417 C-55.44036865 40.74096201 -54.09950133 38.32970153 -51.19036865 34.85490417 C-48.10235109 31.86982053 -45.41451747 31.33492109 -41.19036865 30.85490417 C-41.52036865 30.21552917 -41.85036865 29.57615417 -42.19036865 28.91740417 C-43.77049131 24.07827855 -44.49903457 19.44336838 -42.12786865 14.75334167 C-39.61313759 11.43225663 -37.33287143 9.47200568 -33.19036865 8.66740417 C-28.9074411 8.4783306 -26.40365104 10.03348549 -23.19036865 12.85490417 C-22.69536865 14.33990417 -22.69536865 14.33990417 -22.19036865 15.85490417 C-19.88036865 15.85490417 -17.57036865 15.85490417 -15.19036865 15.85490417 C-15.68536865 15.05052917 -15.68536865 15.05052917 -16.19036865 14.22990417 C-17.48654052 11.15149599 -17.58910869 9.17773779 -17.19036865 5.85490417 C-15.55272544 2.81356677 -14.09043526 0.56875011 -11.37786865 -1.58259583 C-7.33748309 -2.62155211 -3.66476367 -1.91589009 0 0 Z " fill="#284C8D" transform="translate(157.19036865234375,76.14509582519531)"/>
<path d="M0 0 C3.3 0 6.6 0 10 0 C9.01320693 3.94717228 8.6605884 4.71330541 5.96484375 7.39160156 C5.32748291 8.0319635 4.69012207 8.67232544 4.03344727 9.33209229 C2.99595337 10.35106598 2.99595337 10.35106598 1.9375 11.390625 C1.23101318 12.09523865 0.52452637 12.79985229 -0.20336914 13.52581787 C-1.69621172 15.01194224 -3.19264568 16.49446644 -4.69238281 17.97363281 C-6.99807513 20.24810119 -9.29286049 22.53313282 -11.5859375 24.8203125 C-13.03583559 26.26104365 -14.48633583 27.70116911 -15.9375 29.140625 C-16.6291626 29.82803772 -17.3208252 30.51545044 -18.03344727 31.22369385 C-18.98948853 32.16532379 -18.98948853 32.16532379 -19.96484375 33.12597656 C-20.80970337 33.96059418 -20.80970337 33.96059418 -21.67163086 34.81207275 C-23 36 -23 36 -24 36 C-24.78691737 32.1208366 -24.86334864 28.87651211 -24 25 C-20.74044405 20.38248166 -16.72812519 16.72826166 -12.5625 12.9375 C-10.92702668 11.396774 -9.29919683 9.84826409 -7.6716156 8.29920959 C-6.20114647 6.90818126 -4.71340057 5.53548412 -3.22485352 4.16381836 C-0.96416345 2.20281829 -0.96416345 2.20281829 0 0 Z " fill="#274B8C" transform="translate(193,162)"/>
<path d="M0 0 C3.23301397 -0.62304852 4.86366929 -0.81443728 8 0 C12.03971756 2.98105931 15.39234133 6.59571446 18.8125 10.25 C19.76054137 11.22963735 20.71039798 12.20752142 21.66210938 13.18359375 C31.85809939 23.75127461 31.85809939 23.75127461 32.29296875 27.578125 C32.25816406 28.45984375 32.22335938 29.3415625 32.1875 30.25 C32.14689453 31.58804688 32.14689453 31.58804688 32.10546875 32.953125 C32.07066406 33.62859375 32.03585938 34.3040625 32 35 C25.57602203 29.72282796 19.68504882 23.9389136 13.79077148 18.0859375 C12.63046222 16.93726575 11.46567051 15.79310568 10.29663086 14.65332031 C8.59551015 12.99463871 6.90782106 11.32330875 5.22265625 9.6484375 C4.69777115 9.14106049 4.17288605 8.63368347 3.63209534 8.1109314 C0.64335285 5.10389364 0 4.43958857 0 0 Z " fill="#24498B" transform="translate(127,162)"/>
<path d="M0 0 C-1.38510035 3.13501253 -2.97800985 5.19972984 -5.43994141 7.57177734 C-6.49080429 8.59336441 -6.49080429 8.59336441 -7.56289673 9.6355896 C-8.31815643 10.36170441 -9.07341614 11.08781921 -9.8515625 11.8359375 C-11.44068306 13.39003328 -13.02920671 14.94473961 -14.6171875 16.5 C-17.12380264 18.94461405 -19.63466021 21.38430615 -22.15625 23.81347656 C-24.58904463 26.16169356 -27.00262088 28.52832464 -29.4140625 30.8984375 C-30.17337067 31.62050385 -30.93267883 32.34257019 -31.71499634 33.08651733 C-35.8875365 36.99647143 -35.8875365 36.99647143 -37.28662109 42.31884766 C-37.19203613 43.20362793 -37.09745117 44.0884082 -37 45 C-38.5 46.875 -38.5 46.875 -40 48 C-40.83616198 39.6519509 -40.83616198 39.6519509 -39.05810547 36.13916016 C-37.61674082 34.39418093 -36.08923865 32.86015586 -34.4375 31.3125 C-33.83703857 30.71236084 -33.23657715 30.11222168 -32.61791992 29.49389648 C-31.23861977 28.11934611 -29.84853859 26.75556357 -28.45019531 25.40039062 C-25.60772259 22.61569634 -22.8311958 19.77203045 -20.0546875 16.921875 C-18.49513508 15.32963154 -16.93391133 13.73905432 -15.37161255 12.14950562 C-14.33283633 11.09214533 -13.29545894 10.03340898 -12.25949097 8.97329712 C-10.79137341 7.47563099 -9.3133188 5.9885334 -7.83203125 4.50390625 C-6.97327393 3.63580322 -6.1145166 2.7677002 -5.22973633 1.87329102 C-3 0 -3 0 0 0 Z " fill="#315491" transform="translate(209,171)"/>
<path d="M0 0 C0.66 0 1.32 0 2 0 C2.19998121 8.57048837 2.38372609 17.1411035 2.54658794 25.71236992 C2.62272016 29.6920974 2.70450089 33.67154351 2.79907227 37.65087891 C2.89008527 41.48914963 2.96641516 45.32745417 3.03244972 49.16623306 C3.06028183 50.63280298 3.0934585 52.09928127 3.13199425 53.56560898 C3.18495709 55.6152078 3.21912651 57.6643058 3.2487793 59.71435547 C3.27320602 60.88239716 3.29763275 62.05043884 3.32279968 63.25387573 C3.21627579 64.16009674 3.10975189 65.06631775 3 66 C1.515 66.99 1.515 66.99 0 68 C0 45.56 0 23.12 0 0 Z " fill="#3F5E97" transform="translate(169,78)"/>
<path d="M0 0 C0.33 0 0.66 0 1 0 C1 21.78 1 43.56 1 66 C0.01 65.34 -0.98 64.68 -2 64 C-2.32952881 61.37449646 -2.32952881 61.37449646 -2.26464844 58.00561523 C-2.24762878 56.74768661 -2.23060913 55.489758 -2.21307373 54.19371033 C-2.17897493 52.81532649 -2.14439724 51.43695443 -2.109375 50.05859375 C-2.08388232 48.65139316 -2.05958544 47.24417044 -2.03643799 45.83692932 C-1.98483765 42.88686931 -1.92332264 39.93724493 -1.85400391 36.98754883 C-1.76511187 33.19889509 -1.69367684 29.41017925 -1.62871933 25.62104702 C-1.56606244 22.01676802 -1.49409858 18.41269133 -1.421875 14.80859375 C-1.40892143 14.11669889 -1.39596786 13.42480404 -1.38262177 12.71194267 C-1.34457665 10.76285041 -1.29894839 8.81391054 -1.25292969 6.86499023 C-1.22833679 5.75405502 -1.2037439 4.64311981 -1.17840576 3.4985199 C-1 1 -1 1 0 0 Z " fill="#1D4387" transform="translate(158,79)"/>
<path d="M0 0 C2.9375 0.8125 2.9375 0.8125 4.9375 3.8125 C4.75 7.375 4.75 7.375 3.9375 10.8125 C0.9375 12.8125 0.9375 12.8125 -2.125 12.625 C-5.0625 11.8125 -5.0625 11.8125 -7.0625 8.8125 C-6.875 5.25 -6.875 5.25 -6.0625 1.8125 C-3.0625 -0.1875 -3.0625 -0.1875 0 0 Z " fill="#2A4E8E" transform="translate(113.0625,152.1875)"/>
<path d="M0 0 C1.8125 1.25 1.8125 1.25 3 3 C3.59636329 6.3225955 3.29109393 7.57455503 1.375 10.375 C-1 12 -1 12 -4.125 11.9375 C-7 11 -7 11 -9 8 C-9.375 5 -9.375 5 -9 2 C-6.13326387 -1.29143778 -4.01983549 -1.44301787 0 0 Z " fill="#2C4F8E" transform="translate(221,153)"/>
<path d="M0 0 C2.96750531 1.1583068 4.98196393 2.73604837 7.20800781 4.98095703 C8.10848846 5.88166428 8.10848846 5.88166428 9.02716064 6.80056763 C9.980513 7.76940384 9.980513 7.76940384 10.953125 8.7578125 C11.61334656 9.42086395 12.27356812 10.08391541 12.95379639 10.76705933 C15.05727824 12.88171832 17.15369142 15.00323212 19.25 17.125 C20.67662261 18.56165557 22.10370072 19.99785898 23.53125 21.43359375 C27.02613661 24.95050804 30.51470062 28.47358547 34 32 C33.34 32.66 32.68 33.32 32 34 C27.88508307 29.90975967 23.77342906 25.81627791 19.66479492 21.71972656 C18.26595345 20.32592098 16.86621674 18.93301328 15.46557617 17.54101562 C13.45517001 15.54270748 11.44798114 13.54121682 9.44140625 11.5390625 C8.81222794 10.91504547 8.18304962 10.29102844 7.5348053 9.64810181 C6.95427902 9.06765106 6.37375275 8.48720032 5.77563477 7.88916016 C5.26267349 7.37841949 4.74971222 6.86767883 4.22120667 6.34146118 C3 5 3 5 2 3 C-0.01669827 1.86649466 -0.01669827 1.86649466 -2 1 C-1.34 0.67 -0.68 0.34 0 0 Z " fill="#345692" transform="translate(121,171)"/>
<path d="M0 0 C2.5625 0.3125 2.5625 0.3125 4.4375 1.5 C5.5625 3.3125 5.5625 3.3125 5.375 5.875 C4.5625 8.3125 4.5625 8.3125 2.5625 10.3125 C-3.00568182 9.74431818 -3.00568182 9.74431818 -4.4375 8.3125 C-4.625 5.375 -4.625 5.375 -4.4375 2.3125 C-2.4375 0.3125 -2.4375 0.3125 0 0 Z " fill="#2D508F" transform="translate(199.4375,117.6875)"/>
<path d="M0 0 C2.5625 0.3125 2.5625 0.3125 4.4375 1.5 C5.5625 3.3125 5.5625 3.3125 5.375 5.875 C4.5625 8.3125 4.5625 8.3125 2.5625 10.3125 C-0.5625 9.9375 -0.5625 9.9375 -3.4375 9.3125 C-4.0625 5.9375 -4.0625 5.9375 -4.4375 2.3125 C-2.4375 0.3125 -2.4375 0.3125 0 0 Z " fill="#2A4E8E" transform="translate(129.4375,117.6875)"/>
<path d="M0 0 C3.04332765 1.3584202 5.12309151 2.88463024 7.453125 5.2578125 C8.071875 5.88300781 8.690625 6.50820312 9.328125 7.15234375 C9.96234375 7.80332031 10.5965625 8.45429688 11.25 9.125 C11.8996875 9.78371094 12.549375 10.44242188 13.21875 11.12109375 C14.81711727 12.74296643 16.41061897 14.3693281 18 16 C17.34 16.66 16.68 17.32 16 18 C13.32529045 15.38308836 10.66165519 12.75518292 8 10.125 C7.236875 9.37863281 6.47375 8.63226563 5.6875 7.86328125 C4.965625 7.14785156 4.24375 6.43242187 3.5 5.6953125 C2.8296875 5.03547363 2.159375 4.37563477 1.46875 3.69580078 C0 2 0 2 0 0 Z " fill="#345693" transform="translate(138,167)"/>
<path d="M0 0 C0.33 0.66 0.66 1.32 1 2 C-0.0725 2.2475 -1.145 2.495 -2.25 2.75 C-6.08417714 4.02805905 -7.66379925 4.7652605 -10 8 C-10.80315654 11.14481791 -10.80315654 11.14481791 -11 14 C-11.66 14 -12.32 14 -13 14 C-13.50338797 8.71442634 -12.34676996 6.09049661 -9 2 C-6.00889434 -0.12272015 -3.61562381 -0.20086799 0 0 Z " fill="#375894" transform="translate(153,74)"/>
<path d="M0 0 C4.33333333 4.33333333 8.66666667 8.66666667 13 13 C12.34 13.66 11.68 14.32 11 15 C9.15398988 13.26187359 7.32385273 11.51111579 5.5 9.75 C4.97535156 9.25886719 4.45070312 8.76773438 3.91015625 8.26171875 C2.52909948 6.91653358 1.25735528 5.4614714 0 4 C0 2.68 0 1.36 0 0 Z " fill="#345692" transform="translate(127,162)"/>
<path d="M0 0 C3.68069887 1.53643852 5.98775204 3.78150945 8.75 6.625 C9.54921875 7.44226563 10.3484375 8.25953125 11.171875 9.1015625 C12.07679688 10.04128906 12.07679688 10.04128906 13 11 C12.34 11.66 11.68 12.32 11 13 C9.16052663 11.21427748 7.32842259 9.42197551 5.5 7.625 C4.71302734 6.86316406 4.71302734 6.86316406 3.91015625 6.0859375 C2.56846819 4.76167396 1.28004185 3.38394135 0 2 C0 1.34 0 0.68 0 0 Z " fill="#345592" transform="translate(143,159)"/>
<path d="M0 0 C6.03331362 4.98404168 11.5184171 10.41915303 17 16 C16.34 16.66 15.68 17.32 15 18 C14.41992188 17.34773438 13.83984375 16.69546875 13.2421875 16.0234375 C7.98185037 10.12640678 7.98185037 10.12640678 2.4375 4.5 C0 2 0 2 0 0 Z " fill="#1F4588" transform="translate(141,211)"/>
<path d="M0 0 C0.66 0 1.32 0 2 0 C2.33 2.97 2.66 5.94 3 9 C2.01 9.66 1.02 10.32 0 11 C0 7.37 0 3.74 0 0 Z " fill="#395994" transform="translate(169,187)"/>
<path d="M0 0 C0 0.99 0 1.98 0 3 C-1.3921875 2.7215625 -1.3921875 2.7215625 -2.8125 2.4375 C-6.01343771 1.75876119 -6.01343771 1.75876119 -9 3 C-8.67 2.01 -8.34 1.02 -8 0 C-5.13822943 -1.43088528 -3.06624227 -0.59991697 0 0 Z " fill="#3D5D97" transform="translate(116,153)"/>
<path d="M0 0 C3.42353587 1.21480305 5.01180815 3.01771223 7 6 C6.01 6 5.02 6 4 6 C3.34 5.01 2.68 4.02 2 3 C-0.05003955 1.80767387 -0.05003955 1.80767387 -2 1 C-1.34 0.67 -0.68 0.34 0 0 Z " fill="#3B5C96" transform="translate(121,171)"/>
<path d="M0 0 C3.36720387 1.39332574 4.9859524 2.9789286 7 6 C4 6 4 6 1.8125 4.125 C0 2 0 2 0 0 Z " fill="#335592" transform="translate(145,130)"/>
<path d="" fill="#FC998D" transform="translate(0,0)"/>
</svg>
