<?xml version="1.0" standalone="no"?>
<!DOCTYPE svg PUBLIC "-//W3C//DTD SVG 20010904//EN"
 "http://www.w3.org/TR/2001/REC-SVG-20010904/DTD/svg10.dtd">
<svg version="1.0" xmlns="http://www.w3.org/2000/svg"
 width="24.000000pt" height="24.000000pt" viewBox="0 0 24.000000 24.000000"
 preserveAspectRatio="xMidYMid meet">

<g transform="translate(0.000000,24.000000) scale(0.100000,-0.100000)"
fill="#000000" stroke="none">
<path d="M72 204 c-52 -34 -52 -35 -52 -87 l0 -53 51 -29 c58 -34 58 -34 116
3 42 26 43 28 43 82 0 42 -4 58 -17 66 -10 5 -34 20 -54 32 l-35 21 -52 -35z
m99 -35 c16 -17 29 -36 29 -43 0 -20 -19 -41 -37 -41 -10 0 -22 -10 -28 -22
l-11 -21 -10 21 c-5 13 -17 21 -26 19 -28 -5 -41 33 -23 67 29 58 65 64 106
20z"/>
<path d="M102 171 c-11 -7 -11 -9 2 -14 10 -4 16 -1 16 8 0 17 -1 17 -18 6z"/>
<path d="M130 165 c0 -9 6 -12 15 -9 8 4 15 7 15 9 0 2 -7 5 -15 9 -9 3 -15 0
-15 -9z"/>
<path d="M153 143 c-7 -2 -13 -9 -13 -15 0 -7 5 -7 13 1 8 6 18 7 22 3 5 -4 5
-1 1 6 -4 6 -8 12 -9 11 -1 0 -8 -3 -14 -6z"/>
</g>
</svg>
