<?xml version="1.0" standalone="no"?>
<!DOCTYPE svg PUBLIC "-//W3C//DTD SVG 20010904//EN"
 "http://www.w3.org/TR/2001/REC-SVG-20010904/DTD/svg10.dtd">
<svg version="1.0" xmlns="http://www.w3.org/2000/svg"
 width="328.000000pt" height="328.000000pt" viewBox="0 0 328.000000 328.000000"
 preserveAspectRatio="xMidYMid meet">

<g transform="translate(0.000000,328.000000) scale(0.100000,-0.100000)"
fill="#000000" stroke="none">
<path d="M1574 3251 c-48 -21 -1272 -777 -1302 -804 -60 -55 -57 -14 -57 -818
l0 -736 25 -32 c15 -18 110 -83 230 -155 342 -205 992 -600 1055 -641 85 -54
133 -57 205 -13 374 231 1077 659 1206 735 63 37 96 63 108 86 16 29 17 91 14
773 l-3 741 -27 35 c-17 22 -89 73 -195 138 -92 57 -296 183 -453 280 -656
406 -669 414 -730 417 -30 2 -64 -1 -76 -6z m27 -624 l45 -22 39 22 c77 43
190 22 248 -46 15 -18 27 -36 27 -41 0 -5 24 -6 54 -3 68 7 150 -27 189 -79
32 -42 60 -116 53 -142 -4 -14 6 -31 33 -55 24 -22 46 -56 57 -87 15 -44 25
-55 61 -73 65 -32 98 -88 100 -174 1 -59 5 -73 27 -96 36 -38 56 -92 56 -153
-1 -68 -26 -123 -80 -172 -40 -36 -44 -43 -41 -81 7 -113 -93 -214 -212 -215
-45 0 -118 27 -131 49 -4 5 -56 -7 -117 -27 l-112 -37 -99 -101 -99 -101 -2
-229 -2 -229 -50 0 -50 0 -3 228 -2 228 -96 99 -96 98 -114 41 -115 41 -36
-27 c-32 -25 -45 -28 -108 -28 -61 0 -77 4 -113 27 -56 37 -95 107 -98 172 -1
46 -6 56 -46 97 -48 50 -78 118 -78 178 0 42 38 128 68 155 18 15 21 26 16 56
-13 79 41 172 121 213 22 11 35 29 48 65 10 30 31 62 52 81 24 21 35 39 35 58
0 53 22 105 62 149 49 53 110 78 176 72 46 -4 50 -3 70 28 50 77 175 106 263
61z"/>
<path d="M1468 2526 c-13 -6 -33 -27 -46 -46 -23 -34 -24 -46 -6 -107 11 -38
-40 -30 -80 12 -28 30 -40 35 -77 35 -25 0 -55 -7 -67 -16 -49 -34 -66 -109
-37 -163 17 -33 12 -41 -25 -41 -56 0 -115 -78 -108 -143 3 -31 2 -32 -36 -34
-82 -3 -129 -99 -92 -187 9 -22 15 -40 14 -40 -2 -1 -20 -9 -40 -18 -66 -30
-85 -107 -43 -172 9 -14 42 -38 73 -53 32 -14 58 -27 59 -28 2 -1 -6 -19 -17
-40 -24 -47 -25 -67 -5 -105 19 -37 52 -60 86 -60 30 0 79 34 79 56 0 10 12
14 40 14 34 0 41 -4 46 -24 5 -20 24 -31 127 -67 121 -43 121 -43 199 -123
l77 -81 1 50 0 50 -186 186 -186 186 -36 -19 c-58 -29 -119 -19 -176 31 -60
53 -65 161 -9 223 27 30 88 58 125 58 48 0 109 -39 135 -85 21 -38 23 -39 70
-36 l49 2 107 -110 107 -110 0 87 0 87 -112 112 c-88 87 -116 110 -128 103
-47 -30 -149 9 -181 70 -54 100 20 223 132 222 87 -1 156 -83 145 -172 -6 -45
-5 -46 69 -125 l74 -80 1 332 c0 324 -1 333 -21 352 -25 23 -72 31 -101 17z"/>
<path d="M1744 2530 c-44 -17 -44 -22 -47 -369 -1 -182 0 -330 3 -329 3 2 39
39 81 83 69 72 76 83 68 104 -19 50 13 128 66 161 93 58 206 5 230 -107 21
-101 -91 -196 -194 -164 l-36 11 -108 -115 -108 -115 -2 -85 c-1 -47 -2 -85
-1 -85 1 0 50 50 110 110 l108 110 53 -4 c45 -5 53 -3 58 13 17 54 96 111 152
111 52 0 116 -41 141 -90 27 -55 28 -92 1 -146 -38 -79 -123 -111 -202 -76
l-45 20 -188 -189 c-187 -188 -188 -189 -189 -234 0 -25 0 -45 1 -45 1 0 36
35 77 78 75 76 77 77 193 117 96 33 120 45 133 67 22 38 77 40 91 4 17 -46 68
-58 121 -30 58 30 69 114 23 165 -20 23 -23 20 48 52 66 29 98 72 98 129 0 45
-38 94 -79 103 -29 6 -29 7 -15 40 8 19 14 53 14 75 0 74 -36 116 -105 122
-25 3 -30 7 -27 28 4 38 -26 107 -58 130 -15 11 -42 20 -60 20 -27 0 -31 3
-25 18 33 80 29 124 -17 171 -25 26 -38 31 -77 31 -41 0 -52 -5 -81 -35 -25
-26 -42 -35 -60 -33 -17 2 -24 8 -21 18 16 54 12 98 -11 124 -25 29 -82 47
-114 36z"/>
<path d="M1266 2084 c-23 -23 -20 -51 8 -69 46 -31 97 25 60 66 -21 23 -47 24
-68 3z"/>
<path d="M1968 2089 c-25 -14 -22 -55 3 -73 43 -30 93 20 63 63 -16 23 -39 26
-66 10z"/>
<path d="M1086 1739 c-34 -27 -32 -64 6 -92 25 -19 28 -19 52 -3 14 9 29 28
32 43 6 21 2 31 -20 50 -33 28 -37 28 -70 2z"/>
<path d="M2165 1752 c-48 -9 -60 -69 -20 -100 30 -24 60 -19 82 15 27 41 -12
96 -62 85z"/>
<path d="M1270 1648 c0 -7 72 -87 159 -178 l160 -165 0 50 0 50 -124 128
c-113 116 -127 127 -159 127 -22 0 -36 -5 -36 -12z"/>
<path d="M1816 1529 c-126 -130 -127 -132 -125 -175 2 -24 6 -44 10 -44 10 0
329 332 329 342 0 4 -20 8 -44 8 -43 0 -46 -2 -170 -131z"/>
</g>
</svg>
