<?xml version="1.0" encoding="UTF-8"?>
<svg version="1.1" xmlns="http://www.w3.org/2000/svg" width="328" height="328">
<path d="M0 0 C7.15829487 3.38620148 13.80162536 7.65680383 20.47265625 11.8984375 C26.05545598 15.43393485 31.71512838 18.84169615 37.3706665 22.25891113 C45.96699768 27.4541732 54.54772458 32.66775675 63.0234375 38.05859375 C70.25822846 42.65960453 77.53409492 47.18969242 84.8359375 51.68359375 C85.91673584 52.34931396 86.99753418 53.01503418 88.11108398 53.70092773 C94.06795947 57.3617651 100.04242425 60.99060824 106.0390625 64.5859375 C107.31199784 65.35120609 108.58486626 66.11658601 109.85766602 66.88208008 C112.28356067 68.34106618 114.71432443 69.79142666 117.14819336 71.23706055 C133.03924264 80.78787598 133.03924264 80.78787598 135.3984375 86.99609375 C135.66687965 89.84257221 135.66687965 89.84257221 135.69277954 93.20051575 C135.71424545 95.11201668 135.71424545 95.11201668 135.73614502 97.06213379 C135.74182513 98.47216699 135.74724863 99.88220125 135.75244141 101.29223633 C135.76497607 102.77899304 135.77827015 104.26574352 135.79226685 105.75248718 C135.83428241 110.63182234 135.85506285 115.51115831 135.875 120.390625 C135.88309707 122.07198336 135.89133097 123.75334107 135.89970016 125.4346981 C135.93778636 133.33320144 135.96625401 141.23166756 135.9829241 149.13024503 C136.0024743 158.24238441 136.05513157 167.35355278 136.13592589 176.46534997 C136.19626639 183.51262378 136.22586324 190.55961933 136.23248613 197.60714644 C136.23718471 201.81469096 136.25506772 206.02119713 136.30540848 210.22846413 C136.35201755 214.18764635 136.3604222 218.14510848 136.33988571 222.10449409 C136.33889584 223.55452961 136.35151406 225.00465045 136.3789978 226.45442581 C136.57437462 237.37464904 136.57437462 237.37464904 133.67101669 241.37795353 C131.66129236 243.17438827 129.70367715 244.60728456 127.3984375 245.99609375 C126.30402344 246.72094971 125.20960938 247.44580566 124.08203125 248.19262695 C123.01082031 248.80452881 121.93960937 249.41643066 120.8359375 250.046875 C120.24727402 250.38696091 119.65861053 250.72704681 119.05210876 251.07743835 C117.80978352 251.79411764 116.56523596 252.5069575 115.318573 253.21606445 C112.04437238 255.0790372 108.78728856 256.9716069 105.52734375 258.859375 C104.89252579 259.22588165 104.25770782 259.59238831 103.60365295 259.97000122 C99.12431803 262.55995961 94.70180267 265.21987324 90.3359375 267.99609375 C83.28994306 272.46747833 76.16184822 276.79941147 69.0234375 281.12109375 C58.61616946 287.4242813 48.23804064 293.77198555 37.88232422 300.15966797 C29.53744458 305.30415858 21.16801241 310.40728884 12.7800293 315.48120117 C11.89613525 316.01720947 11.01224121 316.55321777 10.1015625 317.10546875 C8.85536133 317.85086914 8.85536133 317.85086914 7.58398438 318.61132812 C5.20263362 320.05588007 5.20263362 320.05588007 2.5078125 322.38671875 C-2.50946414 324.98360063 -7.08707269 324.97037633 -12.6015625 323.99609375 C-16.94541409 322.16963631 -20.7062219 319.69272803 -24.6015625 317.05859375 C-25.72166726 316.33119283 -26.84379205 315.60689434 -27.96777344 314.88549805 C-30.32303274 313.37173126 -32.67043418 311.84675372 -35.01367188 310.31445312 C-40.29358125 306.881038 -45.6851649 303.63183883 -51.0776062 300.37924194 C-52.85436548 299.30690205 -54.62875656 298.23073963 -56.40258789 297.15356445 C-63.58306444 292.79666705 -70.79784452 288.50116889 -78.0390625 284.24609375 C-85.84697815 279.65772619 -93.57493164 274.95699076 -101.26049805 270.16674805 C-106.43028539 266.94824285 -111.61837251 263.76262621 -116.828125 260.609375 C-117.45087311 260.23233429 -118.07362122 259.85529358 -118.71524048 259.46682739 C-121.78250136 257.61065978 -124.85145623 255.75735486 -127.92236328 253.90722656 C-131.15793751 251.95134948 -134.38300572 249.97982883 -137.6015625 247.99609375 C-138.49939453 247.44808105 -139.39722656 246.90006836 -140.32226562 246.33544922 C-141.12083984 245.83029785 -141.91941406 245.32514648 -142.7421875 244.8046875 C-143.42313477 244.37857178 -144.10408203 243.95245605 -144.80566406 243.51342773 C-147.94086751 240.86453031 -149.45101063 238.13308511 -149.99025917 234.06059551 C-149.99658552 232.96944345 -150.00291187 231.87829138 -150.00942993 230.7540741 C-150.02367004 229.49663895 -150.03791016 228.2392038 -150.05258179 226.94366455 C-150.05312802 225.55773935 -150.05333012 224.17181398 -150.05322266 222.78588867 C-150.06384124 221.32030855 -150.07567232 219.85473678 -150.08862305 218.38917542 C-150.11936671 214.41383009 -150.1305408 210.43866477 -150.13626528 206.46321273 C-150.14062349 203.977426 -150.14900127 201.4916857 -150.15876389 199.00591469 C-150.19249835 190.32773075 -150.20964381 181.64968267 -150.21240234 172.97143555 C-150.21543624 164.89196754 -150.25587329 156.81326519 -150.31355059 148.73401946 C-150.36137518 141.78944783 -150.38213446 134.84512856 -150.38219297 127.90039331 C-150.38273033 123.75612128 -150.3942502 119.61259924 -150.43336868 115.46849632 C-150.46931156 111.56846155 -150.47146971 107.6698217 -150.44819641 103.76970482 C-150.4453435 102.34269451 -150.4543346 100.91560102 -150.47637558 99.48875809 C-150.65152626 87.3951944 -150.65152626 87.3951944 -146.2219696 82.21638489 C-143.42480427 79.52846712 -140.48591293 77.26074859 -137.14453125 75.27734375 C-135.61965088 74.35683228 -135.61965088 74.35683228 -134.06396484 73.41772461 C-132.98324707 72.78358643 -131.9025293 72.14944824 -130.7890625 71.49609375 C-129.63664648 70.80559451 -128.48513394 70.11358544 -127.33447266 69.42016602 C-124.94861445 67.98402016 -122.55905139 66.55436648 -120.16650391 65.12939453 C-114.56808692 61.78821061 -109.02483954 58.35714145 -103.4765625 54.93359375 C-102.4026123 54.27311035 -101.32866211 53.61262695 -100.22216797 52.93212891 C-92.93118782 48.44596323 -85.66721246 43.91810875 -78.4140625 39.37109375 C-68.77930072 33.33329919 -59.09179853 27.38794579 -49.3671875 21.49609375 C-45.36844299 19.07327665 -41.38033764 16.63399384 -37.3984375 14.18359375 C-36.37564697 13.55590088 -35.35285645 12.92820801 -34.29907227 12.28149414 C-32.3601162 11.09113333 -30.42295804 9.89783646 -28.48803711 8.70092773 C-8.76431431 -3.38202519 -8.76431431 -3.38202519 0 0 Z " fill="#E5E421" transform="translate(170.6015625,2.00390625)"/>
<path d="M0 0 C1.94140625 0.96875 1.94140625 0.96875 3.4375 2.125 C4.7059375 3.053125 4.7059375 3.053125 6 4 C8.6807393 3.49439113 8.6807393 3.49439113 11 2 C15.62563705 -0.63350345 19.78197649 -0.73052329 25 0 C30.80884774 2.00820165 35.77548554 4.57695295 39 10 C39 10.66 39 11.32 39 12 C39.61746094 11.89300781 40.23492187 11.78601563 40.87109375 11.67578125 C47.22164101 10.77684534 52.27970702 10.89045298 58 14 C62.51879615 17.4834215 66.17847189 21.53541568 68 27 C68.22169725 30.35065155 68.17884235 33.64836195 68 37 C68.60714844 37.27585938 69.21429688 37.55171875 69.83984375 37.8359375 C73.5892664 39.85642204 76.31481837 43.0205864 77.703125 47.03125 C77.90421875 47.7221875 78.1053125 48.413125 78.3125 49.125 C79.14696991 51.65238874 79.58766012 52.7230421 81.8203125 54.22265625 C83.22679193 54.86361643 84.64237869 55.48497174 86.06640625 56.0859375 C90.14959898 58.01617407 91.66143677 61.13666375 93.25 65.1875 C93.8986624 68.48486721 93.94929848 70.71655754 93.75 74 C93.6407559 78.00561709 94.16228804 79.78829515 96.875 82.75 C97.4215625 83.30429688 97.968125 83.85859375 98.53125 84.4296875 C102.1730654 88.32333057 102.45909448 93.47488207 102.3046875 98.5703125 C101.62383793 103.9996514 100.06702994 109.11048217 95.953125 112.87109375 C95.22609375 113.42925781 94.4990625 113.98742187 93.75 114.5625 C90.77124797 116.8073525 90.77124797 116.8073525 89.58984375 120.18359375 C89.65481539 121.724721 89.7576108 123.2647271 89.8984375 124.80078125 C90.1400014 130.03156871 86.95858078 134.85363925 83.57421875 138.64453125 C79.43311065 142.21020001 74.32194473 144.19423839 68.875 144.4375 C63.78592062 143.86292652 59.71961807 142.71961807 56 139 C52.86448876 139.47829833 50.04506678 140.14820429 47 141 C45.81921875 141.29777344 44.6384375 141.59554687 43.421875 141.90234375 C33.94810122 144.49457951 28.409476 148.34810746 22 156 C20.66666667 157.5 19.33333333 159 18 160.5 C17.46375 161.1290625 16.9275 161.758125 16.375 162.40625 C15.30150314 163.65053045 14.16203041 164.83796959 13 166 C12.67022394 168.01833943 12.67022394 168.01833943 12.68115234 170.35791016 C12.66128265 171.25869293 12.64141296 172.15947571 12.62094116 173.08755493 C12.60938995 174.06155243 12.59783875 175.03554993 12.5859375 176.0390625 C12.56657135 177.03505463 12.5472052 178.03104675 12.5272522 179.05722046 C12.46735035 182.2463925 12.42102862 185.43560043 12.375 188.625 C12.33682999 190.78387013 12.29777884 192.94272488 12.2578125 195.1015625 C12.16164009 200.40091707 12.07764834 205.70034294 12 211 C8.7 211 5.4 211 2 211 C2.04825928 209.68507568 2.09651855 208.37015137 2.14624023 207.01538086 C2.30727343 202.06698689 2.36623093 197.12142943 2.39672852 192.1706543 C2.42357736 190.04155707 2.47694658 187.91260327 2.55883789 185.78491211 C3.27864142 172.19835761 3.27864142 172.19835761 -2.33154297 160.29736328 C-5.44358735 157.00903076 -8.81299446 154.12681469 -12.38050842 151.34608459 C-14.26716202 149.777941 -15.5776028 147.98731682 -17 146 C-19.89266358 144.75755451 -19.89266358 144.75755451 -23.1875 143.9375 C-27.07611679 142.84626232 -30.83212996 141.73595549 -34.5625 140.1875 C-38.08108923 138.97198736 -38.7021511 138.84958759 -42 140 C-43.24275335 140.66262438 -44.4718122 141.35143733 -45.6875 142.0625 C-51.49021175 145.01778442 -56.45378323 144.70240463 -62.625 143 C-68.02414461 139.8005069 -72.6803856 134.9266703 -75 129 C-75.14019004 127.19100927 -75.21980588 125.37666345 -75.25 123.5625 C-75.54112716 118.88222071 -75.54112716 118.88222071 -78.75 115.4375 C-79.28367187 115.07398438 -79.81734375 114.71046875 -80.3671875 114.3359375 C-84.876584 110.64643127 -86.67663752 105.14440384 -87.51953125 99.5546875 C-87.9005461 91.34957704 -86.50011258 86.14001488 -81 80 C-80.505 79.505 -80.505 79.505 -80 79 C-79.86695727 76.96001149 -79.76892881 74.91769989 -79.6875 72.875 C-79.17762534 66.01418662 -78.32705166 62.00507892 -73.0625 57.25 C-67.71064815 53 -67.71064815 53 -64 53 C-63.95875 52.01 -63.9175 51.02 -63.875 50 C-63.12089637 44.54383847 -59.42222697 40.08345397 -55.32421875 36.55859375 C-53.52791604 34.44436135 -53.70041022 33.05376986 -53.6875 30.3125 C-53.19183109 23.64526724 -50.13193097 19.76711264 -45.22265625 15.4296875 C-39.37352383 10.9500456 -34.18256949 10.76450592 -27 11 C-26.34 11.33 -25.68 11.66 -25 12 C-24.73960937 11.40445313 -24.47921875 10.80890625 -24.2109375 10.1953125 C-22.92148412 7.85765831 -21.66460378 6.57615425 -19.625 4.875 C-19.03976563 4.37742187 -18.45453125 3.87984375 -17.8515625 3.3671875 C-12.27200665 -0.7527377 -6.78027821 -0.80089192 0 0 Z " fill="#FDFDFA" transform="translate(157,63)"/>
<path d="M0 0 C2.63434849 1.00613721 4.41966465 2.55923435 6.06640625 4.8359375 C7.62105284 8.35205409 7.42761326 11.97463745 6.90234375 15.7265625 C6.57234375 16.3865625 6.24234375 17.0465625 5.90234375 17.7265625 C9.88571708 17.44865273 11.49656601 17.14274479 14.33984375 14.2265625 C17.58902619 11.05662841 19.40453204 10.7265625 23.90234375 10.7265625 C27.75409239 12.01047871 29.58863579 13.37157718 32.27734375 16.4140625 C34.3798184 20.69987621 34.36074285 22.98977184 33.90234375 27.7265625 C32.87890625 29.96875 32.87890625 29.96875 31.90234375 31.7265625 C32.505625 31.95730469 33.10890625 32.18804687 33.73046875 32.42578125 C38.66852297 34.44082596 42.00986921 36.02629137 44.90234375 40.7265625 C46.06009435 44.19981431 45.97101027 47.08723698 45.90234375 50.7265625 C46.95421875 50.8090625 48.00609375 50.8915625 49.08984375 50.9765625 C53.85791982 51.91454468 56.31637088 53.611932 59.21484375 57.4765625 C61.2026437 63.98208962 59.82205837 68.88713326 56.90234375 74.7265625 C57.62421875 74.7678125 58.34609375 74.8090625 59.08984375 74.8515625 C62.28717892 75.846289 63.92688123 77.25501705 65.953125 79.9140625 C67.74712134 83.33963576 67.387411 85.9066579 66.90234375 89.7265625 C65.07949922 93.63265793 62.83007343 96.83088695 58.859375 98.67578125 C58.15167969 98.91941406 57.44398438 99.16304688 56.71484375 99.4140625 C55.99941406 99.66542969 55.28398437 99.91679687 54.546875 100.17578125 C54.00417969 100.35753906 53.46148437 100.53929687 52.90234375 100.7265625 C54.2999428 104.27175134 54.2999428 104.27175134 55.90234375 107.7265625 C56.50203126 113.00381261 55.173991 115.61363452 51.90234375 119.7265625 C48.22960658 122.17505395 45.17173407 122.43955927 40.90234375 121.7265625 C38.40234375 119.9140625 38.40234375 119.9140625 36.90234375 117.7265625 C36.90234375 116.7365625 36.90234375 115.7465625 36.90234375 114.7265625 C34.59234375 114.7265625 32.28234375 114.7265625 29.90234375 114.7265625 C29.75345703 116.10714844 29.75345703 116.10714844 29.6015625 117.515625 C27.90234375 120.7265625 27.90234375 120.7265625 25.72900391 121.71386719 C22.73767345 122.57066171 19.73236266 123.3422321 16.71484375 124.1015625 C4.4551279 127.59049349 -2.36921754 133.3533416 -9.98803711 143.38476562 C-10.35421143 143.82755859 -10.72038574 144.27035156 -11.09765625 144.7265625 C-11.42765625 144.7265625 -11.75765625 144.7265625 -12.09765625 144.7265625 C-12.96494551 141.16907046 -12.932333 138.29841945 -12.09765625 134.7265625 C-9.38107531 130.66648728 -5.9399104 127.40655264 -2.44189453 124.02978516 C-0.09945666 121.72833141 2.18736548 119.3823457 4.46681213 117.01887512 C6.70139148 114.70356625 8.94843608 112.40058846 11.19754028 110.09939575 C12.33428 108.93396436 13.467812 107.76539559 14.59811401 106.59371948 C16.2080996 104.93010401 17.83397617 103.28374174 19.46484375 101.640625 C19.95304092 101.12984909 20.4412381 100.61907318 20.94422913 100.09281921 C22.34375 98.70166016 22.34375 98.70166016 24.90234375 96.7265625 C27.39692816 96.87339981 28.68417493 97.61747809 30.90234375 98.7265625 C36.18539589 99.25314123 40.57097232 99.36847372 45.40234375 97.0390625 C50.03911464 92.75004943 51.57500823 89.0550493 51.90234375 82.7265625 C51.15242602 77.38339868 49.35729337 74.11101472 45.1640625 70.83203125 C40.58267774 68.59277065 35.8355765 68.9386156 30.90234375 69.7265625 C26.66645875 71.5844068 24.85987692 73.35127094 23.02734375 77.4765625 C22.65609375 78.5490625 22.28484375 79.6215625 21.90234375 80.7265625 C21.12632812 80.62472656 20.3503125 80.52289063 19.55078125 80.41796875 C14.89548602 80.23464567 10.88082241 80.22674803 7.02539062 83.14941406 C3.22621937 86.77480619 -0.07682212 90.79842515 -3.41699219 94.84130859 C-6.05578161 97.80132195 -9.02524234 100.22585093 -12.09765625 102.7265625 C-13.58120701 96.23790108 -14.34731451 90.11953798 -12.09765625 83.7265625 C-8.97924348 79.14852901 -5.32550201 75.31326649 -1.34765625 71.4765625 C-0.58397736 70.7313736 -0.58397736 70.7313736 0.19512939 69.97113037 C6.41463537 63.98882262 6.41463537 63.98882262 9.90234375 61.7265625 C12.02441406 61.95410156 12.02441406 61.95410156 13.90234375 62.7265625 C19.88872348 63.30217594 24.00953347 62.06557492 28.90234375 58.7265625 C31.84704652 55.59781581 32.11707564 52.88120496 32.27734375 48.7265625 C32.12980118 44.58307521 31.72545216 41.92608537 28.90234375 38.7265625 C24.74471469 35.06388928 21.47731288 34.08161446 16.08203125 34.3359375 C11.82029367 35.09968976 9.09836144 37.4590587 6.203125 40.52734375 C4.49568537 43.41409604 4.97125855 44.88683465 5.46484375 48.1640625 C5.65020724 53.5594642 4.31873958 56.12011009 0.86108398 60.01586914 C-3.22923716 64.26633337 -7.48220013 68.04884919 -12.09765625 71.7265625 C-12.23668672 62.92970663 -12.34329106 54.13322893 -12.40852928 45.33551407 C-12.4398411 41.25029951 -12.48230854 37.1658366 -12.55029297 33.08105469 C-12.61549489 29.13877737 -12.65136342 25.19722282 -12.66691971 21.25444794 C-12.67800495 19.75045134 -12.69965305 18.24649426 -12.73203659 16.74280548 C-12.7756184 14.63528569 -12.78159073 12.53074959 -12.77880859 10.42285156 C-12.79213226 9.22372131 -12.80545593 8.02459106 -12.81918335 6.78912354 C-12.09765625 3.7265625 -12.09765625 3.7265625 -9.19009399 1.33197021 C-5.53515774 -0.5654529 -3.91202585 -0.76588606 0 0 Z " fill="#E5E324" transform="translate(181.09765625,74.2734375)"/>
<path d="M0 0 C2.63450938 2.70041876 2.29168798 4.6208577 2.26373291 8.34587097 C2.26431702 8.99979828 2.26490112 9.65372559 2.26550293 10.32746887 C2.26271823 12.4868954 2.23161177 14.64493789 2.20025635 16.80412292 C2.19279524 18.30198411 2.18710169 19.79985506 2.18310547 21.29772949 C2.16783861 25.23861174 2.12854859 29.17890353 2.08428955 33.11955261 C2.04335902 37.14128125 2.02509925 41.16310538 2.00494385 45.1849823 C1.96205461 53.07522711 1.89379143 60.96499218 1.80963135 68.85490417 C1.33509018 68.44611526 0.86054901 68.03732635 0.37162781 67.6161499 C-0.25412643 67.07820297 -0.87988068 66.54025604 -1.52459717 65.98600769 C-2.14351334 65.45346878 -2.7624295 64.92092987 -3.40010071 64.37225342 C-4.85654405 63.13783864 -6.34523865 61.94155338 -7.8427124 60.75724792 C-11.50772708 57.6059618 -13.96056973 55.48280744 -14.6552124 50.56193542 C-14.56536865 47.10490417 -14.56536865 47.10490417 -14.21380615 43.87052917 C-14.18566034 40.24910104 -15.02283144 38.70983166 -17.19036865 35.85490417 C-21.93984916 32.57550097 -26.58089278 31.95015 -32.19036865 32.85490417 C-36.57290419 35.04617194 -39.35706681 37.27164956 -41.19036865 41.85490417 C-41.8927842 46.5376745 -41.66526553 49.88684516 -39.56536865 54.16740417 C-35.94482835 58.26433136 -33.18870025 60.67961193 -27.62786865 61.16740417 C-24.3131004 60.9795727 -24.3131004 60.9795727 -21.71380615 60.12004089 C-19.19036865 59.85490417 -19.19036865 59.85490417 -17.2333374 61.22257996 C-16.62103271 61.90820007 -16.00872803 62.59382019 -15.37786865 63.30021667 C-14.69466553 64.04787292 -14.0114624 64.79552917 -13.30755615 65.56584167 C-12.60888428 66.3624823 -11.9102124 67.15912292 -11.19036865 67.97990417 C-9.79499892 69.52459392 -8.39917627 71.06887467 -7.00286865 72.61271667 C-6.34891113 73.35723083 -5.69495361 74.101745 -5.0211792 74.86882019 C-3.09938676 77.04202187 -3.09938676 77.04202187 -0.2098999 79.32756042 C2.81309092 83.11068434 2.36260417 86.48003385 2.12213135 91.16740417 C2.09957275 92.00336121 2.07701416 92.83931824 2.05377197 93.7006073 C1.99513745 95.75281567 1.9054635 97.80409619 1.80963135 99.85490417 C-5.29672941 94.01189644 -13.06538369 87.54238161 -18.19036865 79.85490417 C-20.9524746 79.57276974 -20.9524746 79.57276974 -24.06536865 79.66740417 C-27.34661865 79.49162292 -27.34661865 79.49162292 -30.19036865 78.85490417 C-31.83636415 76.91560629 -32.49338024 75.17585312 -33.3661499 72.80021667 C-34.12414257 70.57271431 -34.12414257 70.57271431 -36.75286865 68.85490417 C-42.98318654 67.04244806 -48.77621988 66.69093959 -54.69036865 69.54240417 C-59.04607593 73.57143341 -60.38255425 76.30852721 -60.69036865 82.22990417 C-60.56206968 86.98338103 -59.60973872 89.81008209 -56.67474365 93.51506042 C-53.27394811 96.58472587 -50.33046239 97.13019882 -45.81536865 97.10490417 C-44.90013428 97.11006042 -43.9848999 97.11521667 -43.04193115 97.12052917 C-39.85662158 96.82381541 -37.20224654 95.90455326 -34.19036865 94.85490417 C-29.54206349 99.47783329 -24.89769991 104.10469502 -20.25604248 108.73429871 C-18.67686782 110.30844776 -17.09679638 111.88169771 -15.51580811 113.45402527 C-13.24219621 115.71549409 -10.97183949 117.98018724 -8.7020874 120.24552917 C-7.99573654 120.94671875 -7.28938568 121.64790833 -6.56163025 122.37034607 C-5.90117203 123.03072876 -5.24071381 123.69111145 -4.5602417 124.37150574 C-3.98066208 124.94886475 -3.40108246 125.52622375 -2.80393982 126.12107849 C0.84583198 130.0428566 2.19218595 132.14337542 1.99713135 137.60490417 C1.95652588 139.0821698 1.95652588 139.0821698 1.9151001 140.58927917 C1.88029541 141.33693542 1.84549072 142.08459167 1.80963135 142.85490417 C-0.74115065 140.34950975 -3.20893466 137.83358084 -5.55755615 135.13615417 C-12.75264739 127.15655143 -18.88086554 124.68206968 -29.19036865 121.85490417 C-35.4798309 119.69395257 -35.4798309 119.69395257 -38.19036865 117.85490417 C-39.25286865 115.10490417 -39.25286865 115.10490417 -39.19036865 112.85490417 C-41.50036865 112.85490417 -43.81036865 112.85490417 -46.19036865 112.85490417 C-46.43786865 113.63865417 -46.68536865 114.42240417 -46.94036865 115.22990417 C-48.19036865 117.85490417 -48.19036865 117.85490417 -49.87786865 119.16740417 C-53.21594167 120.15980426 -55.72325401 120.28069018 -59.19036865 119.85490417 C-62.34991171 117.31353259 -63.90577752 115.70867758 -65.19036865 111.85490417 C-65.72972517 106.13772506 -64.71205111 103.36705983 -61.19036865 98.85490417 C-62.05661865 98.77240417 -62.92286865 98.68990417 -63.81536865 98.60490417 C-69.03307947 97.44541288 -72.0978806 95.11989034 -75.56536865 91.10490417 C-77.55109411 87.13345326 -78.1851347 84.20592438 -77.19036865 79.85490417 C-75.80817966 77.13169778 -74.563279 75.96988948 -72.19036865 73.85490417 C-68.87786865 72.97990417 -68.87786865 72.97990417 -66.19036865 72.85490417 C-66.68536865 72.09177917 -67.18036865 71.32865417 -67.69036865 70.54240417 C-69.71394528 65.5677783 -69.92644693 61.16113879 -69.19036865 55.85490417 C-67.16693703 52.31389884 -65.1001975 50.1198488 -61.19036865 48.85490417 C-57.94036865 48.72990417 -57.94036865 48.72990417 -55.19036865 48.85490417 C-55.27286865 47.65865417 -55.35536865 46.46240417 -55.44036865 45.22990417 C-55.44036865 40.74096201 -54.09950133 38.32970153 -51.19036865 34.85490417 C-48.10235109 31.86982053 -45.41451747 31.33492109 -41.19036865 30.85490417 C-41.52036865 30.21552917 -41.85036865 29.57615417 -42.19036865 28.91740417 C-43.77049131 24.07827855 -44.49903457 19.44336838 -42.12786865 14.75334167 C-39.61313759 11.43225663 -37.33287143 9.47200568 -33.19036865 8.66740417 C-28.9074411 8.4783306 -26.40365104 10.03348549 -23.19036865 12.85490417 C-22.69536865 14.33990417 -22.69536865 14.33990417 -22.19036865 15.85490417 C-19.88036865 15.85490417 -17.57036865 15.85490417 -15.19036865 15.85490417 C-15.68536865 15.05052917 -15.68536865 15.05052917 -16.19036865 14.22990417 C-17.48654052 11.15149599 -17.58910869 9.17773779 -17.19036865 5.85490417 C-15.55272544 2.81356677 -14.09043526 0.56875011 -11.37786865 -1.58259583 C-7.33748309 -2.62155211 -3.66476367 -1.91589009 0 0 Z " fill="#E5E322" transform="translate(157.19036865234375,76.14509582519531)"/>
<path d="M0 0 C2.3828125 -0.29296875 2.3828125 -0.29296875 5.125 -0.1875 C6.03507812 -0.16042969 6.94515625 -0.13335937 7.8828125 -0.10546875 C8.58148438 -0.07066406 9.28015625 -0.03585938 10 0 C9.41876016 3.25409416 8.4966827 4.87109044 6.1484375 7.17626953 C5.55111816 7.77013458 4.95379883 8.36399963 4.33837891 8.9758606 C3.69046387 9.60515472 3.04254883 10.23444885 2.375 10.8828125 C1.71290527 11.53829071 1.05081055 12.19376892 0.36865234 12.86911011 C-1.74726021 14.96161572 -3.87306852 17.04370052 -6 19.125 C-8.12517212 21.21513654 -10.24820457 23.30738404 -12.36865234 25.40231323 C-13.68875462 26.70540822 -15.01192065 28.00540798 -16.33837891 29.30203247 C-16.93569824 29.8895932 -17.53301758 30.47715393 -18.1484375 31.08251953 C-18.94000244 31.85718063 -18.94000244 31.85718063 -19.74755859 32.64749146 C-21.11581916 33.99865614 -21.11581916 33.99865614 -22 36 C-22.66 36 -23.32 36 -24 36 C-24.73760801 32.13768476 -24.82551119 28.85792857 -24 25 C-20.92759836 20.57834262 -17.09248587 17.09236479 -13.125 13.5 C-11.57106409 12.04098669 -10.02481774 10.57414468 -8.47897339 9.10656738 C-7.08003224 7.78687838 -5.66373036 6.48566456 -4.24658203 5.18554688 C-1.85903577 3.01562022 -1.85903577 3.01562022 0 0 Z " fill="#E5E322" transform="translate(193,162)"/>
<path d="M0 0 C3.27036605 -0.67193982 4.82605495 -0.85777262 8 0 C12.23422746 3.16990713 15.76653628 6.97040757 19.375 10.8125 C20.37968716 11.848776 21.38618342 12.88330129 22.39453125 13.91601562 C31.89935795 23.72184599 31.89935795 23.72184599 32.1953125 27.48046875 C32.17210937 28.37378906 32.14890625 29.26710937 32.125 30.1875 C32.10695312 31.08855469 32.08890625 31.98960937 32.0703125 32.91796875 C32.04710937 33.60503906 32.02390625 34.29210937 32 35 C25.57602203 29.72282796 19.68504882 23.9389136 13.79077148 18.0859375 C12.63046222 16.93726575 11.46567051 15.79310568 10.29663086 14.65332031 C8.59551015 12.99463871 6.90782106 11.32330875 5.22265625 9.6484375 C4.69777115 9.14106049 4.17288605 8.63368347 3.63209534 8.1109314 C0.64335285 5.10389364 0 4.43958857 0 0 Z " fill="#E5E321" transform="translate(127,162)"/>
<path d="M0 0 C2.875 0.875 2.875 0.875 4.875 2.875 C5.34671648 6.49149298 5.29291658 8.24812512 3.25 11.3125 C0.875 12.875 0.875 12.875 -2.25 12.75 C-5.125 11.875 -5.125 11.875 -7.125 9.875 C-7.59671648 6.25850702 -7.54291658 4.50187488 -5.5 1.4375 C-3.125 -0.125 -3.125 -0.125 0 0 Z " fill="#E5E324" transform="translate(113.125,152.125)"/>
<path d="M0 0 C1.8125 1.25 1.8125 1.25 3 3 C3.59636329 6.3225955 3.29109393 7.57455503 1.375 10.375 C-1 12 -1 12 -4.125 11.875 C-7 11 -7 11 -9 9 C-9.375 5.5625 -9.375 5.5625 -9 2 C-6.18112246 -1.3408919 -4.01115641 -1.4399023 0 0 Z " fill="#E5E326" transform="translate(221,153)"/>
<path d="M0 0 C2.625 0.25 2.625 0.25 4.5 1.4375 C5.625 3.25 5.625 3.25 5.4375 5.8125 C4.625 8.25 4.625 8.25 2.625 10.25 C0.1875 10.625 0.1875 10.625 -2.375 10.25 C-4.3125 8.5625 -4.3125 8.5625 -5.375 6.25 C-3.74069987 0.39375788 -3.74069987 0.39375788 0 0 Z " fill="#E5E42B" transform="translate(199.375,117.75)"/>
<path d="M0 0 C2.5625 0.3125 2.5625 0.3125 4.4375 1.5 C5.5625 3.3125 5.5625 3.3125 5.375 5.875 C4.5625 8.3125 4.5625 8.3125 2.5625 10.3125 C-0.5625 9.9375 -0.5625 9.9375 -3.4375 9.3125 C-4.0625 5.9375 -4.0625 5.9375 -4.4375 2.3125 C-2.4375 0.3125 -2.4375 0.3125 0 0 Z " fill="#E5E324" transform="translate(129.4375,117.6875)"/>
<path d="M0 0 C4 4 8 8 12 12 C11.34 12.66 10.68 13.32 10 14 C8.3214068 12.42931636 6.65744264 10.84298654 5 9.25 C4.071875 8.36828125 3.14375 7.4865625 2.1875 6.578125 C0 4 0 4 0 0 Z " fill="#E5E42E" transform="translate(127,162)"/>
<path d="M0 0 C2 2 2 2 2.125 5.125 C2.08375 6.07375 2.0425 7.0225 2 8 C0.66666667 6 -0.66666667 4 -2 2 C-4.31 2.33 -6.62 2.66 -9 3 C-8.67 2.01 -8.34 1.02 -8 0 C-5.09288879 -1.4535556 -3.10402897 -0.71133997 0 0 Z " fill="#E6E438" transform="translate(116,153)"/>
<path d="M0 0 C2.61274181 1.74182788 4.21011031 3.86104256 6.0625 6.375 C3.0625 6.375 3.0625 6.375 1.375 5 C0.0625 3.375 0.0625 3.375 0.0625 1.375 C-0.9275 1.705 -1.9175 2.035 -2.9375 2.375 C-3.5975 1.715 -4.2575 1.055 -4.9375 0.375 C-1.9375 -0.625 -1.9375 -0.625 0 0 Z " fill="#E5E435" transform="translate(137.9375,136.625)"/>
<path d="M0 0 C0.66 0 1.32 0 2 0 C2 0.66 2 1.32 2 2 C2.61875 2.268125 3.2375 2.53625 3.875 2.8125 C6 4 6 4 8 7 C5 7 5 7 2.3125 4.625 C0 2 0 2 0 0 Z " fill="#E6E435" transform="translate(143,128)"/>
<path d="" fill="#DF829D" transform="translate(0,0)"/>
</svg>
