<svg width="24" height="24" version="1.1" xmlns="http://www.w3.org/2000/svg" desc="Created with imagetracer.js version 1.2.6" ><path fill="rgb(200,36,36)" stroke="rgb(200,36,36)" stroke-width="1" opacity="1" d="M 9.5 2 L 9 3.5 L 8.5 5 L 8 3.5 L 9.5 2 Z " /><path fill="rgb(200,36,36)" stroke="rgb(200,36,36)" stroke-width="1" opacity="1" d="M 15.5 2 L 16.5 4 L 14 3.5 L 15.5 2 Z " /><path fill="rgb(236,182,182)" stroke="rgb(236,182,182)" stroke-width="1" opacity="1" d="M 9.5 5 L 8.5 7 L 9.5 5 Z " /><path fill="rgb(236,182,182)" stroke="rgb(236,182,182)" stroke-width="1" opacity="1" d="M 15.5 5 L 17 7.5 L 15 6.5 L 15.5 5 Z " /><path fill="rgb(236,182,182)" stroke="rgb(236,182,182)" stroke-width="1" opacity="1" d="M 12.5 6 L 13 8.5 L 12 8.5 L 12.5 6 Z " /><path fill="rgb(236,182,182)" stroke="rgb(236,182,182)" stroke-width="1" opacity="1" d="M 9 8 L 11 8.5 L 9 9.5 L 9 8 Z " /><path fill="rgb(236,182,182)" stroke="rgb(236,182,182)" stroke-width="1" opacity="1" d="M 18.5 10 Q 21.5 11.5 18.5 13 L 18.5 10 Z " /><path fill="rgb(236,182,182)" stroke="rgb(236,182,182)" stroke-width="1" opacity="1" d="M 5.5 11 L 6.5 13 L 5.5 11 Z " /><path fill="rgb(236,182,182)" stroke="rgb(236,182,182)" stroke-width="1" opacity="1" d="M 9.5 11 L 10 13 L 8 12.5 L 9.5 11 Z " /><path fill="rgb(236,182,182)" stroke="rgb(236,182,182)" stroke-width="1" opacity="1" d="M 15.5 11 L 16.5 13 Q 15.3 10.8 14 13.5 L 13.5 16 L 12.5 13 L 11.5 16 L 11 13.5 L 15.5 11 Z " /><path fill="rgb(236,182,182)" stroke="rgb(236,182,182)" stroke-width="1" opacity="1" d="M 12.5 17 L 13 19.5 L 12 19.5 L 12.5 17 Z " /><path fill="rgb(246,224,224)" stroke="rgb(246,224,224)" stroke-width="1" opacity="1" d="M 10.5 5 L 15 5.5 Q 9.1 5.1 7.5 9 L 10.5 5 Z " /><path fill="rgb(246,224,224)" stroke="rgb(246,224,224)" stroke-width="1" opacity="1" d="M 15.5 8 L 16 10 L 12.5 12 L 12 10 L 15.5 8 Z " /><path fill="rgb(246,224,224)" stroke="rgb(246,224,224)" stroke-width="1" opacity="1" d="M 17.5 8 L 18.5 10 L 17.5 8 Z " /><path fill="rgb(246,224,224)" stroke="rgb(246,224,224)" stroke-width="1" opacity="1" d="M 16.5 11 L 15.5 13 L 16.5 11 Z " /><path fill="rgb(246,224,224)" stroke="rgb(246,224,224)" stroke-width="1" opacity="1" d="M 6.5 13 L 9 14.5 L 7.5 15 L 6.5 13 Z " /><path fill="rgb(246,224,224)" stroke="rgb(246,224,224)" stroke-width="1" opacity="1" d="M 12.5 13 L 13 16.5 L 12 16.5 L 12.5 13 Z " /><path fill="rgb(246,224,224)" stroke="rgb(246,224,224)" stroke-width="1" opacity="1" d="M 18.5 13 L 17.5 15 L 16 14.5 L 18.5 13 Z " /><path fill="rgb(202,43,43)" stroke="rgb(202,43,43)" stroke-width="1" opacity="0.9882352941176471" d="M 10.5 17 L 11 19.5 L 10 19.5 L 10.5 17 Z " /><path fill="rgb(0,0,0)" stroke="rgb(0,0,0)" stroke-width="1" opacity="0" d="M 0 0 L 11 0.5 L 2 6.5 L 2 18.5 L 3.5 19 L 10 23.5 L 0 24 L 0 0 Z " /><path fill="rgb(0,0,0)" stroke="rgb(0,0,0)" stroke-width="1" opacity="0" d="M 14.5 0 L 24 0 L 24 24 L 15 23.5 L 23 19 L 23 5.5 L 21.5 5 L 14.5 1 L 14.5 0 Z " /><path fill="rgb(201,38,38)" stroke="rgb(201,38,38)" stroke-width="1" opacity="1" d="M 19.5 5 L 18.5 7 L 19.5 5 Z " /><path fill="rgb(223,132,132)" stroke="rgb(223,132,132)" stroke-width="1" opacity="0.9372549019607843" d="M 7.5 7 L 8.5 10 L 10 10.5 L 8.5 11 L 7 9.5 L 7.5 7 Z " /><path fill="rgb(223,132,132)" stroke="rgb(223,132,132)" stroke-width="1" opacity="0.9372549019607843" d="M 17.5 7 L 16.5 9 L 17.5 7 Z " /><path fill="rgb(223,132,132)" stroke="rgb(223,132,132)" stroke-width="1" opacity="0.9372549019607843" d="M 16.5 10 L 20 12.5 L 17 12.5 L 16.5 10 Z " /><path fill="rgb(223,132,132)" stroke="rgb(223,132,132)" stroke-width="1" opacity="0.9372549019607843" d="M 6.5 11 L 5.5 13 L 6.5 11 Z " /><path fill="rgb(223,132,132)" stroke="rgb(223,132,132)" stroke-width="1" opacity="0.9372549019607843" d="M 13.5 11 L 16 14.5 L 13 16.5 L 14 13.5 L 13.5 11 Z " /><path fill="rgb(223,132,132)" stroke="rgb(223,132,132)" stroke-width="1" opacity="0.9372549019607843" d="M 11.5 12 L 11 13.5 L 12 16.5 L 10 15.5 L 11.5 12 Z " /><path fill="rgb(223,132,132)" stroke="rgb(223,132,132)" stroke-width="1" opacity="0.9372549019607843" d="M 18.5 14 L 17.5 16 L 18.5 14 Z " /><path fill="rgb(215,102,102)" stroke="rgb(215,102,102)" stroke-width="1" opacity="0.788235294117647" d="M 7.5 2 L 6.5 4 L 7.5 2 Z " /><path fill="rgb(207,63,63)" stroke="rgb(207,63,63)" stroke-width="1" opacity="1" d="M 5.5 7 L 6.5 9 L 5.5 7 Z " /><path fill="rgb(207,63,63)" stroke="rgb(207,63,63)" stroke-width="1" opacity="1" d="M 14 10 L 16 10.5 L 14 11.5 L 14 10 Z " /><path fill="rgb(207,63,63)" stroke="rgb(207,63,63)" stroke-width="1" opacity="1" d="M 13.5 17 L 14 21 L 12 20.5 L 13.5 17 Z " /><path fill="rgb(203,50,50)" stroke="rgb(203,50,50)" stroke-width="1" opacity="0.984313725490196" d="M 10.5 1 L 15 1.5 L 11.5 3 L 10.5 1 Z " /><path fill="rgb(203,50,50)" stroke="rgb(203,50,50)" stroke-width="1" opacity="0.984313725490196" d="M 7.5 4 L 7 5.5 Q 7.7 8.1 5 7 L 5 9.5 L 4 12.5 L 7.5 17 Q 11.3 15.8 10 19.5 L 11 19.5 L 11.5 18 L 12 22 Q 14.7 23.1 14 20.5 L 15 17 Q 19.7 17.8 21 13.5 L 21 9.5 L 17 4.5 L 19.5 6 L 21.5 7 L 23 6.5 L 23 17.5 L 21.5 19 L 12.5 24 L 2 18 L 2 8.5 L 4.5 6 L 7.5 4 Z " /><path fill="rgb(199,30,30)" stroke="rgb(199,30,30)" stroke-width="1" opacity="1" d="M 6.5 4 L 8 6.5 L 7 6.5 L 6.5 4 Z " /><path fill="rgb(199,30,30)" stroke="rgb(199,30,30)" stroke-width="1" opacity="1" d="M 16.5 4 L 17.5 6 L 16.5 4 Z " /><path fill="rgb(199,30,30)" stroke="rgb(199,30,30)" stroke-width="1" opacity="1" d="M 11.5 6 L 10.5 8 L 11.5 6 Z " /><path fill="rgb(199,30,30)" stroke="rgb(199,30,30)" stroke-width="1" opacity="1" d="M 6.5 15 L 9 16.5 L 7.5 17 L 6.5 15 Z " /><path fill="rgb(204,56,56)" stroke="rgb(204,56,56)" stroke-width="1" opacity="0.5294117647058824" d="M 3.5 5 L 2.5 7 L 3.5 5 Z " /><path fill="rgb(204,56,56)" stroke="rgb(204,56,56)" stroke-width="1" opacity="0.5294117647058824" d="M 2.5 18 L 5 19.5 L 3.5 19 L 2.5 18 Z " /><path fill="rgb(204,56,56)" stroke="rgb(204,56,56)" stroke-width="1" opacity="0.5294117647058824" d="M 6.5 20 L 7.5 22 L 6.5 20 Z " /><path fill="rgb(204,56,56)" stroke="rgb(204,56,56)" stroke-width="1" opacity="0.5294117647058824" d="M 18.5 20 L 17.5 22 L 18.5 20 Z " /><path fill="rgb(204,56,56)" stroke="rgb(204,56,56)" stroke-width="1" opacity="0.5294117647058824" d="M 15.5 22 L 14.5 24 L 13 23.5 L 15.5 22 Z " /></svg>