<svg width="24" height="24" version="1.1" xmlns="http://www.w3.org/2000/svg" desc="Created with imagetracer.js version 1.2.6" ><path fill="rgb(0,0,0)" stroke="rgb(0,0,0)" stroke-width="1" opacity="0" d="M 0 0 L 11 0.5 L 2 6.5 L 2 18.5 L 3.5 19 L 10 23.5 L 0 24 L 0 0 Z " /><path fill="rgb(0,0,0)" stroke="rgb(0,0,0)" stroke-width="1" opacity="0" d="M 14.5 0 L 24 0 L 24 24 L 15 23.5 L 23 19 L 23 5.5 L 21.5 5 L 14.5 1 L 14.5 0 Z " /><path fill="rgb(231,245,13)" stroke="rgb(231,245,13)" stroke-width="1" opacity="0.9882352941176471" d="M 11.5 1 L 10.5 3 L 8.5 4 L 9.5 2 L 11.5 1 Z " /><path fill="rgb(231,245,13)" stroke="rgb(231,245,13)" stroke-width="1" opacity="0.9882352941176471" d="M 15.5 2 L 16.5 4 L 15.5 2 Z " /><path fill="rgb(231,245,13)" stroke="rgb(231,245,13)" stroke-width="1" opacity="0.9882352941176471" d="M 6.5 4 L 5.5 6 L 3.5 7 L 4.5 5 L 6.5 4 Z " /><path fill="rgb(231,245,13)" stroke="rgb(231,245,13)" stroke-width="1" opacity="0.9882352941176471" d="M 18.5 4 L 22 6.5 L 20.5 6 L 18.5 4 Z " /><path fill="rgb(244,244,171)" stroke="rgb(244,244,171)" stroke-width="1" opacity="1" d="M 9.5 5 L 8.5 7 L 9.5 5 Z " /><path fill="rgb(244,244,171)" stroke="rgb(244,244,171)" stroke-width="1" opacity="1" d="M 12.5 6 L 13 8.5 L 12 8.5 L 12.5 6 Z " /><path fill="rgb(244,244,171)" stroke="rgb(244,244,171)" stroke-width="1" opacity="1" d="M 9 8 L 11 8.5 L 9 9.5 L 9 8 Z " /><path fill="rgb(244,244,171)" stroke="rgb(244,244,171)" stroke-width="1" opacity="1" d="M 16.5 10 L 16.5 13 Q 15.3 10.8 14 13.5 L 13.5 16 L 12.5 13 L 11.5 16 L 11 13.5 L 16.5 10 Z " /><path fill="rgb(244,244,171)" stroke="rgb(244,244,171)" stroke-width="1" opacity="1" d="M 18.5 10 L 20 13 L 18 12.5 L 18.5 10 Z " /><path fill="rgb(244,244,171)" stroke="rgb(244,244,171)" stroke-width="1" opacity="1" d="M 5.5 11 L 6.5 13 L 5.5 11 Z " /><path fill="rgb(244,244,171)" stroke="rgb(244,244,171)" stroke-width="1" opacity="1" d="M 9.5 11 L 10 13 L 8 12.5 L 9.5 11 Z " /><path fill="rgb(244,244,171)" stroke="rgb(244,244,171)" stroke-width="1" opacity="1" d="M 12.5 17 L 13 19.5 L 12 19.5 L 12.5 17 Z " /><path fill="rgb(250,250,221)" stroke="rgb(250,250,221)" stroke-width="1" opacity="1" d="M 10.5 5 Q 15.8 3.8 17 6.5 L 19 9.5 L 16 8.5 Q 16.8 10.8 14.5 10 L 12 11.5 Q 11.3 9.3 13.5 10 L 16 6 Q 9.3 4.5 7.5 9 L 10.5 5 Z " /><path fill="rgb(250,250,221)" stroke="rgb(250,250,221)" stroke-width="1" opacity="1" d="M 16.5 11 L 15.5 13 L 16.5 11 Z " /><path fill="rgb(250,250,221)" stroke="rgb(250,250,221)" stroke-width="1" opacity="1" d="M 6.5 13 L 9 14.5 L 7.5 15 L 6.5 13 Z " /><path fill="rgb(250,250,221)" stroke="rgb(250,250,221)" stroke-width="1" opacity="1" d="M 12.5 13 L 13 16.5 L 12 16.5 L 12.5 13 Z " /><path fill="rgb(250,250,221)" stroke="rgb(250,250,221)" stroke-width="1" opacity="1" d="M 18.5 13 L 17.5 15 L 16 14.5 L 18.5 13 Z " /><path fill="rgb(229,227,26)" stroke="rgb(229,227,26)" stroke-width="1" opacity="0.9921568627450981" d="M 10.5 17 L 11 19.5 L 10 19.5 L 10.5 17 Z " /><path fill="rgb(237,230,119)" stroke="rgb(237,230,119)" stroke-width="1" opacity="0.9254901960784314" d="M 7.5 7 L 8.5 9 L 7.5 7 Z " /><path fill="rgb(237,230,119)" stroke="rgb(237,230,119)" stroke-width="1" opacity="0.9254901960784314" d="M 11.5 9 L 14 9.5 L 11.5 10 L 11.5 9 Z " /><path fill="rgb(237,230,119)" stroke="rgb(237,230,119)" stroke-width="1" opacity="0.9254901960784314" d="M 8.5 10 L 10 10.5 L 8 11 L 7 14.5 L 9 15.5 L 7.5 16 Q 4.8 14.8 7 13.5 L 6.5 12 L 5 12.5 L 8.5 10 Z " /><path fill="rgb(237,230,119)" stroke="rgb(237,230,119)" stroke-width="1" opacity="0.9254901960784314" d="M 17 11 L 19 11.5 L 17 12.5 L 17 11 Z " /><path fill="rgb(237,230,119)" stroke="rgb(237,230,119)" stroke-width="1" opacity="0.9254901960784314" d="M 11.5 12 L 11 13.5 L 12 16.5 L 10 15.5 L 11.5 12 Z " /><path fill="rgb(237,230,119)" stroke="rgb(237,230,119)" stroke-width="1" opacity="0.9254901960784314" d="M 14.5 13 L 17.5 15 L 19 14.5 L 16.5 16 L 15.5 15 L 13 16.5 L 14.5 13 Z " /><path fill="rgb(225,223,0)" stroke="rgb(225,223,0)" stroke-width="1" opacity="1" d="M 7.5 6 L 6.5 8 L 7.5 6 Z " /><path fill="rgb(225,223,0)" stroke="rgb(225,223,0)" stroke-width="1" opacity="1" d="M 4.5 11 L 6 14.5 L 5 14.5 L 4.5 11 Z " /><path fill="rgb(231,229,48)" stroke="rgb(231,229,48)" stroke-width="1" opacity="1" d="M 15.5 3 L 14.5 5 L 15.5 3 Z " /><path fill="rgb(231,229,48)" stroke="rgb(231,229,48)" stroke-width="1" opacity="1" d="M 5.5 7 L 6.5 9 L 5.5 7 Z " /><path fill="rgb(231,229,48)" stroke="rgb(231,229,48)" stroke-width="1" opacity="1" d="M 18.5 8 L 18 9.5 L 17.5 11 L 17 9.5 L 18.5 8 Z " /><path fill="rgb(231,229,48)" stroke="rgb(231,229,48)" stroke-width="1" opacity="1" d="M 10.5 10 L 11.5 12 Q 8.7 12.7 10.5 10 Z " /><path fill="rgb(231,229,48)" stroke="rgb(231,229,48)" stroke-width="1" opacity="1" d="M 14 10 L 16 10.5 L 14 11.5 L 14 10 Z " /><path fill="rgb(231,229,48)" stroke="rgb(231,229,48)" stroke-width="1" opacity="1" d="M 13.5 17 L 14 21 L 11 19.5 L 13 19.5 L 13.5 17 Z " /><path fill="rgb(230,228,32)" stroke="rgb(230,228,32)" stroke-width="1" opacity="0.984313725490196" d="M 10.5 1 L 13.5 2 L 15 1.5 L 11.5 3 L 10.5 1 Z " /><path fill="rgb(230,228,32)" stroke="rgb(230,228,32)" stroke-width="1" opacity="0.984313725490196" d="M 17.5 4 L 20 4.5 L 19.5 6 L 21.5 7 L 23 6.5 L 23 17.5 L 21.5 19 L 12.5 24 L 2 17.5 L 2 8.5 L 3.5 7 L 6.5 5 L 7 7 Q 4 5.8 5 9.5 L 4 12.5 L 7.5 17 L 10 17 L 10 20 L 14 22 L 15 17 Q 19.7 17.8 21 13.5 L 21 9.5 L 17.5 4 Z " /><path fill="rgb(227,225,10)" stroke="rgb(227,225,10)" stroke-width="1" opacity="1" d="M 16.5 4 L 17.5 6 L 16.5 4 Z " /><path fill="rgb(227,225,10)" stroke="rgb(227,225,10)" stroke-width="1" opacity="1" d="M 11.5 6 L 10.5 8 L 11.5 6 Z " /><path fill="rgb(227,225,10)" stroke="rgb(227,225,10)" stroke-width="1" opacity="1" d="M 15.5 16 L 17 16.5 L 14.5 18 L 15.5 16 Z " /><path fill="rgb(230,220,40)" stroke="rgb(230,220,40)" stroke-width="1" opacity="0.5058823529411764" d="M 9.5 1 L 8.5 3 L 6.5 4 L 7.5 2 L 9.5 1 Z " /><path fill="rgb(230,220,40)" stroke="rgb(230,220,40)" stroke-width="1" opacity="0.5058823529411764" d="M 17.5 2 L 18.5 4 L 17.5 2 Z " /><path fill="rgb(230,220,40)" stroke="rgb(230,220,40)" stroke-width="1" opacity="0.5058823529411764" d="M 4.5 4 L 2.5 7 L 4.5 4 Z " /><path fill="rgb(230,220,40)" stroke="rgb(230,220,40)" stroke-width="1" opacity="0.5058823529411764" d="M 20.5 4 L 23 5.5 L 21.5 6 L 20.5 4 Z " /><path fill="rgb(230,220,40)" stroke="rgb(230,220,40)" stroke-width="1" opacity="0.5058823529411764" d="M 6.5 20 L 7.5 22 L 6.5 20 Z " /><path fill="rgb(230,220,40)" stroke="rgb(230,220,40)" stroke-width="1" opacity="0.5058823529411764" d="M 18.5 20 L 17.5 22 L 18.5 20 Z " /><path fill="rgb(230,220,40)" stroke="rgb(230,220,40)" stroke-width="1" opacity="0.5058823529411764" d="M 9.5 22 L 12 23.5 L 10.5 24 L 9.5 22 Z " /><path fill="rgb(230,220,40)" stroke="rgb(230,220,40)" stroke-width="1" opacity="0.5058823529411764" d="M 15.5 22 L 14.5 24 L 13 23.5 L 15.5 22 Z " /></svg>