<?xml version="1.0" encoding="UTF-8"?>
<svg version="1.1" xmlns="http://www.w3.org/2000/svg" width="328" height="328">
<path d="M0 0 C7.15829487 3.38620148 13.80162536 7.65680383 20.47265625 11.8984375 C26.05545598 15.43393485 31.71512838 18.84169615 37.3706665 22.25891113 C45.96699768 27.4541732 54.54772458 32.66775675 63.0234375 38.05859375 C70.25822846 42.65960453 77.53409492 47.18969242 84.8359375 51.68359375 C85.91673584 52.34931396 86.99753418 53.01503418 88.11108398 53.70092773 C94.06795947 57.3617651 100.04242425 60.99060824 106.0390625 64.5859375 C107.31199784 65.35120609 108.58486626 66.11658601 109.85766602 66.88208008 C112.28356067 68.34106618 114.71432443 69.79142666 117.14819336 71.23706055 C133.03924264 80.78787598 133.03924264 80.78787598 135.3984375 86.99609375 C135.66687965 89.84257221 135.66687965 89.84257221 135.69277954 93.20051575 C135.71424545 95.11201668 135.71424545 95.11201668 135.73614502 97.06213379 C135.74182513 98.47216699 135.74724863 99.88220125 135.75244141 101.29223633 C135.76497607 102.77899304 135.77827015 104.26574352 135.79226685 105.75248718 C135.83428241 110.63182234 135.85506285 115.51115831 135.875 120.390625 C135.88309707 122.07198336 135.89133097 123.75334107 135.89970016 125.4346981 C135.93778636 133.33320144 135.96625401 141.23166756 135.9829241 149.13024503 C136.0024743 158.24238441 136.05513157 167.35355278 136.13592589 176.46534997 C136.19626639 183.51262378 136.22586324 190.55961933 136.23248613 197.60714644 C136.23718471 201.81469096 136.25506772 206.02119713 136.30540848 210.22846413 C136.35201755 214.18764635 136.3604222 218.14510848 136.33988571 222.10449409 C136.33889584 223.55452961 136.35151406 225.00465045 136.3789978 226.45442581 C136.57437462 237.37464904 136.57437462 237.37464904 133.67101669 241.37795353 C131.66129236 243.17438827 129.70367715 244.60728456 127.3984375 245.99609375 C126.30402344 246.72094971 125.20960938 247.44580566 124.08203125 248.19262695 C123.01082031 248.80452881 121.93960937 249.41643066 120.8359375 250.046875 C120.24727402 250.38696091 119.65861053 250.72704681 119.05210876 251.07743835 C117.80978352 251.79411764 116.56523596 252.5069575 115.318573 253.21606445 C112.04437238 255.0790372 108.78728856 256.9716069 105.52734375 258.859375 C104.89252579 259.22588165 104.25770782 259.59238831 103.60365295 259.97000122 C99.12431803 262.55995961 94.70180267 265.21987324 90.3359375 267.99609375 C83.28994306 272.46747833 76.16184822 276.79941147 69.0234375 281.12109375 C58.61616946 287.4242813 48.23804064 293.77198555 37.88232422 300.15966797 C29.53744458 305.30415858 21.16801241 310.40728884 12.7800293 315.48120117 C11.89613525 316.01720947 11.01224121 316.55321777 10.1015625 317.10546875 C8.85536133 317.85086914 8.85536133 317.85086914 7.58398438 318.61132812 C5.20263362 320.05588007 5.20263362 320.05588007 2.5078125 322.38671875 C-2.50946414 324.98360063 -7.08707269 324.97037633 -12.6015625 323.99609375 C-16.94541409 322.16963631 -20.7062219 319.69272803 -24.6015625 317.05859375 C-25.72166726 316.33119283 -26.84379205 315.60689434 -27.96777344 314.88549805 C-30.32303274 313.37173126 -32.67043418 311.84675372 -35.01367188 310.31445312 C-40.29358125 306.881038 -45.6851649 303.63183883 -51.0776062 300.37924194 C-52.85436548 299.30690205 -54.62875656 298.23073963 -56.40258789 297.15356445 C-63.58306444 292.79666705 -70.79784452 288.50116889 -78.0390625 284.24609375 C-85.84697815 279.65772619 -93.57493164 274.95699076 -101.26049805 270.16674805 C-106.43028539 266.94824285 -111.61837251 263.76262621 -116.828125 260.609375 C-117.45087311 260.23233429 -118.07362122 259.85529358 -118.71524048 259.46682739 C-121.78250136 257.61065978 -124.85145623 255.75735486 -127.92236328 253.90722656 C-131.15793751 251.95134948 -134.38300572 249.97982883 -137.6015625 247.99609375 C-138.49939453 247.44808105 -139.39722656 246.90006836 -140.32226562 246.33544922 C-141.12083984 245.83029785 -141.91941406 245.32514648 -142.7421875 244.8046875 C-143.42313477 244.37857178 -144.10408203 243.95245605 -144.80566406 243.51342773 C-147.94086751 240.86453031 -149.45101063 238.13308511 -149.99025917 234.06059551 C-149.99658552 232.96944345 -150.00291187 231.87829138 -150.00942993 230.7540741 C-150.02367004 229.49663895 -150.03791016 228.2392038 -150.05258179 226.94366455 C-150.05312802 225.55773935 -150.05333012 224.17181398 -150.05322266 222.78588867 C-150.06384124 221.32030855 -150.07567232 219.85473678 -150.08862305 218.38917542 C-150.11936671 214.41383009 -150.1305408 210.43866477 -150.13626528 206.46321273 C-150.14062349 203.977426 -150.14900127 201.4916857 -150.15876389 199.00591469 C-150.19249835 190.32773075 -150.20964381 181.64968267 -150.21240234 172.97143555 C-150.21543624 164.89196754 -150.25587329 156.81326519 -150.31355059 148.73401946 C-150.36137518 141.78944783 -150.38213446 134.84512856 -150.38219297 127.90039331 C-150.38273033 123.75612128 -150.3942502 119.61259924 -150.43336868 115.46849632 C-150.46931156 111.56846155 -150.47146971 107.6698217 -150.44819641 103.76970482 C-150.4453435 102.34269451 -150.4543346 100.91560102 -150.47637558 99.48875809 C-150.65152626 87.3951944 -150.65152626 87.3951944 -146.2219696 82.21638489 C-143.42480427 79.52846712 -140.48591293 77.26074859 -137.14453125 75.27734375 C-135.61965088 74.35683228 -135.61965088 74.35683228 -134.06396484 73.41772461 C-132.98324707 72.78358643 -131.9025293 72.14944824 -130.7890625 71.49609375 C-129.63664648 70.80559451 -128.48513394 70.11358544 -127.33447266 69.42016602 C-124.94861445 67.98402016 -122.55905139 66.55436648 -120.16650391 65.12939453 C-114.56808692 61.78821061 -109.02483954 58.35714145 -103.4765625 54.93359375 C-102.4026123 54.27311035 -101.32866211 53.61262695 -100.22216797 52.93212891 C-92.93118782 48.44596323 -85.66721246 43.91810875 -78.4140625 39.37109375 C-68.77930072 33.33329919 -59.09179853 27.38794579 -49.3671875 21.49609375 C-45.36844299 19.07327665 -41.38033764 16.63399384 -37.3984375 14.18359375 C-36.37564697 13.55590088 -35.35285645 12.92820801 -34.29907227 12.28149414 C-32.3601162 11.09113333 -30.42295804 9.89783646 -28.48803711 8.70092773 C-8.76431431 -3.38202519 -8.76431431 -3.38202519 0 0 Z " fill="#66C63D" transform="translate(170.6015625,2.00390625)"/>
<path d="M0 0 C1.94140625 0.96875 1.94140625 0.96875 3.4375 2.125 C4.7059375 3.053125 4.7059375 3.053125 6 4 C8.6807393 3.49439113 8.6807393 3.49439113 11 2 C15.62563705 -0.63350345 19.78197649 -0.73052329 25 0 C30.80884774 2.00820165 35.77548554 4.57695295 39 10 C39 10.66 39 11.32 39 12 C39.66 11.67 40.32 11.34 41 11 C47.52695628 10.23083007 52.73082543 10.46038948 58.14453125 14.3671875 C62.25345494 17.98304035 66.24792488 21.74377463 68 27 C68.06802967 28.72795352 68.08495645 30.45835365 68.0625 32.1875 C68.05347656 33.08855469 68.04445312 33.98960938 68.03515625 34.91796875 C68.01775391 35.94857422 68.01775391 35.94857422 68 37 C68.60714844 37.27585938 69.21429688 37.55171875 69.83984375 37.8359375 C73.5892664 39.85642204 76.31481837 43.0205864 77.703125 47.03125 C77.90421875 47.7221875 78.1053125 48.413125 78.3125 49.125 C79.13968695 51.62546799 79.54897601 52.7088576 81.78515625 54.15234375 C83.18385174 54.76149524 84.58762981 55.35910099 85.99609375 55.9453125 C90.10693673 58.10891407 92.30910162 62.0335969 93.8125 66.3125 C94 69 94 69 93.8359375 71.28515625 C93.44130389 76.37745959 93.44130389 76.37745959 95.26171875 80.9921875 C96.3309846 82.15724714 97.4209445 83.30367013 98.53125 84.4296875 C102.17335168 88.32363664 102.45466223 93.471194 102.30859375 98.56640625 C101.66902848 103.6100665 100.25702383 109.10490426 96.24609375 112.47265625 C95.62863281 112.89417969 95.01117188 113.31570312 94.375 113.75 C91.57344587 115.81993808 91.049324 116.78634787 90.24609375 120.265625 C89.95804505 122.74647686 89.68965988 125.22969423 89.44140625 127.71484375 C88.68536278 133.34168055 86.09857044 135.94919349 82.125 139.75 C76.77095045 143.60491568 71.57034708 144.8481951 65 144 C61.48368902 142.93340861 58.63269747 141.63269747 56 139 C52.86448876 139.47829833 50.04506678 140.14820429 47 141 C45.81921875 141.29777344 44.6384375 141.59554687 43.421875 141.90234375 C33.94810122 144.49457951 28.409476 148.34810746 22 156 C20.66666667 157.5 19.33333333 159 18 160.5 C17.46375 161.1290625 16.9275 161.758125 16.375 162.40625 C15.30150314 163.65053045 14.16203041 164.83796959 13 166 C12.67022394 168.01833943 12.67022394 168.01833943 12.68115234 170.35791016 C12.66128265 171.25869293 12.64141296 172.15947571 12.62094116 173.08755493 C12.60938995 174.06155243 12.59783875 175.03554993 12.5859375 176.0390625 C12.56657135 177.03505463 12.5472052 178.03104675 12.5272522 179.05722046 C12.46735035 182.2463925 12.42102862 185.43560043 12.375 188.625 C12.33682999 190.78387013 12.29777884 192.94272488 12.2578125 195.1015625 C12.16164009 200.40091707 12.07764834 205.70034294 12 211 C8.7 211 5.4 211 2 211 C2.04825928 209.68507568 2.09651855 208.37015137 2.14624023 207.01538086 C2.30727343 202.06698689 2.36623093 197.12142943 2.39672852 192.1706543 C2.42357736 190.04155707 2.47694658 187.91260327 2.55883789 185.78491211 C3.27864142 172.19835761 3.27864142 172.19835761 -2.33154297 160.29736328 C-5.44358735 157.00903076 -8.81299446 154.12681469 -12.38050842 151.34608459 C-14.26716202 149.777941 -15.5776028 147.98731682 -17 146 C-19.89266358 144.75755451 -19.89266358 144.75755451 -23.1875 143.9375 C-27.07611679 142.84626232 -30.83212996 141.73595549 -34.5625 140.1875 C-38.05791474 138.97999309 -38.72347132 138.83673538 -42 140 C-43.03125 140.680625 -44.0625 141.36125 -45.125 142.0625 C-49.63680651 144.71536477 -53.90276785 144.65053528 -59 144 C-66.11971069 142.069231 -70.39566681 137.21162793 -74.18359375 131.0859375 C-75.19545847 128.50059893 -75.2039078 126.33187321 -75.25 123.5625 C-75.54112716 118.88222071 -75.54112716 118.88222071 -78.75 115.4375 C-79.28367187 115.07398438 -79.81734375 114.71046875 -80.3671875 114.3359375 C-84.876584 110.64643127 -86.67663752 105.14440384 -87.51953125 99.5546875 C-87.9005461 91.34957704 -86.50011258 86.14001488 -81 80 C-80.505 79.505 -80.505 79.505 -80 79 C-79.86695727 76.96001149 -79.76892881 74.91769989 -79.6875 72.875 C-79.17762534 66.01418662 -78.32705166 62.00507892 -73.0625 57.25 C-67.71064815 53 -67.71064815 53 -64 53 C-63.95875 52.01 -63.9175 51.02 -63.875 50 C-63.20231668 45.08037569 -60.29083297 41.57888997 -57 38 C-56.01 37.505 -56.01 37.505 -55 37 C-54.68142211 35.15637798 -54.44561699 33.2981902 -54.25 31.4375 C-53.03968928 23.53764241 -49.70658527 18.88066161 -43.4375 14.0625 C-38.17124281 10.63598331 -33.11750109 10.79942619 -27 11 C-26.34 11.33 -25.68 11.66 -25 12 C-24.73960937 11.40445313 -24.47921875 10.80890625 -24.2109375 10.1953125 C-22.92148412 7.85765831 -21.66460378 6.57615425 -19.625 4.875 C-19.03976563 4.37742187 -18.45453125 3.87984375 -17.8515625 3.3671875 C-12.27200665 -0.7527377 -6.78027821 -0.80089192 0 0 Z " fill="#FBFDFA" transform="translate(157,63)"/>
<path d="M0 0 C2.63434849 1.00613721 4.41966465 2.55923435 6.06640625 4.8359375 C7.62105284 8.35205409 7.42761326 11.97463745 6.90234375 15.7265625 C6.57234375 16.3865625 6.24234375 17.0465625 5.90234375 17.7265625 C9.88571708 17.44865273 11.49656601 17.14274479 14.33984375 14.2265625 C17.58902619 11.05662841 19.40453204 10.7265625 23.90234375 10.7265625 C27.75409239 12.01047871 29.58863579 13.37157718 32.27734375 16.4140625 C34.3798184 20.69987621 34.36074285 22.98977184 33.90234375 27.7265625 C32.87890625 29.96875 32.87890625 29.96875 31.90234375 31.7265625 C32.505625 31.95730469 33.10890625 32.18804687 33.73046875 32.42578125 C38.66852297 34.44082596 42.00986921 36.02629137 44.90234375 40.7265625 C46.06009435 44.19981431 45.97101027 47.08723698 45.90234375 50.7265625 C46.95421875 50.8090625 48.00609375 50.8915625 49.08984375 50.9765625 C53.2050608 51.7861134 54.93207373 52.84365336 57.90234375 55.7265625 C60.31882124 60.55951749 59.2671784 67.38123471 57.90234375 72.4140625 C57.57234375 73.1771875 57.24234375 73.9403125 56.90234375 74.7265625 C57.62421875 74.7678125 58.34609375 74.8090625 59.08984375 74.8515625 C62.28717892 75.846289 63.92688123 77.25501705 65.953125 79.9140625 C67.74712134 83.33963576 67.387411 85.9066579 66.90234375 89.7265625 C65.07949922 93.63265793 62.83007343 96.83088695 58.859375 98.67578125 C58.15167969 98.91941406 57.44398438 99.16304688 56.71484375 99.4140625 C55.99941406 99.66542969 55.28398437 99.91679687 54.546875 100.17578125 C54.00417969 100.35753906 53.46148437 100.53929687 52.90234375 100.7265625 C54.2999428 104.27175134 54.2999428 104.27175134 55.90234375 107.7265625 C56.50203126 113.00381261 55.173991 115.61363452 51.90234375 119.7265625 C48.16495815 122.2181529 46.32902792 122.18449535 41.90234375 121.7265625 C38.96484375 119.9140625 38.96484375 119.9140625 36.90234375 117.7265625 C36.90234375 116.7365625 36.90234375 115.7465625 36.90234375 114.7265625 C34.59234375 114.7265625 32.28234375 114.7265625 29.90234375 114.7265625 C29.81835327 115.89674927 29.81835327 115.89674927 29.73266602 117.09057617 C28.90234375 119.7265625 28.90234375 119.7265625 26.62084961 120.9934082 C25.62964111 121.29335693 24.63843262 121.59330566 23.6171875 121.90234375 C21.98426758 122.43311523 21.98426758 122.43311523 20.31835938 122.97460938 C18.02762839 123.67559106 15.73598085 124.37358564 13.44335938 125.06835938 C4.24684676 128.06546125 -0.55813105 132.25558331 -6.47265625 139.7265625 C-7.27703125 140.7165625 -7.27703125 140.7165625 -8.09765625 141.7265625 C-8.75765625 141.7265625 -9.41765625 141.7265625 -10.09765625 141.7265625 C-10.42765625 142.7165625 -10.75765625 143.7065625 -11.09765625 144.7265625 C-11.42765625 144.7265625 -11.75765625 144.7265625 -12.09765625 144.7265625 C-12.87532708 141.17598456 -12.86086618 138.28773578 -12.09765625 134.7265625 C-10.09667969 132.02563477 -10.09667969 132.02563477 -7.39453125 129.23046875 C-6.90649521 128.71954178 -6.41845917 128.20861481 -5.91563416 127.6822052 C-4.86529137 126.5867084 -3.80900242 125.49688745 -2.74740601 124.41229248 C-1.09253078 122.72132525 0.54530715 121.01524248 2.18041992 119.30517578 C4.96946456 116.39822801 7.78731822 113.52151778 10.62084961 110.65795898 C11.78466966 109.47727916 12.94306071 108.29122737 14.09643555 107.1003418 C15.78944483 105.35298609 17.49795686 103.62228455 19.2109375 101.89453125 C19.72450302 101.35829636 20.23806854 100.82206146 20.76719666 100.26957703 C22.23608398 98.80932617 22.23608398 98.80932617 24.90234375 96.7265625 C27.13305664 96.84106445 27.13305664 96.84106445 28.90234375 97.7265625 C32.85133712 99.70105919 37.59824479 99.16426748 41.90234375 98.7265625 C46.37897502 96.56818671 48.89174852 94.27685697 50.90234375 89.7265625 C52.16863111 84.46659961 52.0759847 80.70782302 49.90234375 75.7265625 C47.20756429 71.97371012 44.57515686 70.01992062 39.984375 69.21484375 C35.22068455 69.04323254 31.72863371 69.36415462 27.33984375 71.2890625 C24.32437973 74.30452652 23.28919222 76.72011137 21.90234375 80.7265625 C21.12632812 80.62472656 20.3503125 80.52289063 19.55078125 80.41796875 C14.89548602 80.23464567 10.88082241 80.22674803 7.02539062 83.14941406 C3.22621937 86.77480619 -0.07682212 90.79842515 -3.41699219 94.84130859 C-6.05578161 97.80132195 -9.02524234 100.22585093 -12.09765625 102.7265625 C-13.58120701 96.23790108 -14.34731451 90.11953798 -12.09765625 83.7265625 C-8.97924348 79.14852901 -5.32550201 75.31326649 -1.34765625 71.4765625 C-0.58397736 70.7313736 -0.58397736 70.7313736 0.19512939 69.97113037 C6.41463537 63.98882262 6.41463537 63.98882262 9.90234375 61.7265625 C12.09545898 61.95654297 12.09545898 61.95654297 13.90234375 62.7265625 C19.85802242 63.49716787 23.69440347 62.88583591 28.4921875 59.2109375 C32.37373099 55.12510224 32.38285635 50.82975027 32.2890625 45.42578125 C31.6751144 41.14054755 30.11679662 39.57573663 26.90234375 36.7265625 C22.64842923 34.18298474 18.74250195 34.17141891 13.90234375 34.7265625 C9.75558835 36.47741478 7.07557802 38.78254475 4.90234375 42.7265625 C5.02968087 44.56304668 5.2022269 46.39657831 5.40234375 48.2265625 C5.63556965 53.61074894 4.31334419 56.12694683 0.86328125 60.01367188 C-3.22788935 64.2648053 -7.48135219 68.04817353 -12.09765625 71.7265625 C-12.23668672 62.92970663 -12.34329106 54.13322893 -12.40852928 45.33551407 C-12.4398411 41.25029951 -12.48230854 37.1658366 -12.55029297 33.08105469 C-12.61549489 29.13877737 -12.65136342 25.19722282 -12.66691971 21.25444794 C-12.67800495 19.75045134 -12.69965305 18.24649426 -12.73203659 16.74280548 C-12.7756184 14.63528569 -12.78159073 12.53074959 -12.77880859 10.42285156 C-12.79213226 9.22372131 -12.80545593 8.02459106 -12.81918335 6.78912354 C-12.09765625 3.7265625 -12.09765625 3.7265625 -9.19009399 1.33197021 C-5.53515774 -0.5654529 -3.91202585 -0.76588606 0 0 Z " fill="#68C63F" transform="translate(181.09765625,74.2734375)"/>
<path d="M0 0 C2.63450938 2.70041876 2.29168798 4.6208577 2.26373291 8.34587097 C2.26431702 8.99979828 2.26490112 9.65372559 2.26550293 10.32746887 C2.26271823 12.4868954 2.23161177 14.64493789 2.20025635 16.80412292 C2.19279524 18.30198411 2.18710169 19.79985506 2.18310547 21.29772949 C2.16783861 25.23861174 2.12854859 29.17890353 2.08428955 33.11955261 C2.04335902 37.14128125 2.02509925 41.16310538 2.00494385 45.1849823 C1.96205461 53.07522711 1.89379143 60.96499218 1.80963135 68.85490417 C1.33509018 68.44611526 0.86054901 68.03732635 0.37162781 67.6161499 C-0.25412643 67.07820297 -0.87988068 66.54025604 -1.52459717 65.98600769 C-2.14351334 65.45346878 -2.7624295 64.92092987 -3.40010071 64.37225342 C-4.85654405 63.13783864 -6.34523865 61.94155338 -7.8427124 60.75724792 C-11.50772708 57.6059618 -13.96056973 55.48280744 -14.6552124 50.56193542 C-14.56536865 47.10490417 -14.56536865 47.10490417 -14.21380615 43.87052917 C-14.18566034 40.24910104 -15.02283144 38.70983166 -17.19036865 35.85490417 C-21.93984916 32.57550097 -26.58089278 31.95015 -32.19036865 32.85490417 C-36.57290419 35.04617194 -39.35706681 37.27164956 -41.19036865 41.85490417 C-41.8927842 46.5376745 -41.66526553 49.88684516 -39.56536865 54.16740417 C-35.94482835 58.26433136 -33.18870025 60.67961193 -27.62786865 61.16740417 C-24.31254066 60.97521116 -24.31254066 60.97521116 -21.69793701 60.13591003 C-19.19036865 59.85490417 -19.19036865 59.85490417 -17.34100342 61.11491394 C-16.77695801 61.75227478 -16.2129126 62.38963562 -15.6317749 63.04631042 C-14.68141357 64.09335144 -14.68141357 64.09335144 -13.71185303 65.1615448 C-13.06538818 65.90597839 -12.41892334 66.65041199 -11.75286865 67.41740417 C-10.46334633 68.85696119 -9.17299268 70.29577397 -7.8817749 71.73381042 C-7.2639917 72.44215027 -6.6462085 73.15049011 -6.00970459 73.8802948 C-4.34537151 75.68667241 -2.60928643 77.209553 -0.7411499 78.79631042 C2.75434218 82.98768913 2.51240254 85.96035192 2.18463135 91.22990417 C2.14402588 92.47707214 2.14402588 92.47707214 2.1026001 93.74943542 C2.03238328 95.78572305 1.9247771 97.82066251 1.80963135 99.85490417 C-12.68005228 87.88516552 -12.68005228 87.88516552 -16.6161499 81.56584167 C-18.12115019 79.55735879 -18.12115019 79.55735879 -20.9677124 79.52677917 C-22.01056396 79.55256042 -23.05341553 79.57834167 -24.12786865 79.60490417 C-27.37786865 79.45646667 -27.37786865 79.45646667 -30.19036865 78.85490417 C-31.87261923 76.91856367 -32.54874651 75.19422531 -33.43255615 72.80021667 C-34.11438276 70.650961 -34.11438276 70.650961 -36.25286865 68.85490417 C-42.01564902 66.8931066 -47.87415648 67.0968711 -53.62786865 68.97990417 C-57.61161726 71.89484218 -59.80330082 74.45653061 -60.6083374 79.44474792 C-60.89944301 85.18031509 -60.26320901 88.98517668 -56.67474365 93.51506042 C-53.27394811 96.58472587 -50.33046239 97.13019882 -45.81536865 97.10490417 C-44.90013428 97.11006042 -43.9848999 97.11521667 -43.04193115 97.12052917 C-39.85662158 96.82381541 -37.20224654 95.90455326 -34.19036865 94.85490417 C-29.70276732 99.31708506 -25.21914286 103.78323346 -20.73822021 108.25212097 C-19.21438733 109.77093486 -17.68965685 111.28884874 -16.16400146 112.80583191 C-13.96727921 114.99038197 -11.77383849 117.17818158 -9.58099365 119.36662292 C-8.90167786 120.04077744 -8.22236206 120.71493195 -7.52246094 121.40951538 C1.61913993 130.550038 1.61913993 130.550038 2.20025635 134.53068542 C2.1538501 135.40080261 2.10744385 136.2709198 2.05963135 137.16740417 C2.0235376 138.05041199 1.98744385 138.9334198 1.95025635 139.84318542 C1.9038501 140.50705261 1.85744385 141.1709198 1.80963135 141.85490417 C-4.76280326 136.40118184 -4.76280326 136.40118184 -6.8505249 133.73381042 C-14.00486831 124.96936001 -24.50539394 122.8045787 -34.99481201 119.67350769 C-37.19036865 118.85490417 -37.19036865 118.85490417 -39.19036865 116.85490417 C-39.19036865 115.53490417 -39.19036865 114.21490417 -39.19036865 112.85490417 C-41.50036865 112.85490417 -43.81036865 112.85490417 -46.19036865 112.85490417 C-46.43786865 113.63865417 -46.68536865 114.42240417 -46.94036865 115.22990417 C-48.19036865 117.85490417 -48.19036865 117.85490417 -49.87786865 119.16740417 C-53.21594167 120.15980426 -55.72325401 120.28069018 -59.19036865 119.85490417 C-62.34991171 117.31353259 -63.90577752 115.70867758 -65.19036865 111.85490417 C-65.72972517 106.13772506 -64.71205111 103.36705983 -61.19036865 98.85490417 C-62.05661865 98.77240417 -62.92286865 98.68990417 -63.81536865 98.60490417 C-69.03307947 97.44541288 -72.0978806 95.11989034 -75.56536865 91.10490417 C-77.55109411 87.13345326 -78.1851347 84.20592438 -77.19036865 79.85490417 C-75.80817966 77.13169778 -74.563279 75.96988948 -72.19036865 73.85490417 C-68.87786865 72.97990417 -68.87786865 72.97990417 -66.19036865 72.85490417 C-66.68536865 72.09177917 -67.18036865 71.32865417 -67.69036865 70.54240417 C-69.71394528 65.5677783 -69.92644693 61.16113879 -69.19036865 55.85490417 C-67.16693703 52.31389884 -65.1001975 50.1198488 -61.19036865 48.85490417 C-57.94036865 48.72990417 -57.94036865 48.72990417 -55.19036865 48.85490417 C-55.27286865 47.65865417 -55.35536865 46.46240417 -55.44036865 45.22990417 C-55.44036865 40.74096201 -54.09950133 38.32970153 -51.19036865 34.85490417 C-48.10235109 31.86982053 -45.41451747 31.33492109 -41.19036865 30.85490417 C-41.52036865 30.21552917 -41.85036865 29.57615417 -42.19036865 28.91740417 C-43.77049131 24.07827855 -44.49903457 19.44336838 -42.12786865 14.75334167 C-39.61313759 11.43225663 -37.33287143 9.47200568 -33.19036865 8.66740417 C-28.9074411 8.4783306 -26.40365104 10.03348549 -23.19036865 12.85490417 C-22.69536865 14.33990417 -22.69536865 14.33990417 -22.19036865 15.85490417 C-19.88036865 15.85490417 -17.57036865 15.85490417 -15.19036865 15.85490417 C-15.68536865 15.05052917 -15.68536865 15.05052917 -16.19036865 14.22990417 C-17.48654052 11.15149599 -17.58910869 9.17773779 -17.19036865 5.85490417 C-15.55272544 2.81356677 -14.09043526 0.56875011 -11.37786865 -1.58259583 C-7.33748309 -2.62155211 -3.66476367 -1.91589009 0 0 Z " fill="#67C63D" transform="translate(157.19036865234375,76.14509582519531)"/>
<path d="M0 0 C3.3 0 6.6 0 10 0 C9.01320693 3.94717228 8.6605884 4.71330541 5.96484375 7.39160156 C5.32748291 8.0319635 4.69012207 8.67232544 4.03344727 9.33209229 C2.99595337 10.35106598 2.99595337 10.35106598 1.9375 11.390625 C1.23101318 12.09523865 0.52452637 12.79985229 -0.20336914 13.52581787 C-1.69621172 15.01194224 -3.19264568 16.49446644 -4.69238281 17.97363281 C-6.99807513 20.24810119 -9.29286049 22.53313282 -11.5859375 24.8203125 C-13.03583559 26.26104365 -14.48633583 27.70116911 -15.9375 29.140625 C-16.6291626 29.82803772 -17.3208252 30.51545044 -18.03344727 31.22369385 C-18.98948853 32.16532379 -18.98948853 32.16532379 -19.96484375 33.12597656 C-20.80970337 33.96059418 -20.80970337 33.96059418 -21.67163086 34.81207275 C-23 36 -23 36 -24 36 C-24.78691737 32.1208366 -24.86334864 28.87651211 -24 25 C-20.74044405 20.38248166 -16.72812519 16.72826166 -12.5625 12.9375 C-10.92702668 11.396774 -9.29919683 9.84826409 -7.6716156 8.29920959 C-6.20114647 6.90818126 -4.71340057 5.53548412 -3.22485352 4.16381836 C-0.96416345 2.20281829 -0.96416345 2.20281829 0 0 Z " fill="#67C53D" transform="translate(193,162)"/>
<path d="M0 0 C3.23301397 -0.62304852 4.86366929 -0.81443728 8 0 C12.03971756 2.98105931 15.39234133 6.59571446 18.8125 10.25 C19.76054137 11.22963735 20.71039798 12.20752142 21.66210938 13.18359375 C31.85809939 23.75127461 31.85809939 23.75127461 32.29296875 27.578125 C32.25816406 28.45984375 32.22335938 29.3415625 32.1875 30.25 C32.14689453 31.58804688 32.14689453 31.58804688 32.10546875 32.953125 C32.07066406 33.62859375 32.03585938 34.3040625 32 35 C25.57602203 29.72282796 19.68504882 23.9389136 13.79077148 18.0859375 C12.63046222 16.93726575 11.46567051 15.79310568 10.29663086 14.65332031 C8.59551015 12.99463871 6.90782106 11.32330875 5.22265625 9.6484375 C4.69777115 9.14106049 4.17288605 8.63368347 3.63209534 8.1109314 C0.64335285 5.10389364 0 4.43958857 0 0 Z " fill="#64C53A" transform="translate(127,162)"/>
<path d="M0 0 C0.33 0 0.66 0 1 0 C1 21.78 1 43.56 1 66 C0.01 65.34 -0.98 64.68 -2 64 C-2.32952881 61.37449646 -2.32952881 61.37449646 -2.26464844 58.00561523 C-2.24762878 56.74768661 -2.23060913 55.489758 -2.21307373 54.19371033 C-2.17897493 52.81532649 -2.14439724 51.43695443 -2.109375 50.05859375 C-2.08388232 48.65139316 -2.05958544 47.24417044 -2.03643799 45.83692932 C-1.98483765 42.88686931 -1.92332264 39.93724493 -1.85400391 36.98754883 C-1.76511187 33.19889509 -1.69367684 29.41017925 -1.62871933 25.62104702 C-1.56606244 22.01676802 -1.49409858 18.41269133 -1.421875 14.80859375 C-1.40892143 14.11669889 -1.39596786 13.42480404 -1.38262177 12.71194267 C-1.34457665 10.76285041 -1.29894839 8.81391054 -1.25292969 6.86499023 C-1.22833679 5.75405502 -1.2037439 4.64311981 -1.17840576 3.4985199 C-1 1 -1 1 0 0 Z " fill="#5FC233" transform="translate(158,79)"/>
<path d="M0 0 C2.875 0.9375 2.875 0.9375 4.875 3.9375 C4.6875 7.5 4.6875 7.5 3.875 10.9375 C0.875 12.9375 0.875 12.9375 -2.1875 12.6875 C-5.125 11.9375 -5.125 11.9375 -7.125 9.9375 C-7.59671648 6.32100702 -7.54291658 4.56437488 -5.5 1.5 C-3.125 -0.0625 -3.125 -0.0625 0 0 Z " fill="#69C640" transform="translate(113.125,152.0625)"/>
<path d="M0 0 C1.8125 1.25 1.8125 1.25 3 3 C3.59636329 6.3225955 3.29109393 7.57455503 1.375 10.375 C-1 12 -1 12 -4.125 11.875 C-7 11 -7 11 -9 9 C-9.375 5.5625 -9.375 5.5625 -9 2 C-6.18112246 -1.3408919 -4.01115641 -1.4399023 0 0 Z " fill="#6AC641" transform="translate(221,153)"/>
<path d="M0 0 C2.96750531 1.1583068 4.98196393 2.73604837 7.20800781 4.98095703 C8.10848846 5.88166428 8.10848846 5.88166428 9.02716064 6.80056763 C9.980513 7.76940384 9.980513 7.76940384 10.953125 8.7578125 C11.61334656 9.42086395 12.27356812 10.08391541 12.95379639 10.76705933 C15.05727824 12.88171832 17.15369142 15.00323212 19.25 17.125 C20.67662261 18.56165557 22.10370072 19.99785898 23.53125 21.43359375 C27.02613661 24.95050804 30.51470062 28.47358547 34 32 C33.34 32.66 32.68 33.32 32 34 C27.88508307 29.90975967 23.77342906 25.81627791 19.66479492 21.71972656 C18.26595345 20.32592098 16.86621674 18.93301328 15.46557617 17.54101562 C13.45517001 15.54270748 11.44798114 13.54121682 9.44140625 11.5390625 C8.81222794 10.91504547 8.18304962 10.29102844 7.5348053 9.64810181 C6.95427902 9.06765106 6.37375275 8.48720032 5.77563477 7.88916016 C5.26267349 7.37841949 4.74971222 6.86767883 4.22120667 6.34146118 C3 5 3 5 2 3 C-0.01669827 1.86649466 -0.01669827 1.86649466 -2 1 C-1.34 0.67 -0.68 0.34 0 0 Z " fill="#70C749" transform="translate(121,171)"/>
<path d="M0 0 C2.625 0.25 2.625 0.25 4.5 1.4375 C5.625 3.25 5.625 3.25 5.4375 5.8125 C4.625 8.25 4.625 8.25 2.625 10.25 C0.1875 10.625 0.1875 10.625 -2.375 10.25 C-4.3125 8.5625 -4.3125 8.5625 -5.375 6.25 C-3.74069987 0.39375788 -3.74069987 0.39375788 0 0 Z " fill="#6DC745" transform="translate(199.375,117.75)"/>
<path d="M0 0 C2.5625 0.3125 2.5625 0.3125 4.4375 1.5 C5.5625 3.3125 5.5625 3.3125 5.375 5.875 C4.5625 8.3125 4.5625 8.3125 2.5625 10.3125 C-0.5625 9.9375 -0.5625 9.9375 -3.4375 9.3125 C-4.0625 5.9375 -4.0625 5.9375 -4.4375 2.3125 C-2.4375 0.3125 -2.4375 0.3125 0 0 Z " fill="#68C63F" transform="translate(129.4375,117.6875)"/>
<path d="M0 0 C1.65511416 1.3792618 3.30206006 2.76932144 4.91015625 4.203125 C6.96634018 6.0357952 6.96634018 6.0357952 9.24609375 7.546875 C12.40841219 10.00457703 14.67358145 12.01310447 15.34814453 16.11914062 C15.69360657 21.43427446 15.40800712 26.69590749 15 32 C13 30.625 13 30.625 11 29 C11 28.34 11 27.68 11 27 C11.66 27 12.32 27 13 27 C13.42573692 21.92390599 13.80553228 16.59567754 10.77490234 12.23876953 C8.24050382 9.38542444 5.46185436 6.87004516 2.58984375 4.36328125 C1.73519531 3.58339844 0.88054687 2.80351562 0 2 C0 1.34 0 0.68 0 0 Z " fill="#60C334" transform="translate(144,144)"/>
<path d="M0 0 C2.93230193 1.32120828 4.98664899 2.74638197 7.234375 5.0390625 C8.09482422 5.90917969 8.09482422 5.90917969 8.97265625 6.796875 C9.55917969 7.40015625 10.14570313 8.0034375 10.75 8.625 C11.35199219 9.23601562 11.95398438 9.84703125 12.57421875 10.4765625 C14.05405305 11.97988624 15.52764676 13.48934856 17 15 C16.34 15.66 15.68 16.32 15 17 C12.49195282 14.54976242 9.9949924 12.08852402 7.5 9.625 C6.78457031 8.92632812 6.06914062 8.22765625 5.33203125 7.5078125 C4.65527344 6.8375 3.97851562 6.1671875 3.28125 5.4765625 C2.65283203 4.85861816 2.02441406 4.24067383 1.37695312 3.60400391 C0 2 0 2 0 0 Z " fill="#6FC848" transform="translate(139,168)"/>
<path d="M0 0 C3.68069887 1.53643852 5.98775204 3.78150945 8.75 6.625 C9.54921875 7.44226563 10.3484375 8.25953125 11.171875 9.1015625 C12.07679688 10.04128906 12.07679688 10.04128906 13 11 C12.34 11.66 11.68 12.32 11 13 C9.16052663 11.21427748 7.32842259 9.42197551 5.5 7.625 C4.71302734 6.86316406 4.71302734 6.86316406 3.91015625 6.0859375 C2.56846819 4.76167396 1.28004185 3.38394135 0 2 C0 1.34 0 0.68 0 0 Z " fill="#6FC748" transform="translate(143,159)"/>
<path d="M0 0 C3.45201639 1.47721422 5.64961936 3.43794001 8.25 6.125 C8.95640625 6.84945312 9.6628125 7.57390625 10.390625 8.3203125 C11.18726563 9.15175781 11.18726563 9.15175781 12 10 C11.34 10.66 10.68 11.32 10 12 C8.32737283 10.38113585 6.66204463 8.7547271 5 7.125 C4.071875 6.22007812 3.14375 5.31515625 2.1875 4.3828125 C0 2 0 2 0 0 Z " fill="#6EC747" transform="translate(128,165)"/>
<path d="M0 0 C0.33 0 0.66 0 1 0 C2.125 7.625 2.125 7.625 1 11 C1.598125 11.2475 2.19625 11.495 2.8125 11.75 C5.28647521 13.16370012 6.43370255 14.65055383 8 17 C5 17 5 17 1.75 14.6875 C-0.47717494 12.41095419 -0.97827389 11.37710318 -1.1640625 8.15234375 C-0.90090748 5.3963283 -0.53165227 2.71625975 0 0 Z " fill="#7ACB56" transform="translate(144,119)"/>
<path d="M0 0 C7.38461538 0.49230769 7.38461538 0.49230769 10.5 3.0625 C10.995 3.701875 11.49 4.34125 12 5 C11.01 5 10.02 5 9 5 C9 4.34 9 3.68 9 3 C6.03 2.67 3.06 2.34 0 2 C0 1.34 0 0.68 0 0 Z " fill="#71C84A" transform="translate(200,85)"/>
<path d="M0 0 C0 0.99 0 1.98 0 3 C-1.3921875 2.7215625 -1.3921875 2.7215625 -2.8125 2.4375 C-6.01343771 1.75876119 -6.01343771 1.75876119 -9 3 C-8.67 2.01 -8.34 1.02 -8 0 C-5.13822943 -1.43088528 -3.06624227 -0.59991697 0 0 Z " fill="#75C950" transform="translate(116,153)"/>
<path d="" fill="#F28699" transform="translate(0,0)"/>
</svg>
