<svg xmlns="http://www.w3.org/2000/svg">
  <symbol id="ns-icon-analysis" viewBox="0 0 24 24">
    <path d="M21 21H3"/><path d="M7 17V9"/><path d="M12 17V5"/><path d="M17 17v-6"/>
  </symbol>
  <symbol id="ns-icon-archive" viewBox="0 0 24 24">
    <rect x="4" y="8" width="16" height="12" rx="2"/>
    <rect x="3" y="4" width="18" height="4" rx="1.5"/>
    <path d="M9 12h6"/>
  </symbol>
  <symbol id="ns-icon-calendar" viewBox="0 0 24 24">
    <rect x="3" y="4" width="18" height="17" rx="2"/><path d="M8 2v4"/><path d="M16 2v4"/><path d="M3 10h18"/><path d="M8 14h.01"/><path d="M12 14h.01"/><path d="M16 14h.01"/><path d="M8 18h.01"/><path d="M12 18h.01"/>
  </symbol>
  <symbol id="ns-icon-certification" viewBox="0 0 24 24">
    <circle cx="12" cy="8" r="5"/>
    <path d="M8.5 12.5 7 22l5-3 5 3-1.5-9.5"/>
  </symbol>
  <symbol id="ns-icon-checklist" viewBox="0 0 24 24">
    <path d="m3 6 1.5 1.5L7 5"/>
    <path d="M10 6h11"/>
    <path d="m3 12 1.5 1.5L7 11"/>
    <path d="M10 12h11"/>
    <path d="m3 18 1.5 1.5L7 17"/>
    <path d="M10 18h11"/>
  </symbol>
  <symbol id="ns-icon-competence" viewBox="0 0 24 24">
    <circle cx="10" cy="10" r="7"/>
    <circle cx="10" cy="10" r="3"/>
    <path d="M10 3V1.5"/>
    <path d="M10 18.5V17"/>
    <path d="M3 10H1.5"/>
    <path d="M18.5 10H17"/>
    <path d="m14.5 18 2 2 4-5"/>
  </symbol>
  <symbol id="ns-icon-constraints" viewBox="0 0 24 24">
    <path d="M4 21v-7"/><path d="M4 10V3"/><path d="M12 21v-9"/><path d="M12 8V3"/><path d="M20 21v-5"/><path d="M20 12V3"/><path d="M2 14h4"/><path d="M10 8h4"/><path d="M18 16h4"/>
  </symbol>
  <symbol id="ns-icon-criticality" viewBox="0 0 24 24">
    <path d="M12 22s8-4 8-10V5l-8-3-8 3v7c0 6 8 10 8 10Z"/>
    <path d="M12 7v5"/>
    <path d="M12 16h.01"/>
  </symbol>
  <symbol id="ns-icon-edit" viewBox="0 0 24 24">
    <path d="M12 20h9"/><path d="M16.5 3.5a2.1 2.1 0 1 1 3 3L7 19l-4 1 1-4Z"/>
  </symbol>
  <symbol id="ns-icon-eye" viewBox="0 0 24 24">
    <path d="M2 12s3.5-7 10-7 10 7 10 7-3.5 7-10 7-10-7-10-7z"></path>
              <circle cx="12" cy="12" r="3"></circle>
  </symbol>
  <symbol id="ns-icon-job" viewBox="0 0 24 24">
    <rect x="3" y="7" width="18" height="13" rx="2"/><path d="M8 7V5a2 2 0 0 1 2-2h4a2 2 0 0 1 2 2v2"/><path d="M3 13h18"/>
  </symbol>
  <symbol id="ns-icon-activity" viewBox="0 0 24 24">
    <path d="M8 6h13"/><path d="M8 12h13"/><path d="M8 18h13"/><path d="M3 6h.01"/><path d="M3 12h.01"/><path d="M3 18h.01"/>
  </symbol>
  <symbol id="ns-icon-ai" viewBox="0 0 24 24">
    <path d="M12 2v4"/><path d="M12 18v4"/><path d="m4.93 4.93 2.83 2.83"/><path d="m16.24 16.24 2.83 2.83"/><path d="M2 12h4"/><path d="M18 12h4"/><path d="m4.93 19.07 2.83-2.83"/><path d="m16.24 7.76 2.83-2.83"/>
  </symbol>
  <symbol id="ns-icon-ccn" viewBox="0 0 24 24">
    <path d="M14 2H7a2 2 0 0 0-2 2v16a2 2 0 0 0 2 2h10a2 2 0 0 0 2-2V7z"/>
    <path d="M14 2v5h5"/>
    <circle cx="14.5" cy="15" r="2.5"/>
    <path d="m13 17-1 4 2.5-1.5L17 21l-1-4"/>
  </symbol>
  <symbol id="ns-icon-comment" viewBox="0 0 24 24">
    <path d="M21 15a4 4 0 0 1-4 4H8l-5 3V7a4 4 0 0 1 4-4h10a4 4 0 0 1 4 4z"/>
  </symbol>
  <symbol id="ns-icon-copy" viewBox="0 0 24 24">
    <rect x="8" y="8" width="12" height="12" rx="2"/>
    <path d="M16 8V6a2 2 0 0 0-2-2H6a2 2 0 0 0-2 2v8a2 2 0 0 0 2 2h2"/>
  </symbol>
  <symbol id="ns-icon-info" viewBox="0 0 24 24">
    <circle cx="12" cy="12" r="9"/><path d="M12 10v6"/><path d="M12 7h.01"/>
  </symbol>
  <symbol id="ns-icon-chevron-down" viewBox="0 0 24 24">
    <path d="m6 9 6 6 6-6"/>
  </symbol>
  <symbol id="ns-icon-plus" viewBox="0 0 24 24">
    <path d="M12 5v14"/><path d="M5 12h14"/>
  </symbol>
  <symbol id="ns-icon-save" viewBox="0 0 24 24">
    <path d="M19 21H5a2 2 0 0 1-2-2V5a2 2 0 0 1 2-2h11l5 5v11a2 2 0 0 1-2 2Z"/><path d="M17 21v-8H7v8"/><path d="M7 3v5h8"/>
  </symbol>
  <symbol id="ns-icon-upload" viewBox="0 0 24 24">
    <path d="M14 2H8a2 2 0 0 0-2 2v16a2 2 0 0 0 2 2h8a2 2 0 0 0 2-2V8z"/><path d="M14 2v6h6"/><path d="m9 16 3-3 3 3"/><path d="M12 13v6"/>
  </symbol>
  <symbol id="ns-icon-close" viewBox="0 0 24 24">
    <path d="M18 6 6 18"/><path d="m6 6 12 12"/>
  </symbol>
  <symbol id="ns-icon-legacy-0476721b1003" viewBox="0 0 24 24">
    <path d="m22 10-10-5-10 5 10 5 10-5Z"/><path d="M6 12v5c3 2 9 2 12 0v-5"/>
  </symbol>
  <symbol id="ns-icon-legacy-05d2e7645abd" viewBox="0 0 24 24">
    <path d="m22 10-10-5-10 5 10 5 10-5Z"/><path d="M6 12v5c3 2 9 2 12 0v-5"/>
  </symbol>
  <symbol id="ns-icon-legacy-060f028e19e0" viewBox="0 0 24 24">
    <path d="M16 21v-2a4 4 0 0 0-4-4H6a4 4 0 0 0-4 4v2"/><circle cx="9" cy="7" r="4"/><path d="M22 21v-2a4 4 0 0 0-3-3.87"/><path d="M16 3.13a4 4 0 0 1 0 7.75"/>
  </symbol>
  <symbol id="ns-icon-legacy-06ef980a686d" viewBox="0 0 24 24">
    <path d="M8 2v4"/><path d="M16 2v4"/><rect x="3" y="4" width="18" height="18" rx="2"/><path d="M3 10h18"/><path d="m9 16 2 2 4-5"/>
  </symbol>
  <symbol id="ns-icon-legacy-0a28c918f271" viewBox="0 0 24 24">
    <path d="M9 18l6-6-6-6"/>
  </symbol>
  <symbol id="ns-icon-legacy-0b917187fccb" viewBox="0 0 24 24">
    <rect x="3" y="4" width="18" height="18" rx="2"/><path d="M16 2v4"/><path d="M8 2v4"/><path d="M3 10h18"/>
  </symbol>
  <symbol id="ns-icon-legacy-0ba498c7ae0a" viewBox="0 0 24 24">
    <path d="m9 18 6-6-6-6"></path>
  </symbol>
  <symbol id="ns-icon-legacy-0c5102aa3109" viewBox="0 0 24 24">
    <rect x="3" y="4" width="18" height="17" rx="2"/><path d="M8 2v4"/><path d="M16 2v4"/><path d="M3 10h18"/>
  </symbol>
  <symbol id="ns-icon-legacy-0d6919acfe8c" viewBox="0 0 24 24">
    <path d="M14 2H7a2 2 0 0 0-2 2v16a2 2 0 0 0 2 2h10a2 2 0 0 0 2-2V7z"></path>
                    <path d="M14 2v5h5"></path>
                    <path d="M12 18v-7"></path>
                    <path d="M9 14l3-3 3 3"></path>
  </symbol>
  <symbol id="ns-icon-legacy-0d7df336ef13" viewBox="0 0 24 24">
    <circle cx="12" cy="7" r="4"/><path d="M5.5 21a6.5 6.5 0 0 1 13 0"/>
  </symbol>
  <symbol id="ns-icon-legacy-0da5a727d9ec" viewBox="0 0 24 24">
    <path d="M12 5v14"/>
        <path d="M5 12h14"/>
  </symbol>
  <symbol id="ns-icon-legacy-0fb1e467312d" viewBox="0 0 24 24">
    <rect x="3" y="11" width="18" height="10" rx="2"></rect>
              <path d="M7 11V8a5 5 0 0 1 10 0v3"></path>
  </symbol>
  <symbol id="ns-icon-legacy-0fdedc5844b6" viewBox="0 0 24 24">
    <path d="M3 12l7-7 4 4 7-7"/><path d="M14 9h7v7"/>
  </symbol>
  <symbol id="ns-icon-legacy-1303e62bb18e" viewBox="0 0 24 24">
    <circle cx="12" cy="12" r="9"/><path d="M12 7v6"/><path d="M12 17h.01"/>
  </symbol>
  <symbol id="ns-icon-legacy-158e5cc05034" viewBox="0 0 24 24">
    <path d="M5 12l4 4L19 6" />
  </symbol>
  <symbol id="ns-icon-legacy-1687de9965e6" viewBox="0 0 24 24">
    <path d="M9 9H5V5"/><path d="m15 9 4-4"/><path d="M9 15H5v4"/><path d="m15 15 4 4"/>
  </symbol>
  <symbol id="ns-icon-legacy-18bccb4b2b39" viewBox="0 0 24 24">
    <rect x="3" y="4" width="18" height="18" rx="2"/><path d="M16 2v4"/><path d="M8 2v4"/><path d="M3 10h18"/>
  </symbol>
  <symbol id="ns-icon-legacy-1912b87a3c69" viewBox="0 0 24 24">
    <path d="M14 2H6a2 2 0 0 0-2 2v16a2 2 0 0 0 2 2h12a2 2 0 0 0 2-2V8z"/><path d="M14 2v6h6"/><path d="M8 13h8"/><path d="M8 17h6"/>
  </symbol>
  <symbol id="ns-icon-legacy-1e1958f9e096" viewBox="0 0 ${size} ${size}">
    <circle cx="${size / 2}" cy="${size / 2}" r="${r}" fill="none" stroke="#e5e7eb" stroke-width="${stroke}" />
            <circle cx="${size / 2}" cy="${size / 2}" r="${r}" fill="none" stroke="${fill}" stroke-width="${stroke}"
                    stroke-linecap="round" stroke-dasharray="${c}" stroke-dashoffset="${offset}"
                    transform="rotate(-90 ${size / 2} ${size / 2})" />
  </symbol>
  <symbol id="ns-icon-legacy-1e4bd7c785e3" viewBox="0 0 24 24">
    <rect x="3" y="7" width="18" height="13" rx="2"/><path d="M8 7V5a2 2 0 0 1 2-2h4a2 2 0 0 1 2 2v2"/><path d="M3 13h18"/>
  </symbol>
  <symbol id="ns-icon-legacy-1e70ab77b5af" viewBox="0 0 24 24">
    <path d="M10.29 3.86 1.82 18a2 2 0 0 0 1.71 3h16.94a2 2 0 0 0 1.71-3L13.71 3.86a2 2 0 0 0-3.42 0z"/><path d="M12 9v4"/><path d="M12 17h.01"/>
  </symbol>
  <symbol id="ns-icon-legacy-1fb0c0fccced" viewBox="0 0 24 24">
    <path d="M6 6l12 12M18 6L6 18" />
  </symbol>
  <symbol id="ns-icon-legacy-20100b7a115b" viewBox="0 0 24 24">
    <path d="M2 12s3.5-7 10-7 10 7 10 7-3.5 7-10 7-10-7-10-7Z"/><circle cx="12" cy="12" r="3"/>
  </symbol>
  <symbol id="ns-icon-legacy-201caff8d498" viewBox="0 0 24 24">
    <path d="M9 3h6"/><path d="M9 7h6"/><path d="M5 5a2 2 0 0 1 2-2h1"/><path d="M16 3h1a2 2 0 0 1 2 2v14a2 2 0 0 1-2 2H7a2 2 0 0 1-2-2V5"/>
  </symbol>
  <symbol id="ns-icon-legacy-2020cde8c7f6" viewBox="0 0 24 24">
    <path d="M21 12a9 9 0 0 1-9 9 9.75 9.75 0 0 1-6.74-2.74L3 16"/><path d="M3 21v-5h5"/><path d="M3 12a9 9 0 0 1 9-9 9.75 9.75 0 0 1 6.74 2.74L21 8"/><path d="M16 8h5V3"/>
  </symbol>
  <symbol id="ns-icon-legacy-223e87074d62" viewBox="0 0 24 24">
    <path d="M4 21V5a2 2 0 0 1 2-2h9a2 2 0 0 1 2 2v16"/><path d="M9 21v-4h3v4"/><path d="M8 7h.01"/><path d="M12 7h.01"/><path d="M8 11h.01"/><path d="M12 11h.01"/><path d="M17 9h3v12"/>
  </symbol>
  <symbol id="ns-icon-legacy-2265042b2ce2" viewBox="0 0 24 24">
    <path d="M22 10 12 5 2 10l10 5 10-5Z"/><path d="M6 12v5c3 2 9 2 12 0v-5"/>
  </symbol>
  <symbol id="ns-icon-legacy-23f69b85988b" viewBox="0 0 24 24">
    <path d="M8 7V3"/><path d="M16 7V3"/><path d="M4 11h16"/><rect x="4" y="5" width="16" height="16" rx="2"/>
  </symbol>
  <symbol id="ns-icon-legacy-241cbd029e7b" viewBox="0 0 24 24">
    <circle cx="12" cy="12" r="9"/><path d="m15 9-6 6"/><path d="m9 9 6 6"/>
  </symbol>
  <symbol id="ns-icon-legacy-24b9971b5c72" viewBox="0 0 24 24">
    <path d="m15 18-6-6 6-6"></path>
  </symbol>
  <symbol id="ns-icon-legacy-2761797b3cf9" viewBox="0 0 24 24">
    <path d="M12 3 4 7l8 4 8-4-8-4Z"/>
              <path d="m4 12 8 4 8-4"/>
              <path d="m4 17 8 4 8-4"/>
  </symbol>
  <symbol id="ns-icon-legacy-2a1c6f77cc47" viewBox="0 0 24 24">
    <path d="m6 9 6 6 6-6"/>
  </symbol>
  <symbol id="ns-icon-legacy-2afcccc2e903" viewBox="0 0 24 24">
    <path d="M14 2H8a2 2 0 0 0-2 2v16a2 2 0 0 0 2 2h8a2 2 0 0 0 2-2V8z"></path><path d="M14 2v6h6"></path><path d="M8.5 15.5h7"></path><path d="M8.5 18.5h5"></path>
  </symbol>
  <symbol id="ns-icon-legacy-2fb5e9684f26" viewBox="0 0 24 24">
    <path d="M1 12s4-7 11-7 11 7 11 7-4 7-11 7-11-7-11-7z"></path>
            <circle cx="12" cy="12" r="3"></circle>
  </symbol>
  <symbol id="ns-icon-legacy-31659fa58d6f" viewBox="0 0 24 24">
    <rect x="3" y="4" width="18" height="17" rx="2"/><path d="M8 2v4"/><path d="M16 2v4"/><path d="M3 10h18"/><path d="M8 14h.01"/><path d="M12 14h.01"/><path d="M16 14h.01"/><path d="M8 18h.01"/><path d="M12 18h.01"/>
  </symbol>
  <symbol id="ns-icon-legacy-324f7e924d36" viewBox="0 0 24 24">
    <path d="M3 12a9 9 0 1 0 3-6.7"/><path d="M3 3v6h6"/><path d="M12 7v5l3 2"/>
  </symbol>
  <symbol id="ns-icon-legacy-341725e3a003" viewBox="0 0 24 24">
    <circle cx="12" cy="12" r="9"/><path d="M3 12h18"/><path d="M12 3a15 15 0 0 1 0 18"/><path d="M12 3a15 15 0 0 0 0 18"/>
  </symbol>
  <symbol id="ns-icon-legacy-34eed23e5187" viewBox="0 0 24 24">
    <path d="M6 2h9l5 5v15H6z"/><path d="M14 2v6h6"/><path d="M9 13h6"/><path d="M9 17h4"/>
  </symbol>
  <symbol id="ns-icon-legacy-35144a80cbe9" viewBox="0 0 24 24">
    <path d="M3 6h18"/>
        <path d="M8 6V4h8v2"/>
        <path d="M19 6l-1 14H6L5 6"/>
        <path d="M10 11v6"/>
        <path d="M14 11v6"/>
  </symbol>
  <symbol id="ns-icon-legacy-37772407a497" viewBox="0 0 24 24">
    <path d="M21 15a4 4 0 0 1-4 4H8l-5 3V7a4 4 0 0 1 4-4h10a4 4 0 0 1 4 4z"/>
  </symbol>
  <symbol id="ns-icon-legacy-37a30864cc09" viewBox="0 0 24 24">
    <path d="M19 21H5a2 2 0 0 1-2-2V5a2 2 0 0 1 2-2h11l5 5v11a2 2 0 0 1-2 2Z"/><path d="M17 21v-8H7v8"/><path d="M7 3v5h8"/>
  </symbol>
  <symbol id="ns-icon-legacy-3a35b0c33d3c" viewBox="0 0 24 24">
    <path d="M19 21H5a2 2 0 0 1-2-2V5a2 2 0 0 1 2-2h11l5 5v11a2 2 0 0 1-2 2z"/><path d="M17 21v-8H7v8"/><path d="M7 3v5h8"/>
  </symbol>
  <symbol id="ns-icon-legacy-3b025ea8d163" viewBox="0 0 24 24">
    <path d="M4 7h16"/><path d="M4 12h16"/><path d="M4 17h16"/><path d="M7 4v16"/>
  </symbol>
  <symbol id="ns-icon-legacy-3b373ae03afc" viewBox="0 0 24 24">
    <path d="M21 12a9 9 0 0 1-15.5 6.2"/><path d="M3 12A9 9 0 0 1 18.5 5.8"/><path d="M18 2v5h-5"/><path d="M6 22v-5h5"/>
  </symbol>
  <symbol id="ns-icon-legacy-3b584a1d8627" viewBox="0 0 24 24">
    <path d="M17 21v-2a4 4 0 0 0-4-4H5a4 4 0 0 0-4 4v2"/><circle cx="9" cy="7" r="4"/><path d="M23 21v-2a4 4 0 0 0-3-3.87"/><path d="M16 3.13a4 4 0 0 1 0 7.75"/>
  </symbol>
  <symbol id="ns-icon-legacy-3ba80943f787" viewBox="0 0 24 24">
    <path d="M16 11c1.66 0 3-1.57 3-3.5S17.66 4 16 4s-3 1.57-3 3.5S14.34 11 16 11Z"/><path d="M8 11c1.66 0 3-1.57 3-3.5S9.66 4 8 4 5 5.57 5 7.5 6.34 11 8 11Z"/><path d="M16 13c-2.67 0-8 1.34-8 4v3h16v-3c0-2.66-5.33-4-8-4Z"/><path d="M8 13c-2.67 0-8 1.34-8 4v3h8"/>
  </symbol>
  <symbol id="ns-icon-legacy-3c94d17118e4" viewBox="0 0 24 24">
    <path d="M3 6h18"/><path d="M8 6V4h8v2"/><path d="M19 6l-1 14H6L5 6"/><path d="M10 11v6"/><path d="M14 11v6"/>
  </symbol>
  <symbol id="ns-icon-legacy-3dd4aec65f53" viewBox="0 0 24 24">
    <path d="M14 2H6a2 2 0 0 0-2 2v16a2 2 0 0 0 2 2h12a2 2 0 0 0 2-2V8z"/>
                <path d="M14 2v6h6"/>
                <path d="M12 12v6"/>
                <path d="M9 15h6"/>
  </symbol>
  <symbol id="ns-icon-legacy-3df90b3a05b1" viewBox="0 0 24 24">
    <path d="M12 20h9"/><path d="M16.5 3.5a2.1 2.1 0 0 1 3 3L7 19l-4 1 1-4Z"/>
  </symbol>
  <symbol id="ns-icon-legacy-3e94ce657c01" viewBox="0 0 24 24">
    <path d="M12 3v12"/><path d="m7 10 5 5 5-5"/><path d="M5 21h14"/><path d="M5 17v4"/><path d="M19 17v4"/>
  </symbol>
  <symbol id="ns-icon-legacy-41fc15ac2f35" viewBox="0 0 24 24">
    <circle cx="10" cy="7" r="4"/><path d="M3.5 21a6.5 6.5 0 0 1 10.5-5.1"/><path d="M18 16v5"/><path d="M20.5 18.5H15.5"/>
  </symbol>
  <symbol id="ns-icon-legacy-44d3a5d04e56" viewBox="0 0 24 24">
    <path d="M12 2v4"/><path d="M12 18v4"/><path d="m4.93 4.93 2.83 2.83"/><path d="m16.24 16.24 2.83 2.83"/><path d="M2 12h4"/><path d="M18 12h4"/><path d="m4.93 19.07 2.83-2.83"/><path d="m16.24 7.76 2.83-2.83"/>
  </symbol>
  <symbol id="ns-icon-legacy-47ac80b2c669" viewBox="0 0 24 24">
    <rect x="4" y="4" width="16" height="16" rx="3"/><path d="M8 14l2.2-2.2a1 1 0 0 1 1.4 0L14 14"/><path d="m13 13 1.2-1.2a1 1 0 0 1 1.4 0L18 14"/><circle cx="9" cy="9" r="1"/>
  </symbol>
  <symbol id="ns-icon-legacy-48dd56632f54" viewBox="0 0 24 24">
    <path d="M12 20h9"/>
                  <path d="M16.5 3.5a2.12 2.12 0 1 1 3 3L7 19l-4 1 1-4 12.5-12.5z"/>
  </symbol>
  <symbol id="ns-icon-legacy-490440b0a8fc" viewBox="0 0 24 24">
    <rect x="3" y="4" width="18" height="17" rx="2"/><path d="M8 2v4"/><path d="M16 2v4"/><path d="M3 10h18"/><path d="M8 14h.01"/><path d="M12 14h.01"/><path d="M16 14h.01"/>
  </symbol>
  <symbol id="ns-icon-legacy-493094397540" viewBox="0 0 24 24">
    <path d="M12 13a4 4 0 1 0 0-8 4 4 0 0 0 0 8Z"/><path d="M4 20a8 8 0 0 1 16 0"/>
  </symbol>
  <symbol id="ns-icon-legacy-49a1433e3f07" viewBox="0 0 ${size} ${size}">
    <circle cx="${size / 2}" cy="${size / 2}" r="${r}" fill="none" stroke="#e5e7eb" stroke-width="${stroke}" />
            <circle cx="${size / 2}" cy="${size / 2}" r="${r}" fill="none" stroke="${color}" stroke-width="${stroke}" stroke-linecap="round" stroke-dasharray="${c}" stroke-dashoffset="${offset}" transform="rotate(-90 ${size / 2} ${size / 2})" />
  </symbol>
  <symbol id="ns-icon-legacy-4b4faca8558c" viewBox="0 0 24 24">
    <path d="M22 16.92v3a2 2 0 0 1-2.18 2 19.8 19.8 0 0 1-8.63-3.07A19.5 19.5 0 0 1 5.15 12.8 19.8 19.8 0 0 1 2.08 4.18 2 2 0 0 1 4.06 2h3a2 2 0 0 1 2 1.72l.32 2.57a2 2 0 0 1-.57 1.71l-1.2 1.2a16 16 0 0 0 6.38 6.38l1.2-1.2a2 2 0 0 1 1.71-.57l2.57.32A2 2 0 0 1 22 16.92Z"/>
  </symbol>
  <symbol id="ns-icon-legacy-4d87c5005d49" viewBox="0 0 24 24">
    <path d="M14 2H7a2 2 0 0 0-2 2v16a2 2 0 0 0 2 2h10a2 2 0 0 0 2-2V7z"/><path d="M14 2v5h5"/><path d="M9 13h6"/><path d="M9 17h4"/>
  </symbol>
  <symbol id="ns-icon-legacy-4f286326f7ff" viewBox="0 0 24 24">
    <path d="M2 12s3.5-6 10-6 10 6 10 6-3.5 6-10 6-10-6-10-6Z"/><circle cx="12" cy="12" r="3"/>
  </symbol>
  <symbol id="ns-icon-legacy-5133eba01863" viewBox="0 0 24 24">
    <circle cx="11" cy="11" r="8"/><path d="m21 21-4.35-4.35"/>
  </symbol>
  <symbol id="ns-icon-legacy-5218a50c91d8" viewBox="0 0 24 24">
    <rect x="3" y="11" width="18" height="10" rx="2"></rect><path d="M7 11V8a5 5 0 0 1 10 0v3"></path>
  </symbol>
  <symbol id="ns-icon-legacy-52ba47df5d57" viewBox="0 0 24 24">
    <path d="M3 12a9 9 0 1 0 3-6.7"/><path d="M3 4v6h6"/><path d="M12 7v5l3 2"/>
  </symbol>
  <symbol id="ns-icon-legacy-52fbff751eeb" viewBox="0 0 24 24">
    <polyline points="3 6 5 6 21 6"/><path d="M19 6l-1 14H6L5 6"/><path d="M10 11v6"/><path d="M14 11v6"/><path d="M9 6V4h6v2"/>
  </symbol>
  <symbol id="ns-icon-legacy-59d2f72b4491" viewBox="0 0 24 24">
    <path d="M10 13a5 5 0 0 0 7.07 0l2.83-2.83a5 5 0 0 0-7.07-7.07L11 4.93"/><path d="M14 11a5 5 0 0 0-7.07 0L4.1 13.83a5 5 0 0 0 7.07 7.07L13 19.07"/>
  </symbol>
  <symbol id="ns-icon-legacy-5aa307c78cac" viewBox="0 0 24 24">
    <path d="M12 20h9"></path>
        <path d="M16.5 3.5a2.12 2.12 0 1 1 3 3L7 19l-4 1 1-4 12.5-12.5z"></path>
  </symbol>
  <symbol id="ns-icon-legacy-5d73056a518e" viewBox="0 0 24 24">
    <path d="M7 14l5-5 5 5"/>
        <path d="M7 20l5-5 5 5"/>
  </symbol>
  <symbol id="ns-icon-legacy-5df83b8062bc" viewBox="0 0 24 24">
    <path d="M12 22s8-4 8-10V5l-8-3-8 3v7c0 6 8 10 8 10Z"/><path d="m9 12 2 2 4-4"/>
  </symbol>
  <symbol id="ns-icon-legacy-5e738cf7fc43" viewBox="0 0 260 170">

  </symbol>
  <symbol id="ns-icon-legacy-5f67c2651266" viewBox="0 0 24 24">
    <path d="M4 20h16"/><path d="M7 20V8h10v12"/><path d="M9 4h6v4H9z"/>
  </symbol>
  <symbol id="ns-icon-legacy-62dfea701d3b" viewBox="0 0 24 24">
    <path d="M4 21v-7"/><path d="M4 10V3"/><path d="M12 21v-9"/><path d="M12 8V3"/><path d="M20 21v-5"/><path d="M20 12V3"/><path d="M2 14h4"/><path d="M10 8h4"/><path d="M18 16h4"/>
  </symbol>
  <symbol id="ns-icon-legacy-632d573c05c5" viewBox="0 0 24 24">
    <path d="M9 11l3 3L22 4"/><path d="M21 12v7a2 2 0 0 1-2 2H5a2 2 0 0 1-2-2V5a2 2 0 0 1 2-2h11"/>
  </symbol>
  <symbol id="ns-icon-legacy-63bd94e5eaaf" viewBox="0 0 24 24">
    <rect x="3" y="4" width="18" height="17" rx="2"/><path d="M8 2v4"/><path d="M16 2v4"/><path d="M3 10h18"/><path d="M9 15l2 2 4-5"/>
  </symbol>
  <symbol id="ns-icon-legacy-64318c87f0e1" viewBox="0 0 24 24">
    <path d="M4 21v-7"/><path d="M4 10V3"/><path d="M12 21v-9"/><path d="M12 8V3"/><path d="M20 21v-5"/><path d="M20 12V3"/><path d="M2 14h4"/><path d="M10 8h4"/><path d="M18 16h4"/>
  </symbol>
  <symbol id="ns-icon-legacy-65baf039ea60" viewBox="0 0 24 24">
    <path d="M3 21h18"/><path d="M4 10h16"/><path d="M6 10v11"/><path d="M18 10v11"/><path d="M8 6l4-3 4 3"/><path d="M12 10v11"/>
  </symbol>
  <symbol id="ns-icon-legacy-660d27ff6f29" viewBox="0 0 24 24">
    <rect x="3" y="4" width="18" height="16" rx="2"/><path d="M7 8h10"/><path d="M7 12h10"/><path d="M7 16h6"/>
  </symbol>
  <symbol id="ns-icon-legacy-66fe0e738e99" viewBox="0 0 110 42">
    <path d="M4 30 L16 24 L27 28 L38 16 L50 22 L61 12 L72 21 L84 17 L96 24 L106 14"/>
  </symbol>
  <symbol id="ns-icon-legacy-67447bc93b8a" viewBox="0 0 24 24">
    <path d="M5 3l14 9-14 9V3Z"/>
  </symbol>
  <symbol id="ns-icon-legacy-67df5329c093" viewBox="0 0 24 24">
    <path d="M22 10 12 5 2 10l10 5 10-5Z"/><path d="M6 12v5c3 2 9 2 12 0v-5"/>
  </symbol>
  <symbol id="ns-icon-legacy-733db69d696c" viewBox="0 0 24 24">
    <path d="M9 11l3 3L22 4"/><path d="M21 12v7a2 2 0 0 1-2 2H5a2 2 0 0 1-2-2V5a2 2 0 0 1 2-2h11"/>
  </symbol>
  <symbol id="ns-icon-legacy-7465f1b17497" viewBox="0 0 24 24">
    <path d="M20 6 9 17l-5-5"></path>
  </symbol>
  <symbol id="ns-icon-legacy-74955cea5347" viewBox="0 0 24 24">
    <path d="M3 6h18"/><path d="M8 6V4h8v2"/><path d="m19 6-1 14H6L5 6"/><path d="M10 11v6"/><path d="M14 11v6"/>
  </symbol>
  <symbol id="ns-icon-legacy-74ffba82e83c" viewBox="0 0 24 24">
    <path d="M21 12a9 9 0 1 1-2.64-6.36"/><path d="M21 3v6h-6"/>
  </symbol>
  <symbol id="ns-icon-legacy-7777739b8e2e" viewBox="0 0 24 24">
    <circle cx="12" cy="12" r="9"/><path d="m8 12 2.5 2.5L16 9"/>
  </symbol>
  <symbol id="ns-icon-legacy-78574d868437" viewBox="0 0 24 24">
    <polyline points="9 6 15 12 9 18"></polyline>
  </symbol>
  <symbol id="ns-icon-legacy-7872f66969ce" viewBox="0 0 24 24">
    <path d="M4 6h16v12H4z"/><path d="m4 8 8 6 8-6"/>
  </symbol>
  <symbol id="ns-icon-legacy-797f87d895b8" viewBox="0 0 24 24">
    <path d="M12 5v14"/><path d="M5 12h14"/>
  </symbol>
  <symbol id="ns-icon-legacy-7b78c227a9c4" viewBox="0 0 24 24">
    <path d="M3 6h18"></path>
                  <path d="M8 6V4h8v2"></path>
                  <path d="M19 6l-1 14H6L5 6"></path>
  </symbol>
  <symbol id="ns-icon-legacy-7b7ba2a8599d" viewBox="0 0 24 24">
    <path d="M14 2H7a2 2 0 0 0-2 2v16a2 2 0 0 0 2 2h10a2 2 0 0 0 2-2V7z"/><path d="M14 2v5h5"/><path d="M9 15l2 2 4-4"/>
  </symbol>
  <symbol id="ns-icon-legacy-7cd893ed60a5" viewBox="0 0 24 24">
    <path d="M12 9v4"></path>
          <path d="M12 17h.01"></path>
          <path d="M10.3 4.2 2.5 18a2 2 0 0 0 1.7 3h15.6a2 2 0 0 0 1.7-3L13.7 4.2a2 2 0 0 0-3.4 0Z"></path>
  </symbol>
  <symbol id="ns-icon-legacy-7f96f0bc6bd1" viewBox="0 0 24 24">
    <path d="m18 6-12 12"/><path d="m6 6 12 12"/>
  </symbol>
  <symbol id="ns-icon-legacy-80e32923a45d" viewBox="0 0 24 24">
    <rect x="4" y="11" width="16" height="9" rx="2"/><path d="M8 11V8a4 4 0 0 1 8 0v3"/>
  </symbol>
  <symbol id="ns-icon-legacy-81945827b1d3" viewBox="0 0 24 24">
    <path d="M12 20h9"/><path d="M16.5 3.5a2.12 2.12 0 1 1 3 3L7 19l-4 1 1-4 12.5-12.5z"/>
  </symbol>
  <symbol id="ns-icon-legacy-819c04ddf822" viewBox="0 0 24 24">
    <path d="M15 3h3a2 2 0 0 1 2 2v14a2 2 0 0 1-2 2h-3"/><path d="M10 17l5-5-5-5"/><path d="M15 12H4"/>
  </symbol>
  <symbol id="ns-icon-legacy-84aecbb086da" viewBox="0 0 24 24">
    <path d="M3 12a9 9 0 0 1 15.1-6.6"/><path d="M18 3v5h-5"/><path d="M21 12a9 9 0 0 1-15.1 6.6"/><path d="M6 21v-5h5"/>
  </symbol>
  <symbol id="ns-icon-legacy-85d684898865" viewBox="0 0 24 24">
    <rect x="9" y="3" width="6" height="4" rx="1.2"/>
    <rect x="3" y="17" width="6" height="4" rx="1.2"/>
    <rect x="15" y="17" width="6" height="4" rx="1.2"/>
    <path d="M12 7v6"/>
    <path d="M6 13h12"/>
    <path d="M6 13v4"/>
    <path d="M18 13v4"/>
  </symbol>
  <symbol id="ns-icon-legacy-8669e6a76c97" viewBox="0 0 24 24">
    <rect x="3" y="4" width="6" height="6" rx="2"/><rect x="15" y="3" width="6" height="6" rx="2"/><rect x="15" y="15" width="6" height="6" rx="2"/><path d="M9 7h2.5A3.5 3.5 0 0 1 15 10.5V18"/><path d="M15 6h-2.5"/><path d="M15 18h-2.5"/>
  </symbol>
  <symbol id="ns-icon-legacy-86c0e26ea4bd" viewBox="0 0 24 24">
    <path d="M12 3v18"/><path d="M4 8h16"/><path d="M4 16h16"/>
  </symbol>
  <symbol id="ns-icon-legacy-8753e49359b5" viewBox="0 0 24 24">
    <path d="M4 20h16"/><path d="M7 20V8h10v12"/><path d="M9 12h2"/><path d="M13 12h2"/><path d="M9 16h2"/><path d="M13 16h2"/><path d="M9 4h6v4H9z"/>
  </symbol>
  <symbol id="ns-icon-legacy-8ab64879b27f" viewBox="0 0 24 24">
    <rect x="3" y="7" width="18" height="13" rx="2"/><path d="M8 7V5a2 2 0 0 1 2-2h4a2 2 0 0 1 2 2v2"/><path d="M3 13h18"/>
  </symbol>
  <symbol id="ns-icon-legacy-8c3812883f7f" viewBox="0 0 24 24">
    <rect x="3" y="4" width="18" height="12" rx="2"/><path d="M8 20h8"/><path d="M12 16v4"/>
  </symbol>
  <symbol id="ns-icon-legacy-8c95e83621d0" viewBox="0 0 24 24">
    <path d="M21 12a9 9 0 1 1-9-9"/><path d="M21 3v9h-9"/><path d="M21 3l-9 9"/>
  </symbol>
  <symbol id="ns-icon-legacy-8cde59156672" viewBox="0 0 24 24">
    <path d="M14 3h4a2 2 0 0 1 2 2v14a2 2 0 0 1-2 2h-4"/><path d="M10 17l5-5-5-5"/><path d="M15 12H3"/>
  </symbol>
  <symbol id="ns-icon-legacy-8dba52f618da" viewBox="0 0 24 24">
    <path d="M12 2v4"/><path d="M12 18v4"/><path d="M4.93 4.93l2.83 2.83"/><path d="M16.24 16.24l2.83 2.83"/><path d="M2 12h4"/><path d="M18 12h4"/><path d="M4.93 19.07l2.83-2.83"/><path d="M16.24 7.76l2.83-2.83"/>
  </symbol>
  <symbol id="ns-icon-legacy-8dd12045d43d" viewBox="0 0 24 24">
    <path d="M12 20h9"/><path d="M16.5 3.5a2.1 2.1 0 0 1 3 3L7 19l-4 1 1-4Z"/>
  </symbol>
  <symbol id="ns-icon-legacy-911e3caae8aa" viewBox="0 0 24 24">
    <path d="M4 19.5A2.5 2.5 0 0 1 6.5 17H20"/><path d="M6.5 17A2.5 2.5 0 0 0 4 19.5V5a2 2 0 0 1 2-2h14v18H6.5Z"/><path d="M8 7h8"/><path d="M8 11h8"/>
  </symbol>
  <symbol id="ns-icon-legacy-9149d8048285" viewBox="0 0 24 24">
    <path d="M8 6h13"/><path d="M8 12h13"/><path d="M8 18h13"/><path d="M3 6h.01"/><path d="M3 12h.01"/><path d="M3 18h.01"/>
  </symbol>
  <symbol id="ns-icon-legacy-920dcb9c5b21" viewBox="0 0 24 24">
    <path d="M18 6 6 18"/><path d="m6 6 12 12"/>
  </symbol>
  <symbol id="ns-icon-legacy-9478f892ade6" viewBox="0 0 24 24">
    <path d="M5 12h14"/><path d="m13 6 6 6-6 6"/>
  </symbol>
  <symbol id="ns-icon-legacy-95619e9b38b9" viewBox="0 0 24 24">
    <path d="M19 21H5a2 2 0 0 1-2-2V5a2 2 0 0 1 2-2h11l5 5v11a2 2 0 0 1-2 2Z"/><path d="M17 21v-8H7v8"/><path d="M7 3v5h8"/>
  </symbol>
  <symbol id="ns-icon-legacy-9590cca5021d" viewBox="0 0 24 24">
    <path d="M12 5v14"></path>
        <path d="M5 12h14"></path>
  </symbol>
  <symbol id="ns-icon-legacy-95c50785055d" viewBox="0 0 24 24">
    <path d="M21 15a4 4 0 0 1-4 4H8l-5 3V7a4 4 0 0 1 4-4h10a4 4 0 0 1 4 4z"/>
  </symbol>
  <symbol id="ns-icon-legacy-97f80d55f140" viewBox="0 0 24 24">
    <circle cx="11" cy="11" r="8"/><path d="m21 21-4.35-4.35"/>
  </symbol>
  <symbol id="ns-icon-legacy-98205e667665" viewBox="0 0 24 24">
    <path d="M20 6 9 17l-5-5"/>
  </symbol>
  <symbol id="ns-icon-legacy-9893168354d9" viewBox="0 0 24 24">
    <circle cx="12" cy="7" r="3"/><path d="M6 21v-2a6 6 0 0 1 12 0v2"/><path d="M4 8a8 8 0 0 0-1 4"/><path d="M20 8a8 8 0 0 1 1 4"/>
  </symbol>
  <symbol id="ns-icon-legacy-9bf44221f8c8" viewBox="0 0 24 24">
    <rect x="4" y="4" width="16" height="16" rx="3"></rect>
        <path d="M8 9h8"></path>
        <path d="M8 13h8"></path>
        <path d="M8 17h5"></path>
  </symbol>
  <symbol id="ns-icon-legacy-a149b257c18e" viewBox="0 0 24 24">
    <circle cx="12" cy="12" r="9"/><path d="M12 10v6"/><path d="M12 7h.01"/>
  </symbol>
  <symbol id="ns-icon-legacy-a1b5ec670a9b" viewBox="0 0 24 24">
    <path d="M20 6 9 17l-5-5"/>
  </symbol>
  <symbol id="ns-icon-legacy-a476a9e16d86" viewBox="0 0 24 24">
    <rect x="3" y="6" width="18" height="12" rx="2"/><path d="M3 10h18"/><path d="M7 15h3"/>
  </symbol>
  <symbol id="ns-icon-legacy-a5a4d3b5679c" viewBox="0 0 24 24">
    <path d="M12 3v12"/><path d="m7 8 5-5 5 5"/><path d="M5 21h14"/>
  </symbol>
  <symbol id="ns-icon-legacy-a5bba00e1fec" viewBox="0 0 24 24">
    <rect x="3" y="4" width="6" height="6" rx="2"/><rect x="15" y="3" width="6" height="6" rx="2"/><rect x="15" y="15" width="6" height="6" rx="2"/><path d="M9 7h2.5A3.5 3.5 0 0 1 15 10.5V18"/><path d="M15 6h-2.5"/><path d="M15 18h-2.5"/>
  </symbol>
  <symbol id="ns-icon-legacy-a708db67a7a0" viewBox="0 0 24 24">
    <path d="M22 2 11 13"></path>
          <path d="M22 2 15 22l-4-9-9-4 20-7Z"></path>
  </symbol>
  <symbol id="ns-icon-legacy-a80aadd95de8" viewBox="0 0 24 24">
    <circle cx="12" cy="8" r="5"/><path d="M8.5 12.5 7 22l5-3 5 3-1.5-9.5"/>
  </symbol>
  <symbol id="ns-icon-legacy-a98e5246c91c" viewBox="0 0 24 24">
    <path d="M8 6h13"/><path d="M8 12h13"/><path d="M8 18h13"/><path d="M3 6h.01"/><path d="M3 12h.01"/><path d="M3 18h.01"/>
  </symbol>
  <symbol id="ns-icon-legacy-aa01548d5592" viewBox="0 0 24 24">
    <rect x="3" y="5" width="18" height="14" rx="2"></rect>
        <path d="M7 9h10"></path>
        <path d="M7 13h4"></path>
  </symbol>
  <symbol id="ns-icon-legacy-aa4824f9e286" viewBox="0 0 24 24">
    <path d="M3 6h18"/><path d="M8 6V4h8v2"/><path d="M19 6l-1 14H6L5 6"/><path d="M10 11v6"/><path d="M14 11v6"/>
  </symbol>
  <symbol id="ns-icon-legacy-aa6668c741ba" viewBox="0 0 24 24">
    <path d="M12 3v4"/><path d="M12 17v4"/><path d="M4.93 4.93l2.83 2.83"/><path d="M16.24 16.24l2.83 2.83"/><path d="M3 12h4"/><path d="M17 12h4"/><path d="M4.93 19.07l2.83-2.83"/><path d="M16.24 7.76l2.83-2.83"/><circle cx="12" cy="12" r="3"/>
  </symbol>
  <symbol id="ns-icon-legacy-abd97c783ea7" viewBox="0 0 24 24">
    <path d="M20 21v-2a4 4 0 0 0-4-4H8a4 4 0 0 0-4 4v2"/><circle cx="12" cy="7" r="4"/>
  </symbol>
  <symbol id="ns-icon-legacy-ad374d420dd2" viewBox="0 0 24 24">
    <path d="M3 12a9 9 0 1 0 3-6.7"/><path d="M3 4v5h5"/><path d="M12 7v5l3 2"/>
  </symbol>
  <symbol id="ns-icon-legacy-b023effc5040" viewBox="0 0 24 24">
    <path d="M4 19.5A2.5 2.5 0 0 1 6.5 17H20"></path>
              <path d="M4 4.5A2.5 2.5 0 0 1 6.5 2H20v20H6.5A2.5 2.5 0 0 1 4 19.5v-15Z"></path>
  </symbol>
  <symbol id="ns-icon-legacy-b030f8f02356" viewBox="0 0 24 24">
    <rect x="3" y="4" width="18" height="18" rx="2"/><path d="M16 2v4"/><path d="M8 2v4"/><path d="M3 10h18"/>
  </symbol>
  <symbol id="ns-icon-legacy-b08985483094" viewBox="0 0 24 24">
    <path d="M4 4h16v16H4z"/><path d="m22 6-10 7L2 6"/>
  </symbol>
  <symbol id="ns-icon-legacy-b183162f9d9e" viewBox="0 0 24 24">
    <path d="M3 21h18"/><path d="M5 21V7l7-4 7 4v14"/><path d="M9 10h.01"/><path d="M9 14h.01"/><path d="M15 10h.01"/><path d="M15 14h.01"/>
  </symbol>
  <symbol id="ns-icon-legacy-b1dc2d3d3665" viewBox="0 0 24 24">
    <path d="M8 2v4"/><path d="M16 2v4"/><rect x="3" y="4" width="18" height="18" rx="2"/><path d="M3 10h18"/><path d="M12 14v4"/><path d="M10 16h4"/>
  </symbol>
  <symbol id="ns-icon-legacy-b28a842edf09" viewBox="0 0 24 24">
    <path d="M8 3H5a2 2 0 0 0-2 2v3"/><path d="M16 3h3a2 2 0 0 1 2 2v3"/><path d="M21 16v3a2 2 0 0 1-2 2h-3"/><path d="M8 21H5a2 2 0 0 1-2-2v-3"/>
  </symbol>
  <symbol id="ns-icon-legacy-b432e214c33e" viewBox="0 0 24 24">
    <path d="M19 21H5a2 2 0 0 1-2-2V5a2 2 0 0 1 2-2h11l5 5v11a2 2 0 0 1-2 2Z"/><path d="M17 21v-8H7v8"/><path d="M7 3v5h8"/>
  </symbol>
  <symbol id="ns-icon-legacy-b549f0e1e641" viewBox="0 0 24 24">
    <path d="m15 18-6-6 6-6"/>
  </symbol>
  <symbol id="ns-icon-legacy-b618f2f54119" viewBox="0 0 24 24">
    <path d="M5 5h14"/><path d="M5 12h14"/><path d="M5 19h10"/><circle cx="17" cy="19" r="2"/>
  </symbol>
  <symbol id="ns-icon-legacy-b67917bf4502" viewBox="0 0 24 24">
    <path d="M16 21v-2a4 4 0 0 0-4-4H7a4 4 0 0 0-4 4v2"/><circle cx="9.5" cy="7" r="4"/><path d="m16 11 2 2 4-4"/>
  </symbol>
  <symbol id="ns-icon-legacy-b788c288e596" viewBox="0 0 ${size} ${size}">
    <circle cx="${size / 2}" cy="${size / 2}" r="${r}" fill="none" stroke="#e5e7eb" stroke-width="${stroke}" />
            <circle cx="${size / 2}" cy="${size / 2}" r="${r}" fill="none" stroke="${fill}" stroke-width="${stroke}"
                    stroke-linecap="round" stroke-dasharray="${c}" stroke-dashoffset="${offset}"
                    transform="rotate(-90 ${size / 2} ${size / 2})" />
  </symbol>
  <symbol id="ns-icon-legacy-b9ac034430d2" viewBox="0 0 24 24">
    <circle cx="12" cy="12" r="9"/><path d="M12 7v5l3 2"/>
  </symbol>
  <symbol id="ns-icon-legacy-ba8bb92d641e" viewBox="0 0 24 24">
    <path d="M3 12a9 9 0 1 0 3-6.7"/><path d="M3 4v6h6"/>
  </symbol>
  <symbol id="ns-icon-legacy-bca96578331c" viewBox="0 0 24 24">
    <path d="M14 2H8a2 2 0 0 0-2 2v16a2 2 0 0 0 2 2h8a2 2 0 0 0 2-2V8z"/><path d="M14 2v6h6"/><path d="M8.5 15.5h7"/><path d="M8.5 18.5h5"/>
  </symbol>
  <symbol id="ns-icon-legacy-c489f3162892" viewBox="0 0 24 24">
    <path d="M14 2H7a2 2 0 0 0-2 2v16a2 2 0 0 0 2 2h10a2 2 0 0 0 2-2V7z"/><path d="M14 2v5h5"/><path d="M9 13h6"/><path d="M9 17h4"/>
  </symbol>
  <symbol id="ns-icon-legacy-c4e47578bd15" viewBox="0 0 24 24">
    <ellipse cx="12" cy="5" rx="7" ry="3"></ellipse>
          <path d="M5 5v6c0 1.7 3.1 3 7 3s7-1.3 7-3V5"></path>
          <path d="M5 11v6c0 1.7 3.1 3 7 3s7-1.3 7-3v-6"></path>
  </symbol>
  <symbol id="ns-icon-legacy-c5450b5bda66" viewBox="0 0 24 24">
    <path d="M12 20h9"/><path d="M16.5 3.5a2.12 2.12 0 1 1 3 3L7 19l-4 1 1-4 12.5-12.5z"/>
  </symbol>
  <symbol id="ns-icon-legacy-c61c329361b7" viewBox="0 0 24 24">
    <path d="M12 5v14"/><path d="M5 12h14"/>
  </symbol>
  <symbol id="ns-icon-legacy-c675e9d5bc92" viewBox="0 0 24 24">
    <path d="M9 11l2 2 4-4"/><path d="M9 21H5a2 2 0 0 1-2-2V7a2 2 0 0 1 2-2h2"/><path d="M15 5h4a2 2 0 0 1 2 2v12a2 2 0 0 1-2 2h-4"/><path d="M9 3h6v4H9z"/>
  </symbol>
  <symbol id="ns-icon-legacy-c6819a8331b2" viewBox="0 0 24 24">
    <path d="M12 8v5l3 2"/><circle cx="12" cy="12" r="9"/>
  </symbol>
  <symbol id="ns-icon-legacy-c80b9fa6d1d0" viewBox="0 0 24 24">
    <path d="M16 21v-2a4 4 0 0 0-4-4H7a4 4 0 0 0-4 4v2"/><circle cx="9" cy="7" r="4"/><path d="M22 21v-2a4 4 0 0 0-3-3.87"/><path d="M16 3.13a4 4 0 0 1 0 7.75"/>
  </symbol>
  <symbol id="ns-icon-legacy-ca8521874d23" viewBox="0 0 24 24">
    <path d="M3 21h18"/><path d="M5 21V7l8-4v18"/><path d="M13 9h6v12"/><path d="M8 10h.01"/><path d="M8 14h.01"/><path d="M8 18h.01"/>
  </symbol>
  <symbol id="ns-icon-legacy-cc7ef0a5cd4f" viewBox="0 0 24 24">
    <path d="M21 12a9 9 0 1 1-2.64-6.36"/><path d="M21 3v6h-6"/>
  </symbol>
  <symbol id="ns-icon-legacy-cc8d46d2a9fb" viewBox="0 0 24 24">
    <path d="M8 2v4"/><path d="M16 2v4"/><rect x="3" y="4" width="18" height="17" rx="2"/><path d="M3 10h18"/><path d="M7 14h5"/><path d="M7 18h3"/>
  </symbol>
  <symbol id="ns-icon-legacy-d05ad005bb80" viewBox="0 0 24 24">
    <path d="M12 20h9"/>
        <path d="M16.5 3.5a2.1 2.1 0 0 1 3 3L7 19l-4 1 1-4 12.5-12.5z"/>
  </symbol>
  <symbol id="ns-icon-legacy-d26995a25940" viewBox="0 0 24 24">
    <path d="M2.5 12s3.5-6 9.5-6 9.5 6 9.5 6-3.5 6-9.5 6-9.5-6-9.5-6Z" fill="none" stroke="currentColor" stroke-width="1.8" stroke-linejoin="round"/><circle cx="12" cy="12" r="2.8" fill="none" stroke="currentColor" stroke-width="1.8"/>
  </symbol>
  <symbol id="ns-icon-legacy-d28f936b0024" viewBox="0 0 24 24">
    <path d="M21 15a4 4 0 0 1-4 4H8l-5 3V7a4 4 0 0 1 4-4h10a4 4 0 0 1 4 4z"/>
  </symbol>
  <symbol id="ns-icon-legacy-d29e055bca56" viewBox="0 0 150 150">

  </symbol>
  <symbol id="ns-icon-legacy-d4bb759ed003" viewBox="0 0 24 24">
    <rect x="3" y="4" width="18" height="17" rx="2"/><path d="M8 2v4"/><path d="M16 2v4"/><path d="M3 10h18"/><path d="M8 14h.01"/><path d="M12 14h.01"/><path d="M16 14h.01"/><path d="M8 18h.01"/><path d="M12 18h.01"/>
  </symbol>
  <symbol id="ns-icon-legacy-d54a8d543d1f" viewBox="0 0 24 24">
    <path d="M2 12s3.5-7 10-7 10 7 10 7-3.5 7-10 7-10-7-10-7z"/><circle cx="12" cy="12" r="3"/>
  </symbol>
  <symbol id="ns-icon-legacy-d5ec94a8e947" viewBox="0 0 24 24">
    <path d="M20 6 9 17l-5-5"/>
  </symbol>
  <symbol id="ns-icon-legacy-d65e416a1ac0" viewBox="0 0 24 24">
    <path d="M4 19.5A2.5 2.5 0 0 1 6.5 17H20"/><path d="M4 4.5A2.5 2.5 0 0 1 6.5 2H20v20H6.5A2.5 2.5 0 0 1 4 19.5z"/><path d="M8 7h8"/><path d="M8 11h6"/>
  </symbol>
  <symbol id="ns-icon-legacy-d72ae8e5ab22" viewBox="0 0 24 24">
    <path d="M3 21h18"/><path d="M5 21V5a2 2 0 0 1 2-2h7v18"/><path d="M14 9h5v12"/><path d="M8 7h2"/><path d="M8 11h2"/><path d="M8 15h2"/>
  </symbol>
  <symbol id="ns-icon-legacy-d76cb4cbf09b" viewBox="0 0 24 24">
    <path d="M2 12s3.5-6 10-6 10 6 10 6-3.5 6-10 6-10-6-10-6z"></path><circle cx="12" cy="12" r="3"></circle>
  </symbol>
  <symbol id="ns-icon-legacy-d9fb0dbf72c8" viewBox="0 0 24 24">
    <circle cx="7.5" cy="14.5" r="3.5"/><path d="M10 12l8-8"/><path d="M15 7l2 2"/><path d="M17 5l2 2"/>
  </symbol>
  <symbol id="ns-icon-legacy-daf48b3c0111" viewBox="0 0 24 24">
    <path d="M12 22s8-4 8-10V5l-8-3-8 3v7c0 6 8 10 8 10Z"/><path d="m9 12 2 2 4-4"/>
  </symbol>
  <symbol id="ns-icon-legacy-dbe08b9be49a" viewBox="0 0 24 24">
    <path d="M21 12a9 9 0 0 1-15.5 6.2"/>
        <path d="M3 12A9 9 0 0 1 18.5 5.8"/>
        <path d="M18 3v4h-4"/>
        <path d="M6 21v-4h4"/>
  </symbol>
  <symbol id="ns-icon-legacy-ddd08f4ab241" viewBox="0 0 24 24">
    <path d="M4 20h16"/>
        <path d="M7 20V8h10v12"/>
        <path d="M9 12h2"/>
        <path d="M13 12h2"/>
        <path d="M9 16h2"/>
        <path d="M13 16h2"/>
        <path d="M9 4h6v4H9z"/>
  </symbol>
  <symbol id="ns-icon-legacy-e05784c1bb4a" viewBox="0 0 24 24">
    <path d="M22 16.92v3a2 2 0 0 1-2.18 2 19.8 19.8 0 0 1-8.63-3.07 19.5 19.5 0 0 1-6-6A19.8 19.8 0 0 1 2.12 4.18 2 2 0 0 1 4.11 2h3a2 2 0 0 1 2 1.72c.12.9.33 1.77.63 2.61a2 2 0 0 1-.45 2.11L8.09 9.91a16 16 0 0 0 6 6l1.47-1.2a2 2 0 0 1 2.11-.45c.84.3 1.71.51 2.61.63A2 2 0 0 1 22 16.92Z"/>
  </symbol>
  <symbol id="ns-icon-legacy-e097d44ef300" viewBox="0 0 24 24">
    <circle cx="12" cy="8" r="5"/><path d="M8.5 12.5 7 22l5-3 5 3-1.5-9.5"/>
  </symbol>
  <symbol id="ns-icon-legacy-e0d9daa3282f" viewBox="0 0 24 24">
    <path d="M18 6 6 18"/><path d="M6 6l12 12"/>
  </symbol>
  <symbol id="ns-icon-legacy-e19e02498ddd" viewBox="0 0 24 24">
    <path d="M20 6 9 17l-5-5"/>
  </symbol>
  <symbol id="ns-icon-legacy-e419c4271387" viewBox="0 0 24 24">
    <path d="M3 17l6-6 4 4 7-7"/><path d="M14 8h6v6"/>
  </symbol>
  <symbol id="ns-icon-legacy-e51259e661ea" viewBox="0 0 24 24">
    <path d="M4 7h16"/><path d="M4 12h10"/><path d="M4 17h8"/><path d="m17 14 3 3 3-5"/>
  </symbol>
  <symbol id="ns-icon-legacy-e641f66fe2cb" viewBox="0 0 24 24">
    <rect x="3" y="3" width="7" height="7" rx="1"/><rect x="14" y="3" width="7" height="7" rx="1"/><rect x="8.5" y="14" width="7" height="7" rx="1"/><path d="M6.5 10v2a2 2 0 0 0 2 2H12"/><path d="M17.5 10v2a2 2 0 0 1-2 2H12"/>
  </symbol>
  <symbol id="ns-icon-legacy-e80bd2086299" viewBox="0 0 24 24">
    <path d="M8 6h13"/>
          <path d="M8 12h13"/>
          <path d="M8 18h13"/>
          <path d="M3 6h.01"/>
          <path d="M3 12h.01"/>
          <path d="M3 18h.01"/>
  </symbol>
  <symbol id="ns-icon-legacy-e9e37938472f" viewBox="0 0 24 24">
    <path d="M21 8v13H3V8"/><path d="M1 3h22v5H1z"/><path d="M10 12h4"/>
  </symbol>
  <symbol id="ns-icon-legacy-e9f1288ed6f7" viewBox="0 0 24 24">
    <rect x="3" y="4" width="18" height="18" rx="2"/>
          <path d="M16 2v4"/>
          <path d="M8 2v4"/>
          <path d="M3 10h18"/>
  </symbol>
  <symbol id="ns-icon-legacy-eb421a094629" viewBox="0 0 24 24">
    <path d="m9 18 6-6-6-6"/>
  </symbol>
  <symbol id="ns-icon-legacy-ec092c948e93" viewBox="0 0 24 24">
    <circle cx="12" cy="12" r="9"/><path d="m4.9 4.9 14.2 14.2"/>
  </symbol>
  <symbol id="ns-icon-legacy-ee027ea3e837" viewBox="0 0 24 24">
    <path d="M12 21s-6-4.35-6-10a6 6 0 1 1 12 0c0 5.65-6 10-6 10Z"/><path d="M12 11a2 2 0 1 0 0-4 2 2 0 0 0 0 4Z"/>
  </symbol>
  <symbol id="ns-icon-legacy-ee29015a0f8f" viewBox="0 0 24 24">
    <circle cx="12" cy="12" r="9"/><path d="M12 7v5l3 2"/>
  </symbol>
  <symbol id="ns-icon-legacy-f1517d01dcc5" viewBox="0 0 24 24">
    <polyline points="3 6 5 6 21 6"></polyline>
        <path d="M19 6l-1 14H6L5 6"></path>
        <path d="M10 11v6"></path>
        <path d="M14 11v6"></path>
        <path d="M9 6V4h6v2"></path>
  </symbol>
  <symbol id="ns-icon-legacy-f1f9ea801add" viewBox="0 0 24 24">
    <path d="M16 21v-2a4 4 0 0 0-8 0v2"/><circle cx="12" cy="7" r="4"/>
  </symbol>
  <symbol id="ns-icon-legacy-f4cca811a655" viewBox="0 0 24 24">
    <circle cx="12" cy="8" r="5"/><path d="M8.5 12.5 7 22l5-3 5 3-1.5-9.5"/>
  </symbol>
  <symbol id="ns-icon-legacy-f68c953288a7" viewBox="0 0 24 24">
    <path d="M21 15a4 4 0 0 1-4 4H7l-4 4V7a4 4 0 0 1 4-4h10a4 4 0 0 1 4 4z"/>
  </symbol>
  <symbol id="ns-icon-legacy-f6c5fa7803a5" viewBox="0 0 24 24">
    <path d="M4 4h16v16H4z"/>
            <path d="M8 9l-3 3 3 3"/>
            <path d="M16 9l3 3-3 3"/>
            <path d="M14 7l-4 10"/>
  </symbol>
  <symbol id="ns-icon-legacy-f8719c11af79" viewBox="0 0 24 24">
    <path d="M18 6 6 18"/><path d="m6 6 12 12"/>
  </symbol>
  <symbol id="ns-icon-legacy-f88614ed0cb1" viewBox="0 0 24 24">
    <path d="M4 21v-7"/>
              <path d="M4 10V3"/>
              <path d="M12 21v-9"/>
              <path d="M12 8V3"/>
              <path d="M20 21v-5"/>
              <path d="M20 12V3"/>
              <path d="M2 14h4"/>
              <path d="M10 8h4"/>
              <path d="M18 16h4"/>
  </symbol>
  <symbol id="ns-icon-legacy-fb250e9a4a54" viewBox="0 0 24 24">
    <path d="m9 18 6-6-6-6"/>
  </symbol>
  <symbol id="ns-icon-legacy-fc344404cd7c" viewBox="0 0 24 24">
    <path d="M16 21v-2a4 4 0 0 0-4-4H7a4 4 0 0 0-4 4v2"/><circle cx="9" cy="7" r="4"/><path d="M22 21v-2a4 4 0 0 0-3-3.87"/><path d="M16 3.13a4 4 0 0 1 0 7.75"/>
  </symbol>
  <symbol id="ns-icon-legacy-ffc75246a5b1" viewBox="0 0 24 24">
    <rect x="10" y="3" width="4" height="4" rx="1"/>
              <rect x="4" y="17" width="4" height="4" rx="1"/>
              <rect x="10" y="17" width="4" height="4" rx="1"/>
              <rect x="16" y="17" width="4" height="4" rx="1"/>
              <path d="M12 7v5"/>
              <path d="M6 17v-3a2 2 0 0 1 2-2h8a2 2 0 0 1 2 2v3"/>
              <path d="M12 12v5"/>
  </symbol>
  <symbol id="ns-icon-pdf" viewBox="0 0 24 24">
    <path d="M14 2H8a2 2 0 0 0-2 2v16a2 2 0 0 0 2 2h8a2 2 0 0 0 2-2V8z"/>
    <path d="M14 2v6h6"/>
    <path d="M8.5 15.5h7"/>
    <path d="M8.5 18.5h5"/>
  </symbol>
  <symbol id="ns-icon-settings" viewBox="0 0 24 24">
    <path d="M12 15.5A3.5 3.5 0 1 0 12 8a3.5 3.5 0 0 0 0 7.5Z"/><path d="M19.4 15a1.65 1.65 0 0 0 .33 1.82l.06.06a2 2 0 1 1-2.83 2.83l-.06-.06A1.65 1.65 0 0 0 15 19.4a1.65 1.65 0 0 0-1 .6 1.65 1.65 0 0 0-.4 1.07V21a2 2 0 1 1-4 0v-.09A1.65 1.65 0 0 0 8 19.4a1.65 1.65 0 0 0-1.82.33l-.06.06a2 2 0 1 1-2.83-2.83l.06-.06A1.65 1.65 0 0 0 4.6 15a1.65 1.65 0 0 0-.6-1 1.65 1.65 0 0 0-1.07-.4H3a2 2 0 1 1 0-4h.09A1.65 1.65 0 0 0 4.6 8a1.65 1.65 0 0 0-.33-1.82l-.06-.06a2 2 0 1 1 2.83-2.83l.06.06A1.65 1.65 0 0 0 9 4.6a1.65 1.65 0 0 0 1-.6 1.65 1.65 0 0 0 .4-1.07V3a2 2 0 1 1 4 0v.09A1.65 1.65 0 0 0 15 4.6a1.65 1.65 0 0 0 1.82-.33l.06-.06a2 2 0 1 1 2.83 2.83l-.06.06A1.65 1.65 0 0 0 19.4 9c.14.36.35.69.6 1 .25.31.64.49 1.07.49H21a2 2 0 1 1 0 4h-.09A1.65 1.65 0 0 0 19.4 15Z"/>
  </symbol>
  <symbol id="ns-icon-simulation" viewBox="0 0 24 24">
    <path d="M4 7h16"/><path d="M4 12h10"/><path d="M4 17h8"/><path d="m17 14 3 3 3-5"/>
  </symbol>
  <symbol id="ns-icon-organisation" viewBox="0 0 24 24">
    <path d="M4 21V5a2 2 0 0 1 2-2h9a2 2 0 0 1 2 2v16"/>
    <path d="M9 21v-4h3v4"/>
    <path d="M8 7h.01"/>
    <path d="M12 7h.01"/>
    <path d="M8 11h.01"/>
    <path d="M12 11h.01"/>
    <path d="M17 9h3v12"/>
  </symbol>
  <symbol id="ns-icon-user" viewBox="0 0 24 24">
    <circle cx="12" cy="7" r="4"/>
    <path d="M5.5 21a6.5 6.5 0 0 1 13 0"/>
  </symbol>
  <symbol id="ns-icon-users" viewBox="0 0 24 24">
    <path d="M16 21v-2a4 4 0 0 0-4-4H7a4 4 0 0 0-4 4v2"/>
    <circle cx="9" cy="7" r="4"/>
    <path d="M22 21v-2a4 4 0 0 0-3-3.87"/>
    <path d="M16 3.13a4 4 0 0 1 0 7.75"/>
  </symbol>
</svg>
